<?xml version="1.0" encoding="utf-8"?>
<!-- Generator: Adobe Illustrator 25.0.1, SVG Export Plug-In . SVG Version: 6.00 Build 0)  -->
<svg version="1.1" id="Ebene_1" xmlns="http://www.w3.org/2000/svg" xmlns:xlink="http://www.w3.org/1999/xlink" x="0px" y="0px"
	 viewBox="0 0 492.5 492.5" style="enable-background:new 0 0 492.5 492.5;" xml:space="preserve">
<style type="text/css">
	.st0{fill:#FFFFFF;}
</style>
<g>
	<g>
		<path class="st0" d="M52.6,1v296.2c0,107.3,86.7,194.4,193.6,194.4s193.6-87,193.6-194.4V1H52.6z"/>
		<path d="M246.2,492.5c-52,0-100.9-20.3-137.6-57.2c-36.8-36.9-57-85.9-57-138.1V0h389.2v297.1c0,52.2-20.2,101.2-57,138.1
			C347.1,472.2,298.2,492.5,246.2,492.5z M53.6,1.9v295.2c0,106.6,86.4,193.4,192.7,193.4c106.2,0,192.7-86.8,192.7-193.4V1.9H53.6z
			"/>
	</g>
	<path d="M52.6,1v235.9h387.3V1H52.6z"/>
</g>
</svg>
