<?xml version="1.0" encoding="utf-8"?>
<!-- Generator: Adobe Illustrator 25.0.1, SVG Export Plug-In . SVG Version: 6.00 Build 0)  -->
<svg version="1.1" id="Ebene_1" xmlns="http://www.w3.org/2000/svg" xmlns:xlink="http://www.w3.org/1999/xlink" x="0px" y="0px"
	 viewBox="0 0 492.5 492.5" style="enable-background:new 0 0 492.5 492.5;" xml:space="preserve">
<style type="text/css">
	.st0{fill:#FFFFFF;}
	.st1{clip-path:url(#SVGID_2_);fill:none;stroke:#010202;stroke-width:3.048;}
	.st2{fill:#010202;}
	.st3{fill:#0A0406;}
	.st4{fill:#E8423F;}
</style>
<g>
	<path class="st0" d="M246.1,1.5h201.7V298c0,106.5-90.3,192.9-201.6,192.9c-111.3,0-201.6-86.4-201.6-192.9V1.5H246.1z"/>
	<g>
		<g>
			<g>
				<g>
					<g>
						<defs>
							<rect id="SVGID_1_" x="43.1" width="406.2" height="492.5"/>
						</defs>
						<clipPath id="SVGID_2_">
							<use xlink:href="#SVGID_1_"  style="overflow:visible;"/>
						</clipPath>
						<path class="st1" d="M246.1,1.5h201.7V298c0,106.5-90.3,192.9-201.6,192.9c-111.3,0-201.6-86.4-201.6-192.9V1.5H246.1z"/>
					</g>
				</g>
			</g>
		</g>
	</g>
	<path class="st2" d="M49.6,244.8v1.3c0,0,12.5,1.8,17.7,10.7c5.1,8.9,48.1,115.3,47.5,118.9c0.7,0.1,1.1-0.2,1.1-0.2l46.8-116.6
		c0,0,4.5-11.8,15.6-11.7c2.8-0.2,4.1-0.5,4.1-0.5v-1.3l-42.7,0.3v1.3h4.6c0,0,12.6,0,8,14.8c-4.6,14.8-29.8,87.8-29.8,87.8
		s-32.9-82.6-34.2-92.9c-1.3-10.3,11.7-10.2,11.7-10.2h3v-1.3L49.6,244.8z"/>
	<path class="st2" d="M384.7,367.4c0,0-10.5-1.8-11.7-8.2c-1.3-6.4-0.5-53.5-0.5-53.5s1.1-1.1,1.8-0.8c0.7,0.3,2.4,2.7,2.4,2.7
		s24.7,58,53,58.4c2.6,0,3.6,0.4,5.9-0.1c-28.6-28.5-34.5-51-37.3-55.3c-2.9-4.4,1.2-6.2,2.5-6.2c34.9-1.1,37-27.8,37.2-30.8
		c0.8-14.8-11.9-22.3-20.1-25c-8.2-2.7-26.3-3.1-26.3-3.1l-24.7,1h-7.1l-17.8-2.3c0,0-0.8,0.1-0.8,0.4c-0.1,0.3,0.2,0.5,0.2,0.8
		c0.9,1.9,11.4,3.5,12.3,6.6c1.7,6-0.3,104.2-0.3,104.2s-2,10.2-14.8,11.2c0.1,0.2,0,1.3,0,1.3h46.1L384.7,367.4L384.7,367.4z"/>
	<path class="st2" d="M172.9,100.5c20.2,6.9,52.6,19.6,58.2,23.2c-2.5,2.5-14.1,14.8-18.7,41.7c-10.3,4.7-13.4-0.4-13.4-0.4
		s-4,0.2-4.8,2.2c-7.7-4.8-6.2-11.3-11.5-7.4c-1.2,0.9-7-9.5-9.1-4.7c-5.5-1.4-5.1-7.9-6.6-8.2c-1.5-0.3-4.6,2.3-5.4,0.5
		c-1.5-3-3.2-6.5-3.7-7c-0.6-0.5-2.3,0.9-4.6,0.1c-2.3-0.8-3.8-6.8-5.8-7.7c-4.1,1.6-6.4-5.2-6.7-6.1c-0.6,1.9-6.2,2.5-5.5-0.7
		c2.6-11-14.6-10.7-13.2-21.3c-21.9-3.7-17.2-44.4-21.5-45.2c-7.9-1.5-13.3-1-13.3-1s0.7-6.2,11.7-7c-5.7-4-13.4-5.1-13.4-5.1
		s3.1-4.9,16.9-2.3c-3-7-10.3-10.5-10.3-10.5s8.4-2.1,17,5.5c-0.7-8.8-7.5-16-7.5-16s8.2-1.1,16.1,12.8c1.9-8.4-1.2-17.3-1.2-17.3
		s8.8,1.3,11.4,18.7c7.5,10.4,2.4,25.9,10.3,43.8C142.5,91.4,155.7,94.6,172.9,100.5"/>
	<path class="st2" d="M209.4,341.1c6.7-22.7,29.2-37.8,52.1-35.9c1.2-4.7,2.2-8.9,1.8-9.7c-13.4-28.4-21.4-31.6-21.4-31.6
		s-29.6-6.3-47.5,2c-3.6,1.7-30.3,18.5-25,19.7c8.6,1.9-3.5,7.5-5.4,12.2c-1.9,4.7,2.8,3.6,3,4.1c0.5,1.4-12,13.5-8.9,14.1
		c11.6,2.3-5.2,13.8-1.6,14.7c10,2.4-2.2,12.4,1.3,12.9c1.3,0.2,3.7,0.8,5.7,1.1c-1.1,2-4,7.7-3.4,13.6c0.3,2.7,3.5-2.5,5.1,1.1
		c-8.2,6.7,7.1,25.7,8.2,37.1c-5.6,0.6-4.6-6.4-9.4-8.5c-2.6,4.7-7.9,4.7-14.2,3.1c-6.3-1.6-13.7-4.6-20.4-4.7
		c-14.8-3.7-20.9,1.4-22.3,3c0.4,0.1,5.6,1.3,13.1,4.5c-12.6,0.9-14.8,8.5-14.8,8.5s6.5-0.4,14.5,1.2c-13,6.6-11.2,13.8-11.2,13.8
		s7.2-4.3,14.6-4.8c-4,3-7.3,9.5-4.9,14.3c2.9-2.8,8.6-5.4,10.7-6.2c-2.7,6.3-2.3,10.9,0.7,14.2c8.1-11.1,11.1-10.4,13.4-10.2
		c1.3,0.1,4.8,1.2,9.9,1.8c4.3,0.4,9.8,0.3,16,0.7c14.9,0.8,32.2,1.3,43.7-10.2C209.4,391.4,203,362.9,209.4,341.1"/>
	<path class="st3" d="M309.4,31.6c6.9-8.3,33.5-2.8,21.3,17C320.2,51.3,319.1,33.2,309.4,31.6"/>
	<polygon class="st0" points="252.4,96 252.4,96 252.4,96 	"/>
	<path class="st4" d="M234.6,275.8c0,0,7.7-2.1,19,1.9c1.5,2.5,4.4,6.8,6.6,11.5C255.9,284.6,234.6,275.8,234.6,275.8"/>
	<path class="st2" d="M233.6,163.5c-52.2,9.8-93.6,43.8-114.2,14.1c5.9,1.2,10.7,11.7,18.6,7.9c-9.6-8.4-16-27.5-26.9-33.6
		c-7.6-20.6-16.4-21.3-16.4-21.3s5.5,17.2,4,20.6c-14.3-14.3-21.9-10.7-21.9-10.7L89.7,157c0,0-14.5-7.3-21-1.8
		c8.4,3.3,16.2,9.1,16.1,10.9c-1,0.1-13-1.5-15.3,5.3c4.8,0.8,13.2,3.6,14.6,6c-4.9,2.1-13.9,4.9-12.4,12.8c6.1-1,10.8-4.3,16.4-3.2
		c7.4-2,20.3,14.4,21.5,16.1c1.2,1.6,26.4,25.6,35.6,15.6c0.6-0.7,9.2,6,10.5,4.1c4.4-6.1,3.6-3.9,6.8-1c1.6,1.5,5.7-0.5,7.6,2.3
		c4.2-6.8,13.8,2.3,18.4-3.2c5,2.6,8.1,5.3,9.4-1.1c5.3,6.6,6.7,0,11.4,4.6c-0.4-6.3,3.5-3.8,10.7-2.6c4.7,0.8,11,0.1,17.6-0.9
		c16.8-2.4,23.4-16.6,24.6-19c2.2-4.6,4.7-4.3,3.9-1.6c-4.1,14.4-12.9,26.4-37.1,25.3c-1.3-0.1-2,0.5-2.5,1.3
		c-0.6,0.8-0.5,1.5-0.4,4.4c0.2,6,16.3,23.6,25.6,36.9c12.1,17.4,16,26.3,14.5,30.1c-2.6,6.8-8,42.6-7.8,43.8
		c0.2,1.2,2.2,2.2,4.1,0.6c2.4,2.4-2.1,11.8,0.8,12.1c2.2-1.4,4.9-2.6,4.9-2.6s-4.6,10.5,2,15.5c0.8-2.9,3.4-5.1,3.4-5.1
		s-1.3,10.2,5,13.1c0.1-0.7,0-1.1,0.7-4.3c3.8,12.4,5.6,13.5,6.6,12.6c1-0.8-1.8-5.1,1.5-4.2c1.2,10.8,4.5,10.6,4.5,10.6
		s0.4-0.4,2-2.9c3.8,9.1,25.2,18.9,21.5,40.9c-0.8,0.5-2.5,0.4-3-1.3c-0.5-1.7-1.8-6.7-2.5-7.4c-0.6-0.7-2.4-2.9-16.5-4.4
		c-14.1-1.5-21.2,4.9-21.2,4.9s-15.6-4.7-24,5.2c5-1.1,17.1,4.8,17.1,4.8s-12.5,2.7-14.5,14.2c8.9-4.1,18-3,18-3s-11.1,7.6-8.8,18.4
		c7.8-7.4,15.9-9.3,15.9-9.3s-7.5,11.4-1.3,18.9c3-4,8.6-12.2,12.8-11.6c1.7,11.3,8.8,15.2,9.8,14.4c1-0.8-1.9-10.4,5.3-16.3
		c12.3-2.7,42.5-7.9,54.2-33.2c-1.3-7.9-26.1-44.6-25.6-71.1c0.1-7.4,1.2-36.7,1.2-36.7s0.9-17.1-5.9-28.5c4.2,0.3,5.8,7.8,8.2,9.2
		c2.4,1.4,4.3-2.1,4.3-2.1l-0.9-6.4l4.8,5.2c0,0,4.2-8.2,0.7-18.4c-3.5-10.2-19.7-29.9-21.9-36.6c-1.6-4.7-4.5-22.2-5.6-29.4
		c-1.2-7.2-0.7-29.3-0.7-29.3s3.4,0.5,5.6,2.3c1.8-1.9-0.9-8.5-0.1-9.5c0.8,1.3,3.8,1.4,5.6,3.1c3-5.4,0.4-10.6,0.1-11.3
		c5,1.9,9.5,1.5,10.2-0.2c-1.9-1.7-4.5-12-4.4-13.3c1.9-0.9,7.4,3.5,8.3,1.9c-3-4.2-1.4-10.6-6-17.7c1.7-1.2,3.5,1,5.6-2
		c-9.1-12.9,2.1-25.9,1.1-35.5C340.3,81.1,331,78.5,331,78.5s24.6-0.1,19.4-17.9c-5.2-17.8-18-6.5-26.3-11
		c-8.4-4.6-8.2-16.8-21.1-17.4c-18.2-0.9-42.6,11.5-56.7,11.5c-4.4,0-3.8,0.7-14.3-2.1c-2.8,13.3,2.7,14.7,1.1,17.9
		c-2.9,5.8-1.8,7.3-1.8,7.3l1.6,0c-0.4,2-0.6,6,2.6,10.5c3.9-5.3,5.2-8.7,5.6-10.3l1.1,0c-0.2,2.4-0.1,7,2.5,10.3
		c3.9-3.5,5.3-8,5.8-10.2l0.2,0c0,0,8.9-0.6,14.6,2.2c5.7,2.8,5.5,13.7,5.5,13.7s-15.5-4.7-22.2-4.5c-9.4,0.2-24.1,3.8-33,1.9
		c-8.9-1.9-17-13.3-17-13.3s-14,18.9,17.3,23.6c7,1.1,13.5,0.7,19.2-0.2c0,0,14.9-2.9,18.1-3.3c3.2-0.4,16.2,1.3,16.2,1.3
		s-0.7,4.2-7.1,4.2c-2.1,0-27.5-0.4-27.5-0.4s-0.7,7.6,4.9,8.1c1.8,0.1,8.5-0.5,17.1,0.7c18.1,2.4,38.6,8.9,53.6-5.8
		c12.9-12.7,2.8-31.4,14.4-39.4c9.5-6.6,20.1-0.6,20.5,1.9c-14.3-5.2-17.3-0.6-18.9,0.5c-11.5,7.8,5.7,47.2-38,48.4
		c-15.2,0.4-31.2,1.2-38.2,7.9c-3.9,3.8-7.9,3.6-13.6,8.7c-15.5,13.9-17.1,30.9-18.7,39.5c-0.6,3.4,1.1,2.3,1.1,2.3
		s8.2-2.6,14.2-3.4c1.1-0.1,1.2,0.5,1.2,0.5s0,0.7-1,1.3"/>
	<path class="st4" d="M71.5,154.9c4.7,2.2,10.4,5.6,13,8.5c0.8-2,2.6-4.8,3.3-5.7C85.4,156.6,77.1,153.3,71.5,154.9"/>
	<path class="st4" d="M71.9,170.5c3.4,0.8,9.1,2.5,12.1,4.8c-0.1-0.8-0.2-1.5-0.2-2.3c-0.1-1.8,0-3.6,0.3-5.3
		C82.4,167.6,74.3,167.4,71.9,170.5"/>
	<path class="st4" d="M79.3,141.3c0.7,0.9,10.9,14,11.3,14.5c1.7-1.3,5.5-3.3,6.7-4C88.5,143.1,82.5,141.4,79.3,141.3"/>
	<path class="st4" d="M72.9,188.6c1.3-0.4,2.7-0.8,4.3-1.4c2.9-1,5.9-2.1,9.2-2c-0.9-2-1.7-4.1-2.3-6.3
		C82.3,179.7,73,183.6,72.9,188.6"/>
	<path class="st4" d="M100.4,148.1c0.1,1,0,1.7-0.2,2.3c1.5-0.1,6.2-0.6,9-0.2c-5-11.9-10-16.5-13-18.2
		C97.8,136.4,100,143.7,100.4,148.1"/>
	<path class="st4" d="M252.6,424c5.7,1,12.9,4.4,13.7,4.8c0,0,0.7,0.4,1.2,0.6c0-0.2,0-0.3,0-0.5c0-3.1,1-5.6,2.9-7.5
		C266,420.5,258.3,420.1,252.6,424"/>
	<path class="st4" d="M270.1,442.7L270.1,442.7c-0.1,0.1-8,5.7-8.3,13.7c6.2-5.1,12.1-7,13.7-7.4c-0.9-0.9-1.8-2.1-2.6-3.4
		c0,0,0,0-1.2-2.3c0,0-0.5-0.9-0.7-1.3C270.8,442.3,270.6,442.4,270.1,442.7"/>
	<path class="st4" d="M266,431.8L266,431.8c-0.1,0-9.1,2.2-12.2,10c8.1-2.8,15.3-2.1,15.6-2c0,0,0.4,0,0.7,0.1
		c-1.3-2.9-2.2-5.7-2.5-8.4C267.3,431.5,266.9,431.6,266,431.8"/>
	<path class="st4" d="M289.4,457.4C289.4,457.5,289.5,457.5,289.4,457.4c1.1,7.3,4.5,11.2,6.6,12.6c0-0.6,0-1.6,0-1.6
		c0-3,0.4-7.3,3.3-11.1C296.6,458.2,293.1,458.3,289.4,457.4"/>
	<path class="st4" d="M277.7,451.4c0,0.1-3.5,5.3-3.5,10.8c0,1.6,0.3,3.1,1,4.4c2.8-3.9,6.9-9.2,10.9-10.1
		C283,455.3,280.1,453.6,277.7,451.4"/>
	<path class="st4" d="M126.4,36L126.4,36c-1.9-9.4-5.5-13.5-8.1-15.2c0.5,1.8,1,4.3,1.2,7c0.2,2.5,0.2,5.3-0.3,8.1l-0.2,0.8
		C121.7,35.8,124.2,35.5,126.4,36"/>
	<path class="st4" d="M116.1,36c-4.3-7.2-8.5-10.1-11.4-11.3c2.3,3.1,5.1,8.1,5.6,13.7l0.1,1.5c2.1-1.2,4.2-2.2,6.3-2.8L116.1,36z"
		/>
	<path class="st4" d="M101.4,45.5c-6.7-1-10.6-0.4-12.9,0.4c3,0.7,7.1,2,10.7,4.3l0.6,0.4c0.8-1.6,1.9-3.1,3.3-4.6L101.4,45.5z"/>
	<path class="st4" d="M98.8,53.1c-5.8,0.6-8.4,2.6-9.5,4.2c1.7-0.1,5.2,0,8.8,0.3c0-1.4,0.2-2.9,0.8-4.4H98.8z"/>
	<path class="st4" d="M108.9,41.1l-1.4-1.2c-4.3-3.6-8.4-4.8-11.4-5.2c5.2,3.5,7.8,9.3,8.2,10c0.5-0.5,2.6-2.3,4-3.3
		C108.5,41.4,108.6,41.2,108.9,41.1"/>
	<path class="st4" d="M126.5,412.4l-2.2,1.6c-2.8,2.1-5.1,6-5.1,9.4c0,0.3,0.1,0.5,0.1,0.8c3.5-2.5,8.1-4.5,9.1-4.9l2.9-1.2
		C129.5,416.4,127.8,414.5,126.5,412.4"/>
	<path class="st4" d="M123.5,403.7l-2.8,1.4c-7.2,3.6-9.5,7.3-10.1,9.6c2.9-1.4,7.7-3.2,12.7-3.6l2.5-0.2c-0.1-0.2-0.2-0.4-0.3-0.6
		C124.5,408.1,123.9,405.9,123.5,403.7"/>
	<path class="st4" d="M123.7,395.3l-3.3,0.2c-7.1,0.5-10.5,3.3-12.1,5.3c2.7,0,7,0.3,12,1.2l3.1,0.6
		C123.2,400.2,123.3,397.6,123.7,395.3"/>
	<path class="st4" d="M130.8,421.4c-1.2,2.6-1.7,4.9-1.7,6.8c0,1.5,0.3,2.8,0.9,3.9c4.6-5.9,7.6-8.2,10-8.8c-2.8-1.1-5.6-2.7-8-4.8
		L130.8,421.4z"/>
	<path class="st4" d="M110.7,388.7c2.4,0.7,5.9,1.9,10.2,3.7l3.1,1.3c0.6-2.5,1.6-4.7,2.9-6.3C118.2,385.7,113.2,387.3,110.7,388.7"
		/>
	<path class="st4" d="M327.9,71.3c0,0-1.7,0.2-1.6,1.2c0.1,1.1,1.3,1.2,1.3,1.2s6.8,1.9,8.5-5.7C335,71.7,327.9,71.3,327.9,71.3"/>
	<path class="st4" d="M328.7,65.8c-0.6-0.1-2.4,0.8-2.3,1.9c0,0.6,0.7,0.6,1.3,0.7c2.8,0.4,8.9-4.5,6.2-5.4
		C332.7,62.6,332.5,66,328.7,65.8"/>
	<path class="st4" d="M297.1,41.7c-0.7-0.7-22.2,7.2-22.7,11c0,0.3,0.4,1.3,1.5,1.1c0.8-0.2,11.5-1.3,19.7-0.8
		c3.2,0.2,6,0.8,7.7,1.5c2.2,0.9,5.3,0.5,5.4-0.4c0.1-1-7.8-3.2-11.3-3.5c-6.3-0.5-18.9,1.1-18.9,1.1S298.1,42.7,297.1,41.7"/>
	<path class="st0" d="M127.2,87.9c3.7-16.4-7.4-31.9-7.5-44.6c-3.2,9.6,2.3,19.9,4.4,30.1c2.3,11.2,2,20.3-5,20.3
		c-1.3,0-1.2,1.4-0.4,1.4C124.8,94.8,126.1,91.8,127.2,87.9"/>
	<path class="st0" d="M295.1,55.5c0.8,0.6,1.3,1.5,1.3,2.5c0,1.7-1.5,3.1-3.2,3.1c-1.8,0-3.3-1.4-3.3-3.1c0-1.1,0.6-2.1,1.6-2.7
		c-3,0.6-5.6,2.6-5.6,3.7c0,1.3,3.6,4,7.1,4.1c3.4,0.1,6.7-2.9,6.7-3.9C299.7,58.4,297.6,56.3,295.1,55.5"/>
	<path class="st2" d="M236.7,86.1c-0.7,1.2-1.5,3.2-1.5,5.4c0,2.4,0.9,4.5,2.7,6l0.4,0.3h7.4l-1.5-2c-1-1.3-1.6-2.9-2.3-4.7
		c-0.8-2.2-1.6-4-3-5.2l-1.3-1.2L236.7,86.1z"/>
	<path class="st2" d="M246.1,85.8c-0.7,1.4-1.5,3.7-1.5,6.8c0,1.2,0.1,2.5,0.4,3.9l0.2,1.1l3.8-0.2c0,0,3.4-0.1,3.4-0.1l2.4-0.1
		l-1.3-1.9c-0.7-1.1-1.4-2.6-2.1-4.2c-0.9-2-1.8-4-3-5.5l-1.3-1.7L246.1,85.8z"/>
	<path class="st0" d="M234.1,69c0,1.4,0.3,3.1,1.3,5.1c2.1-3.2,3.3-5.8,3.7-7.2c-1.7-0.1-3.5,0-4.8-0.1
		C234.2,67.4,234.1,68.1,234.1,69"/>
	<path class="st0" d="M243.6,68.4c0,1.8,0.2,4,1.2,6.1c2.2-2.6,3.3-5.8,3.7-7.5c-1.6,0-3.4,0-4.9-0.1
		C243.7,67.3,243.6,67.8,243.6,68.4"/>
	<path class="st0" d="M240.5,91.5c-0.8-1.9-1.5-3.7-2.6-4.8c-0.7,1.3-1.3,3-1.3,4.8c0,0.3,0,0.5,0,0.8c1.1,0,2.6,0,4.3,0.1
		C240.7,92.1,240.6,91.8,240.5,91.5"/>
	<path class="st0" d="M250.1,91.6c-0.8-1.9-1.7-3.8-2.8-5.3c-0.5,1.1-1.3,3.2-1.4,6.1c1.5,0,3.1,0.1,4.6,0.1
		C250.4,92.2,250.3,91.9,250.1,91.6"/>
	<path class="st0" d="M416.4,274.1c0,0,1.7,4.5-1.8,14c-3.5,9.4-19.7,12.2-19.7,12.2s-16.4,2.2-21.5,1c-2.6-5.5-0.5-47.1-0.5-47.1
		s5-3.1,17.2-3.5C412.9,249.8,416.4,274.1,416.4,274.1"/>
	<path class="st4" d="M197.4,76.8c0,1.3,0.3,2.5,0.8,3.6c2.1,4.2,8.1,7.1,17.9,8.4c5.8,0.8,11.8,0.7,18.6-0.1
		c0.1,0,14.8-2.7,18.1-3.1c2.8-0.3,11.8,0.6,15.5,1c0,0,1.2,0.1,1.6,0.2c0.1-0.7,0.4-1.8,0.6-2.5c-0.4-0.1-1.7-0.4-1.7-0.4
		c-3.4-0.9-15-3.9-20.3-3.8c-3.3,0.1-7.4,0.5-11.7,1c-7.8,0.9-15.8,1.8-21.7,0.7c-7-1.4-13.3-7.4-16.2-10.7
		C198.1,72.7,197.4,74.7,197.4,76.8"/>
</g>
</svg>
