<?xml version="1.0" encoding="utf-8"?>
<!-- Generator: Adobe Illustrator 25.0.1, SVG Export Plug-In . SVG Version: 6.00 Build 0)  -->
<svg version="1.1" id="Ebene_1" xmlns="http://www.w3.org/2000/svg" xmlns:xlink="http://www.w3.org/1999/xlink" x="0px" y="0px"
	 viewBox="0 0 492.5 492.5" style="enable-background:new 0 0 492.5 492.5;" xml:space="preserve">
<style type="text/css">
	.st0{fill:#FFFFFF;}
	.st1{clip-path:url(#SVGID_2_);fill:none;stroke:#010202;stroke-width:3.048;}
	.st2{fill:#010202;}
	.st3{fill:#E8423F;}
</style>
<g>
	<path class="st0" d="M246.1,1.5h201.7V298c0,106.6-90.3,192.9-201.6,192.9c-111.3,0-201.6-86.4-201.6-192.9V1.5H246.1z"/>
	<g>
		<g>
			<g>
				<g>
					<g>
						<defs>
							<rect id="SVGID_1_" x="43.1" width="406.2" height="492.5"/>
						</defs>
						<clipPath id="SVGID_2_">
							<use xlink:href="#SVGID_1_"  style="overflow:visible;"/>
						</clipPath>
						<path class="st1" d="M246.1,1.5h201.7V298c0,106.6-90.3,192.9-201.6,192.9c-111.3,0-201.6-86.4-201.6-192.9V1.5H246.1z"/>
					</g>
				</g>
			</g>
		</g>
	</g>
	<path class="st2" d="M179.7,101.9c21.6,8,45.2,17.2,50.4,21.5c1.5,1.2-14.8,14.8-15.5,41.6c-11.3,4.6-14.5-0.4-14.5-0.4
		s-3.1,0.5-4.1,2.5c-8.3-4.8-6.4-11.2-12.2-7.3c-1.4,0.9-6.9-9.7-9.3-5c-5.9-1.4-5.3-7.8-7-8.1c-1.6-0.3-5,2.2-5.9,0.5
		c-1.5-2.9-3.2-6.4-3.8-6.9c-0.6-0.5-1.4,1.6-3.9,0.8c-2.5-0.8-3.9-6.8-6.1-7.6c-4.5,1.6-6.8-5.1-7.1-6c-0.7,1.8-6.8,2.5-6-0.6
		c3.1-10.9-13.3-13.3-11.4-23.8c-23.6-3.7-17.4-41.8-22.1-42.6c-8.5-1.5-14.4-1-14.4-1s1-6.2,12.9-6.9c-6.1-4-14.4-5-14.4-5
		s3.6-4.8,18.4-2.2c-3.1-7-10.9-10.4-10.9-10.4s9.1-2.1,18.3,5.5c-0.5-8.7-7.6-15.9-7.6-15.9s8.9-1.1,17.1,12.7
		c2.3-8.3-0.8-17.1-0.8-17.1s9.6,1.2,11.8,18.5c7.8,10.3,1.8,25.7,9.8,43.4C145.8,91.9,161.6,95.2,179.7,101.9"/>
	<path class="st2" d="M209.4,342.2c6.7-22.7,29.3-36.8,52.3-34.9c1.2-4.7,2.3-9.9,1.8-10.7c-13.5-28.4-21.5-30.3-21.5-30.3
		s-29.7-6.7-47.6,1.7c-3.6,1.7-30.4,17.6-25.1,18.7c8.7,1.9-3.5,7.5-5.4,12.2c-1.9,4.7,2.8,3.5,3.1,4.1c0.5,1.4-12,13.5-8.9,14.2
		c11.6,2.2-5.2,13.8-1.6,14.7c10,2.4-2.3,12.4,1.3,12.9c1.3,0.2,3.7,0.8,5.7,1.1c-1.1,2-4.1,7.7-3.4,13.6c0.3,2.7,3.5-2.5,5.1,1.1
		c-8.2,6.7,7.2,25.8,8.2,37.1c-5.6,0.6-4.6-6.4-9.5-8.5c-2.6,4.7-7.9,4.7-14.3,3.2c-6.3-1.5-13.7-4.6-20.4-4.7
		c-14.9-3.7-21.1,1.3-22.4,3c0.4,0.1,5.7,1.3,13.1,4.5c-12.6,0.9-14.9,8.5-14.9,8.5s6.5-0.4,14.6,1.2c-13.1,6.6-11.3,13.9-11.3,13.9
		s7.2-4.3,14.7-4.8c-4,3-7.4,9.6-4.9,14.2c3-2.8,8.7-5.4,10.8-6.2c-2.8,6.3-2.4,10.9,0.7,14.2c8.1-11.1,11.1-10.4,13.4-10.3
		c1.3,0.1,4.8,1.2,10,1.8c4.3,0.5,9.8,0.3,16,0.6c15,0.9,32.4,1.3,43.8-10.1C209.4,392.5,203,364,209.4,342.2"/>
	<path class="st2" d="M234.8,93.2c0,0-0.7,7.6,4.9,8.1c1.8,0.1,8.5-0.5,17.1,0.7c18.2,2.4,38.8,8.9,53.8-5.8
		c13-12.7,2.8-31.4,14.5-39.5c9.6-6.6,20.1-0.7,20.5,1.9c-14.3-5.2-17.3-0.6-19,0.5c-11.5,7.8,5.7,47.2-38.1,48.4
		c-15.3,0.4-31.3,1.2-38.3,8c-4,3.8-7.9,3.6-13.6,8.7c-15.5,13.9-16.1,31.5-17.7,40.1c-0.6,3.4,1.1,2.3,1.1,2.3s9.8-2.5,15.8-3.2
		c1.1-0.1,1.2,0.5,1.2,0.5s0.3,1.2-1,1.3c-20,1.2-73.1,24.4-97,24.6c-1.5-0.3-15.4-3.5-17.1-10.9c1.9-2.3,10.8,11.3,19.1,7.2
		c-9.8-8-15.8-27.1-27-32.9c-7.2-20.5-16.4-20.9-16.4-20.9s5.3,17.2,3.6,20.7c-14.5-13.9-22.5-9.9-22.5-9.9l12.9,16.2
		c0,0-14.9-6.8-21.8-0.9c8.7,3,16.6,8.5,16.4,10.3c-1.1,0.2-13.5-1-16.1,6c4.9,0.6,13.6,3,15,5.4c-5.1,2.3-14.6,5.6-13.3,13.5
		c6.4-1.3,11.4-4.9,17.2-4c7.8-2.4,14.5,5.9,23.4,14.7c10.5,10.4,25.8,20.2,33,17.3c1.7-0.7,0.7-2.3,2-2.5
		c1.3-0.2,10.1,7.4,10.8,5.3c2.2-7.2,2.5-3.3,6.5-1.6c2,0.9,5.2,0.2,7.9,2.3c1.7-7.8,13,3.9,15.5-2.8c5.6,0.8,11.6,4.6,10.7-1.9
		c7.2,4.5,7.9,2.2,11.6,3.9c0.3-6.6,7.7-1.3,10.5-1.3c28.9-0.6,36-8.9,41.5-20.2c2.2-4.6,4.7-4.3,4-1.6
		c-4.1,14.4-14.5,24.8-38.7,23.7c-1.3-0.1-2,0.5-2.5,1.3c-0.5,0.8-0.5,1.5-0.4,4.4c0.2,6,17.1,25.3,26.4,38.5
		c12.2,17.3,16.8,26.3,15.3,30.1c-2.6,6.8-7.7,43.3-7.5,44.4c0.3,1.2,2.2,2.2,4.2,0.6c2.4,2.4-2.2,11.8,0.7,12.1
		c2.2-1.4,4.9-2.6,4.9-2.6s-4.6,10.5,2,15.6c0.9-2.9,3.5-5.1,3.5-5.1s-1.3,10.2,5.1,13.1c0.1-0.6,0-1.1,0.7-4.3
		c3.8,12.3,5.6,13.5,6.6,12.6c1-0.8-1.8-5.2,1.5-4.2c1.1,10.8,4.5,10.6,4.5,10.6s0.4-0.5,2-3c3.8,9.2,25,18.3,21.2,40.3
		c-0.7,0.5-2.5,0.4-3-1.3c-0.5-1.7-1.8-6.7-2.5-7.4c-0.6-0.7-2.4-2.9-16.6-4.4c-14.2-1.5-21.2,5-21.2,5s-15.7-4.7-24.1,5.2
		c5-1,17.2,4.8,17.2,4.8s-12.6,2.7-14.5,14.2c8.9-4.1,18.1-3,18.1-3s-11.1,7.6-8.9,18.4c7.8-7.3,16-9.3,16-9.3s-7.5,11.3-1.3,18.9
		c3.1-4,8.6-12.3,12.8-11.6c1.7,11.2,8.8,15.2,9.8,14.4c1-0.8-1.9-10.4,5.3-16.3c12.4-2.6,42.7-7.8,54.4-33.2
		c-1.4-7.8-26.2-44.6-25.7-71.1c0.1-7.4,1.3-36.7,1.3-36.7s0.9-15.5-5.9-26.9c4.2,0.3,5.8,7.8,8.2,9.2c2.4,1.4,4.3-2.1,4.3-2.1
		l-0.9-6.5l4.8,5.2c0,0,4.2-8.2,0.7-18.4c-3.5-10.2-19.8-29.3-22-36c-1.5-4.7-4.5-24.5-5.6-31.7c-1.2-7.2-0.8-30.6-0.8-30.6
		s3.4,0.5,5.7,2.3c1.8-1.9-0.9-8.5-0.1-9.5c0.8,1.3,3.8,1.4,5.7,3.1c2.9-5.4,0.3-10.7,0.1-11.4c5,1.9,9.5,1.5,10.3-0.2
		c-1.9-1.7-4.5-12-4.4-13.3c1.9-0.8,7.4,3.5,8.3,1.9c-3-4.2-1.4-10.6-6-17.7c1.7-1.2,3.6,1,5.7-2c-9.1-12.9,2.1-24.6,1.1-34.2
		c-1.6-15.3-11-17.9-11-17.9s24.7-0.1,19.5-18c-5.2-17.8-18.1-6.5-26.5-11.1c-8.4-4.6-8.2-16.8-21.1-17.4c-18.3-1-42.8,11.5-57,11.5
		c-4.4,0-3.8,0.7-14.4-2.1c-2.8,13.4,2.7,14.8,1.1,17.9c-3,5.8-1.8,7.3-1.8,7.3l1.6,0c-0.4,2.1-0.6,6,2.6,10.5
		c3.9-5.4,5.2-8.8,5.6-10.4l1.1,0c-0.2,2.5-0.1,7,2.5,10.3c3.9-3.5,5.3-8,5.8-10.2h0.2c0,0,9-0.6,14.7,2.2
		c5.7,2.8,5.5,12.8,5.5,12.8s-15.5-4.7-22.2-4.5c-9.5,0.2-24.2,3.8-33.1,1.9c-8.9-1.9-17-13.3-17-13.3s-14,19.9,17.3,24.6
		c7,1,13.6,0.7,19.3-0.2c0,0,14.9-2.9,18.2-3.3c3.2-0.4,16.2,1.3,16.2,1.3s-0.7,4.2-7.2,4.2C260.2,93.6,234.8,93.2,234.8,93.2"/>
	<path class="st2" d="M309.7,32.5c6.9-8.3,33.7-2.8,21.4,17C320.5,52.2,319.5,34.1,309.7,32.5"/>
	<path class="st3" d="M197.4,76.6c0,1.4,0.3,2.7,0.8,3.9c2.1,4.6,8.1,7.7,17.9,9.2c5.8,0.9,11.9,0.8,18.7-0.2
		c0.1,0,14.9-2.9,18.2-3.3c2.8-0.4,11.8,0.7,15.5,1.1c0,0,1.2,0.2,1.6,0.2c0.2-0.7,0.5-2,0.6-2.7c-0.4-0.1-1.7-0.4-1.7-0.4
		c-3.4-1-15.1-4.2-20.4-4.1c-3.4,0.1-7.4,0.6-11.7,1.1c-7.8,1-15.8,2-21.8,0.7c-7-1.5-13.3-8.1-16.3-11.6
		C198.1,72.2,197.4,74.4,197.4,76.6"/>
	<path class="st3" d="M234.8,276.8c0,0,7.7-2.1,19.1,1.9c1.5,2.5,4.5,6.8,6.6,11.5C256,285.6,234.8,276.8,234.8,276.8"/>
	<path class="st3" d="M73.8,158.3c4.7,2,10.4,5.2,12.8,8c0.9-2,2.9-4.8,3.6-5.8C87.9,159.5,79.6,156.5,73.8,158.3"/>
	<path class="st3" d="M73,173.6c3.4,0.7,9.1,2.2,12.1,4.3c-0.1-0.8-0.1-1.5-0.1-2.3c0-1.8,0.2-3.6,0.5-5.3
		C83.8,170.4,75.5,170.5,73,173.6"/>
	<path class="st3" d="M81.9,144.2c0.7,0.9,10.6,13.4,11,13.8c1.7-1.3,5.7-3.5,7-4.2C91.1,145.6,85,144.2,81.9,144.2"/>
	<path class="st3" d="M73.6,191.6c1.4-0.4,2.8-0.8,4.5-1.5c3-1.1,6.1-2.2,9.4-2.2c-0.8-1.9-1.5-4-2-6.2
		C83.7,182.6,74,186.7,73.6,191.6"/>
	<path class="st3" d="M103.3,150.9c0,1-0.1,1.7-0.3,2.3c1.5-0.2,6.3-0.6,9.2-0.3c-4.2-11.7-9-16.1-11.9-17.8
		C101.5,139.4,103.3,146.6,103.3,150.9"/>
	<path class="st3" d="M252.8,425.1c5.7,1,12.9,4.4,13.8,4.8c0,0,0.7,0.4,1.2,0.5c0-0.2,0-0.3,0-0.5c0-3.1,1-5.6,2.9-7.5
		C266.2,421.6,258.5,421.1,252.8,425.1"/>
	<path class="st3" d="M270.4,443.9L270.4,443.9c-0.1,0-8,5.7-8.4,13.7c6.3-5.1,12.2-7,13.7-7.4c-0.9-1-1.7-2.1-2.5-3.4
		c0,0,0,0-1.2-2.3c0,0-0.5-0.9-0.7-1.2C271.1,443.4,270.8,443.6,270.4,443.9"/>
	<path class="st3" d="M266.1,432.9L266.1,432.9c-0.1,0-9.1,2.2-12.3,10c8.1-2.9,15.4-2.1,15.7-2c0,0,0.4,0,0.7,0.1
		c-1.4-2.9-2.2-5.7-2.5-8.4C267.6,432.6,267.1,432.7,266.1,432.9"/>
	<path class="st3" d="M289.7,458.6C289.7,458.6,289.7,458.6,289.7,458.6c1.1,7.3,4.6,11.2,6.7,12.6c0-0.6,0-1.6,0-1.6
		c0-3,0.4-7.3,3.3-11.1C296.9,459.3,293.4,459.4,289.7,458.6"/>
	<path class="st3" d="M277.9,452.5c0,0.1-3.5,5.3-3.5,10.8c0,1.6,0.4,3.1,1,4.3c2.9-3.9,6.9-9.2,11-10.2
		C283.3,456.4,280.4,454.7,277.9,452.5"/>
	<path class="st3" d="M129.7,38C129.7,38,129.7,38,129.7,38c-1.4-9.1-4.9-13.2-7.4-15c0.4,1.8,0.8,4.2,0.8,6.8
		c0.1,2.5-0.2,5.1-0.9,7.8l-0.2,0.8C124.7,37.6,127.4,37.5,129.7,38"/>
	<path class="st3" d="M119,38c-4.1-7-8.4-9.8-11.4-11c2.2,3.1,4.9,7.9,5.2,13.4l0.1,1.5c2.3-1.2,4.5-2,6.7-2.6L119,38z"/>
	<path class="st3" d="M103.4,46.8c-6.8-1.2-11-0.7-13.5,0c3.1,0.8,7.2,2.1,10.9,4.4l0.6,0.4c1-1.4,2.2-2.9,3.7-4.3L103.4,46.8z"/>
	<path class="st3" d="M99.8,54.1c-6.1,0.4-8.9,2.2-10.2,3.7c1.8,0,5.5,0.2,9.2,0.6c0.1-1.4,0.5-2.8,1.2-4.3L99.8,54.1z"/>
	<path class="st3" d="M111.3,42.7l-1.4-1.2c-4.3-3.5-8.5-4.8-11.6-5.2c5.3,3.5,7.7,9.1,8,9.8c0.5-0.5,2.7-2.2,4.3-3.1
		C110.9,42.9,111.1,42.8,111.3,42.7"/>
	<path class="st3" d="M126.3,413.5l-2.2,1.6c-2.8,2.1-5.1,6-5.1,9.4c0,0.3,0.1,0.5,0.1,0.8c3.5-2.5,8.1-4.5,9.2-4.9l2.9-1.2
		C129.3,417.5,127.6,415.6,126.3,413.5"/>
	<path class="st3" d="M123.3,404.8l-2.8,1.4c-7.2,3.6-9.5,7.3-10.2,9.7c2.9-1.4,7.7-3.3,12.7-3.7l2.5-0.2c-0.1-0.2-0.2-0.4-0.3-0.7
		C124.2,409.2,123.6,407,123.3,404.8"/>
	<path class="st3" d="M123.4,396.4l-3.3,0.2c-7.2,0.5-10.6,3.3-12.1,5.3c2.7,0,7,0.3,12.1,1.3l3.2,0.6
		C122.9,401.3,123,398.7,123.4,396.4"/>
	<path class="st3" d="M130.5,422.5c-1.1,2.6-1.7,4.9-1.7,6.8c0,1.5,0.4,2.8,1,3.9c4.6-6,7.6-8.2,10.1-8.9c-2.8-1.1-5.6-2.7-8.1-4.8
		L130.5,422.5z"/>
	<path class="st3" d="M110.3,389.8c2.4,0.7,5.9,1.9,10.3,3.7l3.1,1.3c0.6-2.5,1.6-4.7,2.9-6.3C118,386.8,112.9,388.4,110.3,389.8"/>
	<path class="st3" d="M328.3,72.2c0,0-1.7,0.2-1.6,1.2c0.1,1.1,1.4,1.2,1.4,1.2s6.8,1.8,8.5-5.7C335.5,72.6,328.3,72.2,328.3,72.2"
		/>
	<path class="st3" d="M329.2,66.7c-0.6-0.1-2.4,0.8-2.3,1.9c0,0.6,0.7,0.6,1.3,0.7c2.8,0.4,8.9-4.5,6.2-5.4
		C333.2,63.5,332.9,66.9,329.2,66.7"/>
	<path class="st3" d="M297.4,42.6c-0.7-0.7-22.3,7.2-22.8,11c0,0.3,0.4,1.3,1.5,1.1c0.8-0.2,11.5-1.3,19.8-0.8
		c3.2,0.2,6,0.9,7.7,1.5c2.2,0.8,5.3,0.5,5.5-0.4c0.1-1-7.8-3.2-11.3-3.5c-6.3-0.5-18.9,1.1-18.9,1.1S298.4,43.6,297.4,42.6"/>
	<path class="st0" d="M234.3,69.9c0,1.4,0.3,3.2,1.3,5.1c2.1-3.2,3.3-5.8,3.7-7.2c-1.8-0.1-3.5,0-4.8-0.1
		C234.4,68.4,234.3,69.1,234.3,69.9"/>
	<path class="st0" d="M243.8,69.3c0,1.8,0.2,4.1,1.2,6.1c2.2-2.6,3.3-5.8,3.7-7.5c-1.7,0-3.4,0-4.9-0.1
		C243.8,68.2,243.8,68.7,243.8,69.3"/>
	<path class="st0" d="M129.3,88.4c4.5-16.2-7.1-31.6-6.8-44.1c-3.7,9.5,1.9,19.6,3.9,29.7c2.2,11,1.5,20.1-6.1,20.1
		c-1.4,0-1.3,1.4-0.5,1.4C126.4,95.2,128,92.3,129.3,88.4"/>
	<path class="st0" d="M295.4,56.4c0.8,0.6,1.3,1.5,1.3,2.5c0,1.8-1.5,3.2-3.2,3.2c-1.8,0-3.3-1.4-3.3-3.2c0-1.1,0.6-2.1,1.6-2.7
		c-2.9,0.6-5.6,2.6-5.6,3.7c0,1.3,3.6,4,7.1,4.1c3.4,0.1,6.7-2.9,6.7-3.9C300.1,59.4,298,57.2,295.4,56.4"/>
	<path class="st2" d="M236.8,87.1c-0.7,1.2-1.5,3.2-1.5,5.4c0,2.4,0.9,4.4,2.7,6l0.4,0.3h7.4l-1.5-2.1c-1-1.3-1.6-2.9-2.3-4.7
		c-0.8-2.2-1.7-4-3-5.3l-1.3-1.2L236.8,87.1z"/>
	<path class="st2" d="M246.3,86.7c-0.7,1.4-1.5,3.7-1.5,6.8c0,1.2,0.2,2.5,0.5,3.9l0.2,1.1l3.8-0.2c0,0,3.4-0.1,3.4-0.1l2.4-0.1
		l-1.3-1.9c-0.8-1.1-1.4-2.6-2.2-4.2c-0.9-2-1.8-4-3-5.5l-1.3-1.7L246.3,86.7z"/>
	<path class="st0" d="M240.6,92.5c-0.8-1.9-1.5-3.7-2.7-4.8c-0.7,1.3-1.3,3-1.3,4.8c0,0.3,0,0.5,0,0.7c1.1,0,2.6,0.1,4.3,0.1
		C240.9,93,240.7,92.8,240.6,92.5"/>
	<path class="st0" d="M250.3,92.5c-0.9-1.9-1.7-3.8-2.8-5.3c-0.5,1.1-1.3,3.2-1.4,6.1c1.5,0,3.1,0.1,4.6,0.1
		C250.6,93.2,250.5,92.9,250.3,92.5"/>
	<path class="st0" d="M252.7,97.4L252.7,97.4L252.7,97.4z"/>
</g>
</svg>
