<?xml version="1.0" encoding="utf-8"?>
<!-- Generator: Adobe Illustrator 25.0.1, SVG Export Plug-In . SVG Version: 6.00 Build 0)  -->
<svg version="1.1" id="Ebene_1" xmlns="http://www.w3.org/2000/svg" xmlns:xlink="http://www.w3.org/1999/xlink" x="0px" y="0px"
	 viewBox="0 0 492.5 492.5" style="enable-background:new 0 0 492.5 492.5;" xml:space="preserve">
<style type="text/css">
	.st0{fill:#16A74E;}
	.st1{fill:#FFFFFF;}
</style>
<g>
	<g>
		<path class="st0" d="M246.1,1.5h201.8V298c0,106.6-90.3,193-201.7,193S44.6,404.6,44.6,298V1.5H246.1L246.1,1.5z"/>
		<path d="M246.2,492.5c-112,0-203.1-87.2-203.1-194.4V0h406.3v298C449.4,405.2,358.2,492.5,246.2,492.5z M46.1,3v295
			c0,105.6,89.8,191.5,200.2,191.5S446.4,403.6,446.4,298V3H46.1z"/>
	</g>
	<g>
		<g>
			<path class="st1" d="M259,461.8c0,5.8-4.5,10.5-10.2,10.5c-5.6,0-10.2-4.7-10.2-10.5V31c0-5.8,4.6-10.6,10.2-10.6
				c5.7,0,10.2,4.8,10.2,10.6V461.8z"/>
			<path d="M248.8,473.8c-6.4,0-11.7-5.4-11.7-12V31c0-6.7,5.2-12.1,11.7-12.1c6.4,0,11.7,5.4,11.7,12.1v430.8
				C260.5,468.4,255.3,473.8,248.8,473.8z M248.8,21.9c-4.8,0-8.7,4.1-8.7,9.1v430.8c0,5,3.9,9,8.7,9c4.9,0,8.7-4,8.7-9V31
				C257.5,26,253.6,21.9,248.8,21.9z"/>
		</g>
		<g>
			<path class="st1" d="M192.5,19.3c8.9,17.1,34,29.3,41.3,30.6c7.3,1.2,30,6.4,30,6.4l11.5,9.7l-11.8,10.9c0,0-25.8,2.1-29.5,2.1
				c-3.6,1.1-23.6,5.6-41,27.2c-2.5-3.6-13.5-14.1-13.5-45.2C179.6,36,190.8,21.5,192.5,19.3z"/>
			<path d="M193,108.7l-1.1-1.6c-0.2-0.4-0.6-0.8-1-1.3c-3.8-4.9-12.8-16.4-12.8-44.8c0-22.9,9.3-37.4,13.3-42.6l1.4-1.8l1.1,2
				c8.5,16.4,33.2,28.6,40.2,29.8c7.2,1.2,29.1,6.2,30.1,6.4l0.4,0.1l13.1,11l-13.4,12.4l-0.5,0c-1,0.1-25,2-29.4,2.1
				c-0.2,0.1-0.4,0.1-0.7,0.2c-15.5,4.4-28.7,13.3-39.3,26.4L193,108.7z M192.4,22C188.2,28.1,181,41.2,181,61
				c0,27.1,8.4,38.1,12.1,42.8c10.8-12.8,24.1-21.6,39.6-26c0.4-0.1,0.7-0.2,0.9-0.3l0.2-0.1h0.2c3.3,0,25.2-1.8,28.9-2.1l10.2-9.4
				l-9.9-8.4c-2.9-0.7-22.9-5.2-29.6-6.3C225.6,49.9,202.1,38.1,192.4,22z"/>
		</g>
		<g>
			<path class="st1" d="M261.9,417.2c0,5.7-5.9,10.4-13.1,10.4s-13.1-4.7-13.1-10.4V121.7c0-5.7,5.9-10.3,13.1-10.3
				s13.1,4.6,13.1,10.3V417.2z"/>
			<path d="M248.8,429.1c-8,0-14.6-5.3-14.6-11.9V121.7c0-6.5,6.5-11.8,14.6-11.8c8,0,14.6,5.3,14.6,11.8v295.5
				C263.4,423.8,256.9,429.1,248.8,429.1z M248.8,112.9c-6.4,0-11.6,4-11.6,8.8v295.5c0,4.8,5.3,8.9,11.6,8.9
				c6.3,0,11.6-4.1,11.6-8.9V121.7C260.4,116.8,255.2,112.9,248.8,112.9z"/>
		</g>
		<g>
			<path class="st1" d="M211.1,417.2c0,5.7-4.6,10.4-10.2,10.4c-5.6,0-10.1-4.7-10.1-10.4V121.7c0-5.7,4.5-10.3,10.1-10.3
				c5.6,0,10.2,4.6,10.2,10.3V417.2z"/>
			<path d="M200.9,429.1c-6.4,0-11.6-5.3-11.6-11.9V121.7c0-6.5,5.2-11.8,11.6-11.8c6.4,0,11.7,5.3,11.7,11.8v295.5
				C212.6,423.8,207.4,429.1,200.9,429.1z M200.9,112.9c-4.7,0-8.6,4-8.6,8.8v295.5c0,4.9,3.9,8.9,8.6,8.9c4.8,0,8.7-4,8.7-8.9
				V121.7C209.7,116.8,205.7,112.9,200.9,112.9z"/>
		</g>
		<g>
			<path class="st1" d="M306.8,417.2c0,5.7-4.6,10.4-10.2,10.4c-5.6,0-10.1-4.7-10.1-10.4V121.7c0-5.7,4.5-10.3,10.1-10.3
				s10.2,4.6,10.2,10.3V417.2z"/>
			<path d="M296.6,429.1c-6.4,0-11.6-5.3-11.6-11.9V121.7c0-6.5,5.2-11.8,11.6-11.8c6.4,0,11.7,5.3,11.7,11.8v295.5
				C308.3,423.8,303.1,429.1,296.6,429.1z M296.6,112.9c-4.7,0-8.6,4-8.6,8.8v295.5c0,4.9,3.9,8.9,8.6,8.9c4.8,0,8.7-4,8.7-8.9
				V121.7C305.3,116.8,301.4,112.9,296.6,112.9z"/>
		</g>
		<g>
			<path class="st1" d="M286.5,417.2c0,5.7-5.6,10.4-12.4,10.4c-6.9,0-12.5-4.7-12.5-10.4V121.7c0-5.7,5.6-10.3,12.5-10.3
				c6.8,0,12.4,4.6,12.4,10.3V417.2z"/>
			<path d="M274.1,429.1c-7.7,0-14-5.3-14-11.9V121.7c0-6.5,6.3-11.8,14-11.8c7.7,0,13.9,5.3,13.9,11.8v295.5
				C288,423.8,281.8,429.1,274.1,429.1z M274.1,112.9c-6.1,0-11,4-11,8.8v295.5c0,4.9,4.9,8.9,11,8.9c5.9,0,10.9-4.1,10.9-8.9V121.7
				C285,116.8,280.1,112.9,274.1,112.9z"/>
		</g>
		<g>
			<path class="st1" d="M236,417.2c0,5.7-5.6,10.4-12.6,10.4c-6.9,0-12.5-4.7-12.5-10.4V121.7c0-5.7,5.6-10.3,12.5-10.3
				c7,0,12.6,4.6,12.6,10.3V417.2z"/>
			<path d="M223.4,429.1c-7.7,0-14-5.3-14-11.9V121.7c0-6.5,6.3-11.8,14-11.8c7.8,0,14.1,5.3,14.1,11.8v295.5
				C237.5,423.8,231.2,429.1,223.4,429.1z M223.4,112.9c-6.1,0-11,4-11,8.8v295.5c0,4.9,4.9,8.9,11,8.9c6.1,0,11.1-4,11.1-8.9V121.7
				C234.5,116.8,229.6,112.9,223.4,112.9z"/>
		</g>
	</g>
	<g>
		<path d="M233.8,50v29 M263.9,56.4l-0.3,20.5"/>
		<path d="M235.3,79h-3V50h3V79z M265.1,76.9l-3,0l0.3-20.5l3,0L265.1,76.9z"/>
	</g>
	<g>
		<g>
			<path class="st0" d="M184.8,136.2h128V159h-128L184.8,136.2z"/>
			<path d="M314.3,160.4h-131v-25.8h131V160.4z M186.3,157.5h125v-19.8h-125V157.5z"/>
		</g>
		<g>
			<path class="st0" d="M184.8,378.4h128v22.8h-128L184.8,378.4z"/>
			<path d="M314.3,402.7h-131v-25.8h131V402.7z M186.3,399.7h125v-19.8h-125V399.7z"/>
		</g>
		<g>
			<path class="st0" d="M184.9,368.7V326l128-151.1l0,42.7L184.9,368.7z"/>
			<path d="M183.4,372.8v-47.3l0.4-0.4l130.6-154.2l0,47.3l-0.4,0.4L183.4,372.8z M186.4,326.6v38.1l125-147.5l0-38.1L186.4,326.6z"
				/>
		</g>
		<g>
			<path class="st0" d="M312.9,368.7V326L184.9,175l0,42.7L312.9,368.7z"/>
			<path d="M314.4,372.8l-131-154.6l0-47.3l131,154.6V372.8z M186.4,217.1l125,147.5v-38.1L186.4,179L186.4,217.1z"/>
		</g>
	</g>
</g>
</svg>
