<?xml version="1.0" encoding="utf-8"?>
<!-- Generator: Adobe Illustrator 25.0.1, SVG Export Plug-In . SVG Version: 6.00 Build 0)  -->
<svg version="1.1" id="Ebene_1" xmlns="http://www.w3.org/2000/svg" xmlns:xlink="http://www.w3.org/1999/xlink" x="0px" y="0px"
	 viewBox="0 0 492.5 492.5" style="enable-background:new 0 0 492.5 492.5;" xml:space="preserve">
<style type="text/css">
	.st0{fill:#FFFFFF;}
	.st1{fill:#E7423F;}
	.st2{fill:#248BCC;}
	.st3{fill:#FFD72E;}
</style>
<g>
	<g>
		<path class="st0" d="M447.7,1.9v296.3c0,106.4-90.2,192.7-201.5,192.7C135,491,44.8,404.6,44.8,298.2l0-296.3L447.7,1.9z"/>
		<path d="M246.2,492.5c-27.4,0-54-5.1-79-15.3c-24.2-9.8-45.9-23.8-64.5-41.6c-18.6-17.8-33.3-38.6-43.5-61.7
			c-10.6-24-16-49.4-16-75.6l0-297.8h406v297.8c0,26.2-5.4,51.7-16,75.6c-10.2,23.1-24.9,43.9-43.5,61.7
			c-18.6,17.8-40.3,31.8-64.5,41.6C300.2,487.3,273.6,492.5,246.2,492.5z M46.3,3.4l0,294.8c0,105.4,89.7,191.2,199.9,191.2
			c110.3,0,200-85.8,200-191.2V3.4H46.3z"/>
	</g>
	<path d="M145.3,237.4H45L45,1.5l100.3,0L145.3,237.4L145.3,237.4z M379,290.1c-0.2-1.1-0.9-2.1-1.3-3c0.2-1.3,0.2-2.6-0.2-3.8
		c-0.9-2.4-3-4.1-5.3-4.7c0-1.1,0-1.9-0.4-3c-0.9-2.8-3.6-4.7-7.1-4.9c0-0.9,0-1.5-0.2-2.1c-1.5-4.1-6.2-6-11.1-4.7
		c0-0.4,0-0.9-0.2-1.3c-1.5-4.1-6.6-6.2-11.5-4.5c-0.2,0.2-0.4,0.2-0.4,0.2c0-0.6-0.2-1.1-0.4-1.7c-1.3-3.8-6.4-5.6-11.3-3.8
		c-0.9,0.2-1.7,0.6-2.4,1.1c0-0.4,0-1.1-0.2-1.5c-1.3-3.8-6.4-5.6-11.5-3.8c-1.7,0.6-3.4,1.7-4.5,3c-1.1-3.6-5.8-6-10.7-5.1
		c-2.8,0.6-4.9,1.9-6.4,3.6c-1.7-2.8-5.8-4.3-10-3.6c-3.8,0.9-6.8,3.2-7.7,6c-1.7-2.6-5.6-4.1-9.4-3.4c-4.7,1.1-8.1,4.9-7.3,9
		c0,0.4,0.2,0.6,0.2,1.1c1.9-1.5,4.7-3,7.1-3.6c4.9-1.3,9.6-0.4,12.4,2.1c0.9-0.6,1.7-1.3,2.8-1.7c4.9-2.4,10.5-1.7,13.5,1.5
		c0.2,0,0.4-0.2,0.6-0.4c6-2.8,12.6-1.3,15,3.6v0.4c0.2-0.2,0.2-0.2,0.4-0.2c5.8-2.8,12.4-1.3,14.7,3.6c0.2,0.2,0.4,0.6,0.4,1.1
		c11.5-3.2,40.8,12.4,50.8,33.3C379.2,296.3,379.9,293.1,379,290.1 M225.9,267.9c0-0.9,0.8-1.5,2.1-1.9c0.2,1.5,1.6,2.8,3.3,2.8
		c1.9,0,3.4-1.5,3.4-3.4h0c2.1,0.2,3.7,1.1,3.7,2.6C238.3,272.2,225.9,271.3,225.9,267.9 M363,312.4c0.4-1.7,0.4-3.6-0.4-5.3
		c-1.1-1.9-2.6-3.4-4.3-4.1c0.6-1.7,0.6-3.6-0.2-5.6c-1.1-1.9-2.8-3.4-4.9-3.8c0.4-1.7,0.4-3.4-0.2-5.1c-1.3-2.6-4.1-3.8-7.1-3.8
		c0.4-1.7,0.2-3.6-0.4-5.1c-1.7-3.2-5.6-4.7-9.6-4.1c0-0.9-0.2-1.9-0.6-2.8c-1.7-3.6-6.2-5.1-10.7-3.6c0.2-1.5,0-2.8-0.4-3.8
		c-1.7-3.6-7.1-4.9-12-2.6c-1.1,0.4-1.9,1.1-2.8,1.9c0-1.1,0-2.1-0.6-3.2c-1.7-3.6-7.1-4.9-11.8-2.6c-0.9,0.4-1.7,0.9-2.4,1.5
		c-1.7-3.8-7.1-4.9-12-2.6c-1.5,0.6-2.8,1.7-3.8,2.8c-1.7-3-6.6-4.5-11.5-3.2c-3,0.9-5.3,2.4-7.1,4.3c-8.8-9.4-20.3-8.3-23.4-7.9
		c-15.9,2.4-23.8,12.4-33.8,13.2c-4.6,0.4-9.1-1.3-11.4-2.6c-2.2,4.1,1.9,2.8,1.5,5.6c-0.1,0.9-4.6,6,1.8,6.2
		c3,0.2,8.4-0.4,10.2,1.9c-29.5,4.9-21.4-9.2-26.4-9.2c-7.2,0-6.1,20.7,14.2,16.9c0.7,1.5,2.2,2.6,3.3,3.4c6.8-4.7,21.8-2.1,7.6,8.1
		c11.3,1.3,12.9-6.6,13-7.3c4.1-1.9,13.3,1.9,18.4,1.3c5.1-0.4,12.2-7.7,14.2-8.1c7.1,8.1,12.1,7.7,25.8,4.7
		c-4.7-12-18.2-7.9-19-11.1c5.1-3.4,15.6-5.1,27.4-4.7c0,0,0.2,0.2,0.4,0.2c10.7,0.4,22.9,2.8,33.3,7.5c22,10.3,40.8,29.5,41.4,52.3
		C364.7,325.2,365.6,318.6,363,312.4 M286.7,369.2c5.3,5.8,5.8,17.1,20.3,28.2c-9,8.3-10.7,2.6-11.3,2.1
		c-14.7,0.9-4.1-14.7-5.1-18.6c-19.7,17.9-7.3,31.8-7.3,31.8s3.2,5.3-1.9,6.4c-11.1,2.4-38.2,12.8-46.7,26.1
		c-4.5,6.8-8.6-2.6-10.3-2.4c-3.2,0.6-10.4,13.2-10.4,13.2s-17,2.6-17.5,1.9c-0.5-0.9,6-11.1,8.4-14.7c-4.3-2.1-10.4,9-10.4,9
		l-9.2,1.3c0,0,14.5-14.7,15.2-17.3c0.7-1.7,32.9,1.3,53-26.3C217,378.2,277.5,366.2,286.7,369.2 M65.4,375.6c0,0,5.8,1.5,7.1,2.1
		c1.3,0.9,11.4-8.3,12.2-8.3c0.8,0.2,1.5,0.6,1.7,1.5c0.1,0.9-14,14.5-14,14.5s12.3,0.6,19.4,0.2c7.1-0.6,6.9-5.1,8.9-9.2
		c2.7-2.8,4.2-3.4,4.2-3.4s1.9,2.8,6.2,3.4c4.7,0.9,9.5-10,22.2-18.6c8.2-5.8,31.8,1.5,31.8,1.5s35.4,10.9,37.5,14.7
		c10.6-2.8,11.4-23.3,15.4-21.8c7,2.8-1.6,8.8-1.4,12.6c5.7-1.1,59.2-3.2,63.7-1.1c0.4,0-12.2-6.6-12.2-6.6s17.1-10.9,32.7,26.7
		c5.1,12.6,19.9,12.2,28.8,16.2c26.1,3.8,17.5,36.3,18.6,40.4c-0.2,0.6-1.7,2.1-2.1,2.6c-1.7,1.9-6.8,2.8-6.8,2.8h-1.7
		c0,0-2.4-0.6-4.5-0.6c-5.6-0.2-10.9,7.5-17.9,15.4c4.5,2.1,8.8-1.3,8.8-1.3s8.1-13.2,10.3-8.8c0.2,0.6-9.2,15.4-10,16.2
		c1.1,3.4,7.1-1.9,9-2.4c2.1-0.2,12.6-1.1,14.5-9.6c0.9-4.9,12.6-3.6,12.6-3.6s2.1-0.9,3-1.9c-3.4-4.1-0.2-38.9-1.9-44.2
		c2.6-6.6-0.4-10-0.4-10s-5.3,0.2-9.6-3.4c-7.5-3.6-15.8-35.3-21.4-38c0.4-1.1,0.9-1.9,1.7-2.4c7.5-3.2,15,3.8,15.6,9
		c0.2,3.6,12,5.1,12,5.1s0.6-0.9-2.8-4.9c-0.9-0.9,0.9-1.7,0.9-1.7s13,5.8,15.8-4.1c-15,4.9-24.8-20.5-46.1-3.6
		c-8.8-7.7-27.6-19.9-83-28.4c16.8-18.8,12.5-30.6,5.7-33.8c-15.4,11.8-20.4,3-25.9,4.7c-4.5,19.2-53,3.8-55.3,45.9
		c0.8,0,14,0.6,15.9,0.6c0.7,2.6,1.7,2.6-5.3,4.3c-3.8-1.1-24.1-1.5-33.3-4.3c-9.8-1.9-19.6,6.4-19.6,6.4s-16.3,13-20,14.7
		c-3.7,1.7-11.9,3.4-14.1,4.5c-2.2,0.9-6.5-0.4-6.5-0.4L65.4,375.6L65.4,375.6z M167.8,312.1c0.9,1.3,4.4,3,4.4,3s-6.2,7.5-9.5,23.7
		c-4.4-0.2-7.2-0.4-7.2-0.4s-5.4,0.4-7.2-6.8c-4.6-18.2-5-25.9-9.7-32.3c-2.3-3.2-8.4-4.9-14-6.6c-5.9-1.9-11.2-3.6-11.2-3.6
		s-7.3-3.4-13.2,1.7c-0.7,0.6-2.1,0.4-2.3-3c-0.2-3.4-3.9-1.9-3.9-1.9s-5.3,3-10.8,4.5c-6.9,1.9-18-11.8-21.7-11.5
		c5.4-0.2,21.1-0.4,21.1-0.4s2.2-1.7,0.6-3.2s-13.6,2.1-14.9,0.2c-1.3-1.9-3.6-5.6-3.6-5.6s6.7,2.1,16.6,0.9
		c7.6-1.1,12.1,0.2,12.8,0.6c15.5,9.6,42.5,10.7,46.8,10c6.1-0.9,9.1,4.7,10.3,6.6c1.7,2.8,2.5,5.1,2.5,5.1S161,303,167.8,312.1"/>
	<path class="st1" d="M277.8,376.7c0,0,4.5-3.8,13.5,0c0.9,1.9,1.1,2.1,2.4,4.7C291.1,377.7,280.8,378.2,277.8,376.7"/>
	<path class="st1" d="M178.3,270.7c1.8,0.2,1,7.7,9.6,9.2c4.7,0.9,10.3,0.9,16.9-0.2c0,0.9-0.1,1.3-0.1,2.1
		c-13.7,2.6-17.2,3.6-22.9,1.1C175,280.1,176.2,270.5,178.3,270.7"/>
	<g>
		<path class="st2" d="M246.4,1.5v235.9h201.1V1.5L246.4,1.5L246.4,1.5z"/>
		<path d="M449,238.9H244.9V1.5h1.5l0-1.5L449,0V238.9z M247.9,235.9H446V3l-198.1,0V235.9z"/>
	</g>
	<g>
		<path d="M317.4,238.9h-72.5v-88.9h72.5V238.9z M247.9,235.8h66.5V153h-66.5V235.8z"/>
		<path d="M447.5,89.2h-71V0.1l72.5,0v87.6h-1.5V89.2z M379.6,86.2H446V3.1l-66.4,0V86.2z"/>
		<path d="M449,238.9H43.5L43.4,0H449V238.9z M46.5,235.9H446V3H46.4L46.5,235.9z"/>
	</g>
	<g>
		<path class="st3" d="M447.5,87.7H378V1.6l69.4,0V87.7L447.5,87.7z M315.9,237.4h-69.5v-85.9h69.5V237.4z M315.9,1.7v86.1h-69.2
			l0,31.9h100.2V1.7H315.9L315.9,1.7z M447.5,151.5v-32H346.9v117.9H378v-85.9L447.5,151.5L447.5,151.5z"/>
		<path d="M379.6,239h-34.2V121.2H245.1l0-34.9h69.2V1.7h1.5l0-1.5l32.5,0V118H449v35h-69.4V239z M348.4,235.9h28.2V150H446v-29
			h-97.6V235.9z M248.2,118.1h97.2V3.2l-27.9,0v86.1h-69.2L248.2,118.1z M317.4,238.9h-72.5v-88.9h72.5V238.9z M247.9,235.8h66.5
			V153h-66.5V235.8z M447.5,89.2h-71V0.1l72.5,0v87.6h-1.5V89.2z M379.6,86.2H446V3.1l-66.4,0V86.2z"/>
	</g>
</g>
</svg>
