<?xml version="1.0" encoding="utf-8"?>
<!-- Generator: Adobe Illustrator 25.0.1, SVG Export Plug-In . SVG Version: 6.00 Build 0)  -->
<svg version="1.1" id="Ebene_1" xmlns="http://www.w3.org/2000/svg" xmlns:xlink="http://www.w3.org/1999/xlink" x="0px" y="0px"
	 viewBox="0 0 492.5 492.5" style="enable-background:new 0 0 492.5 492.5;" xml:space="preserve">
<style type="text/css">
	.st0{fill:#248BCC;}
	.st1{fill:#FFFFFF;}
</style>
<g>
	<g>
		<path class="st0" d="M246.1,1.5h201.7V298c0,106.7-90.2,193-201.6,193c-111.3,0-201.6-86.3-201.6-193V1.5L246.1,1.5L246.1,1.5z"/>
		<path d="M246.2,492.5c-27.4,0-54-5.1-79-15.3c-24.2-9.8-45.9-23.8-64.6-41.6c-18.7-17.9-33.3-38.7-43.5-61.8
			c-10.6-24-16-49.5-16-75.8V0l201.5,0l1.5,0h203.2v298c0,26.3-5.4,51.8-16,75.8c-10.2,23.2-24.9,44-43.5,61.8
			c-18.6,17.8-40.4,31.9-64.6,41.6C300.3,487.3,273.7,492.5,246.2,492.5z M46.2,3V298c0,105.6,89.7,191.5,200,191.5
			c110.3,0,200.1-85.9,200.1-191.5V3H247.6v0L46.2,3z"/>
	</g>
	<path d="M246.2,490.9c-111.3,0-201.6-86.3-201.6-193V1.5l201.5,0L246.2,490.9L246.2,490.9z"/>
	<g>
		<path class="st1" d="M239.8,184.1c-9.5,0-13.9-2.1-17.8-4.2c-2.1-1.2-4.3-2.5-7.3-3.3c-0.1,0-0.2,0-0.2,0c-0.1,0-0.2-0.1-0.3-0.1
			c-2.1-0.6-4.7-0.9-8.1-0.9H206h-0.1c-4.5,0-7.5,0.6-10,1.6c-6.8,2.5-9.9,7-23.3,7c-3.6,0-6.5-0.3-8.9-0.9
			c-9.9-2.1-11.2-7.7-24.3-7.7h-0.1h-0.1c-16.2,0-15,8.6-33.7,8.6s-16.9-8.6-33.1-8.6c-15.1,0-15.6,7.2-26.9,8.2l0,27.3
			c11.3-1,11.8-8.2,26.9-8.2c16.2,0,14.4,8.6,33.1,8.6c2.7,0,5-0.2,7-0.5v0c11.2-1,11.8-8.2,26.8-8.2c13,0,14.3,5.6,24.5,7.7
			c2.3,0.5,5.2,0.8,8.8,0.8c0,0,0.1,0,0.2,0c0.1,0,0.1,0,0.2,0c14.1,0,16.7-4.5,23.2-7c2.6-0.9,5.7-1.6,10.1-1.6c3.4,0,6,0.4,8.2,1
			c0.1,0,0.2,0,0.3,0.1c0.1,0,0.2,0,0.2,0.1c2.9,0.8,5,2.1,7.3,3.3c2.5,1.4,4.9,2.8,8.5,3.5v-0.1c2.5,0.5,5.4,0.9,9.3,0.9
			c2.4,0,4.6-0.2,6.4-0.4v-27.4C244.3,183.9,242.2,184.1,239.8,184.1"/>
		<path class="st1" d="M239.8,220.7c-9.5,0-13.9-2.1-17.8-4.3c-2.1-1.3-4.3-2.4-7.3-3.3c-0.1,0-0.2,0-0.2,0c-0.1,0-0.2-0.1-0.3-0.1
			c-2.1-0.6-4.7-0.9-8.1-0.9H206h-0.1c-4.5,0-7.5,0.6-10,1.6c-6.8,2.5-9.9,6.8-23.3,7c-3.6,0-6.5-0.4-8.9-0.9
			c-9.9-2.1-11.2-7.8-24.3-7.8h-0.1h-0.1c-16.2,0-15,8.7-33.7,8.7S88.6,212,72.3,212c-15.1,0-15.6,7.1-26.9,8.2l0,27.3
			c11.3-0.9,11.8-8.2,26.9-8.2c16.2,0,14.4,8.6,33.1,8.6c2.7,0,5-0.2,7-0.4c11.2-1.1,11.8-8.2,26.8-8.2c13,0,14.3,5.6,24.5,7.7
			c2.3,0.4,5.2,0.9,8.8,0.9h0.2h0.2c14.1,0,16.7-4.5,23.2-7.1c2.6-0.9,5.7-1.5,10.1-1.5c3.4,0,6,0.2,8.2,0.9h0.3
			c0.1,0,0.2,0.2,0.2,0.2c2.9,0.9,5,1.9,7.3,3.2c2.5,1.5,4.9,2.8,8.5,3.4c2.5,0.6,5.4,0.9,9.3,0.9c2.4,0,4.6,0,6.4-0.4v-27.3
			C244.3,220.5,242.2,220.7,239.8,220.7"/>
		<path class="st1" d="M239.8,257.2c-9.5,0-13.9-2.1-17.8-4.3c-2.1-1.1-4.3-2.4-7.3-3.2h-0.2c-0.1,0-0.2-0.2-0.3-0.2
			c-2.1-0.4-4.7-0.9-8.1-0.9H206h-0.1c-4.5,0-7.5,0.6-10,1.5c-6.8,2.6-9.9,7.1-23.3,7.1c-3.6,0-6.5-0.4-8.9-0.9
			c-9.9-2.1-11.2-7.7-24.3-7.7h-0.1h-0.1c-16.2,0-15,8.6-33.7,8.6s-16.9-8.6-33.1-8.6c-15.1,0-15.6,7.1-26.9,8.2l0,27.5
			c11.3-1.1,11.8-8.4,26.9-8.4c16.2,0,14.4,8.6,33.1,8.6c2.7,0,5,0,7-0.4c11.2-1.1,11.8-8.2,26.8-8.2c13,0,14.3,5.6,24.5,7.7
			c2.3,0.4,5.2,0.9,8.8,0.9h0.2h0.2c14.1,0,16.7-4.5,23.2-7.1c2.6-0.9,5.7-1.5,10.1-1.5c3.4,0,6,0.4,8.2,0.9c0.1,0,0.2,0,0.3,0.2
			h0.2c2.9,0.9,5,2.1,7.3,3.2c2.5,1.5,4.9,3,8.5,3.6v-0.2c2.5,0.6,5.4,0.9,9.3,0.9c2.4,0,4.6,0,6.4-0.2v-27.5
			C244.3,256.9,242.2,257.2,239.8,257.2"/>
	</g>
	<g>
		<path class="st1" d="M394.4,137.3l11.8,31.9h31.1l-24.5,16.9l9.2,30.2l-27.7-17.8l-27.7,17.8l9.7-30.5l-24.9-16.7h31.3
			L394.4,137.3z"/>
		<path d="M363.9,219.9l10.6-33.4l-28.1-18.8h35.3l12.6-34.8l12.9,34.8h34.9l-27.6,19l10.1,33.1l-30.4-19.5L363.9,219.9z
			 M394.4,196.8l25,16l-8.3-27.3l21.4-14.8h-27.3l-10.7-29l-10.5,29h-27.4l21.7,14.5l-8.7,27.5L394.4,196.8z"/>
	</g>
	<g>
		<path class="st1" d="M298,137.3l11.6,31.9h31.3l-24.7,16.9l9.4,30.2L298,198.6l-27.5,17.8l9.4-30.5l-25-16.7h31.2L298,137.3z"/>
		<path d="M267.8,219.9l10.3-33.4l-28.2-18.8h35.2l12.9-34.8l12.6,34.8h35.2l-27.8,19l10.4,33.1L298,200.4L267.8,219.9z M298,196.8
			l25,16l-8.5-27.3l21.6-14.8h-27.5l-10.5-29l-10.7,29H260l21.8,14.5l-8.5,27.5L298,196.8z"/>
	</g>
	<g>
		<path class="st1" d="M346.3,221.7l11.8,32h31.1l-24.9,16.7L374,301l-27.7-17.8l-27.7,17.6l9.4-30.3l-24.7-17h31.1L346.3,221.7z"/>
		<path d="M376.7,304.5l-30.4-19.6l-30.4,19.3l10.3-33.2L298.4,252h35l12.9-34.6l12.9,34.8h35.1l-28.1,18.9L376.7,304.5z
			 M346.3,281.3l25,16.1l-8.7-27.5l21.7-14.6H357l-10.8-29.1L335.5,255h-27.3l21.6,14.8l-8.5,27.4L346.3,281.3z"/>
	</g>
	<rect x="244.8" y="1.2" width="2.2" height="489.6"/>
</g>
</svg>
