<?xml version="1.0" encoding="utf-8"?>
<!-- Generator: Adobe Illustrator 25.0.1, SVG Export Plug-In . SVG Version: 6.00 Build 0)  -->
<svg version="1.1" id="Ebene_1" xmlns="http://www.w3.org/2000/svg" xmlns:xlink="http://www.w3.org/1999/xlink" x="0px" y="0px"
	 viewBox="0 0 492.5 492.5" style="enable-background:new 0 0 492.5 492.5;" xml:space="preserve">
<style type="text/css">
	.st0{fill:#FFD72E;}
	.st1{fill:#E7423F;}
	.st2{fill:none;stroke:#E41E2E;stroke-width:0.888;}
	.st3{fill:#FFFFFF;}
	.st4{fill:none;stroke:#FFFFFF;stroke-width:3.176;stroke-linecap:round;stroke-linejoin:round;}
	.st5{fill:none;stroke:#FFFFFF;stroke-width:2.664;stroke-linecap:round;stroke-linejoin:round;}
	.st6{fill:none;stroke:#000000;stroke-width:3.048;}
</style>
<g>
	<path class="st0" d="M246.1,0.2h203v298.3c0,107.2-90.8,194.1-202.8,194.1c-112,0-202.8-86.9-202.8-194.1V0.2L246.1,0.2L246.1,0.2z
		"/>
	<path d="M430.6,202.2c-3.8-7.1-32-35.3-67.2-54.5c-15.5-8.5-63.5-34.3-102.7-41.5c-4.3-0.8-7.9-2.6-12.2-1.7
		c-1.8,0.4-4.4-2.2-1.4-3.9c1.7-1,3.4-1.8,12.1-1.6c-7.4-5.2-9.9-4.4-21.6-4.2c2.5-4.8,16.2-4.8,16.2-4.8s-6.3-3.9-25.2-2.5
		c3.8-3.2,11.2-4.6,11.2-4.6s-10.3-4.2-22.1,1.2c-1,0.4-2.1,1.4-4.4,1.5c-2.3,0.1-8-0.7-8.9-0.9c-0.9-0.2-4.5-0.8-4.1-4.2
		c0.4-3.3,3.2-3.4,3.9-3.4c0.7-0.1,9.2,0.5,11.4-3.5c1.5-2.8,4.3-13.6-3.4-16.8c-11-4.5-16.5-0.8-18.1-0.4c-1.7,0.4-3.9-1.3-3.9-1.3
		s-8.5-8.6-11.2-10.7c-2.8-2-10.7-5.7-16.7-6.8c-1.3-0.2-3.7-0.9-4.1-1.2c-1.4-1.1-5.9-1.8-7.5-1.7c-2,0.2-6.3-0.5-8.7,3
		c-1.5,2.3-2.7,2.3-5.6,2.8c-3,0.5-10.9,0-10.9,0s-10.1,0-13.4-2.3c-1.5-1.1-6.3-5.3-7.5-6.9c-1.3-1.5-3.3-0.6-3.1,0
		c0.8,2.8,0.2,8-2.9,11.4c-3.5,3.8-7.4,7.4-8.1,8.3c-0.7,0.8-1.8,4.9,0.6,6.4c2.4,1.5,4.3,2.7,4.3,2.7s-1.6,10.1-1.2,13.1
		c-2.3-1-6.3-3.1-8.7-5.1c-15.7-12.6-17-26.7-20.3-27.3c-3.3-0.5-7.7,16,1.2,27.4c10.3,13.2,30.2,16.3,30.2,16.3s-3.2,4.1-2.9,9.8
		c-3.4,1.7-3.9,2.9-3.9,2.9s-0.3,2.2,1.9,4c61.2-1.4,105.5,56.9,95.3,124c-1.5,9.7-8.8,34.1-11.7,41.1c-2.9,7.1-3.8,18.6-3.8,18.6
		s-1,3.6-2.8,3.3c-1.7-0.2-1.9-1.7-1.8-2.6c0.3-1.3-0.9-6.6-0.4-9.9c0.5-3.3-1.4-5.6-1.4-5.6s4.7-10.5-7.5-19.6
		c2.2,11.9-1.7,14.5-1.7,14.5s-5.1-15.8-20.9-15.3c6.8,5.9,7.9,14.3,8.1,14.9c-2-3.8-17.7-14.2-26.9,0c15.6,0.9,18.1,6.8,18.1,6.8
		s-18.5-6.8-26.5,11c8.8-2.3,18.1-0.5,18.1-0.5s-11,2.5-11.2,12.1c6-2.9,15.5-0.9,15.5-0.9s-0.3,0-0.2,0.9c1.5,0.5,8.3,10.7,14,13.4
		c5.7,2.7,38,4.7,51.9-1.7c3.5-1.6,3.7-1,5-5.3c4.3-14.3,21.3-53.2,33.2-77.1c8-16,15.4-27.1,15.4-28.1c0.1-2-9.8-13.1-11-14.3
		c-1.1-1.3,1-2,1-2s7.5,1.8,10.5,6.2c3.1,4.4,3.6,5.2,3,7.5c-0.7,2.3-6.2,19.1-6.2,19.1s86.4,6.9,86.9,9.8c0.6,2.9-27,5.4-34.2,7
		c-12.4,2.6-24.1,17.4-22.8,21.6c5,17.4,6.8,61.2,7.2,64.5c0.4,3.3,4.8,5,6.5,5.1c1.7,0.1,10.6,0.2,11.5,1.6c0.8,1.4-0.5,2-0.5,2
		s-2,1.4-5.6,1.1c-3.6-0.3-24.3-6.1-27.7-9.8c-3.4-3.8-5.1-5.7-5.1-5.7s2-16.9-14.1-15c5.8,8.1,1.4,11.8,1.4,11.8
		s-6.5-12.4-26.6-6.4c13.6,5.2,13.9,9.1,13.9,9.1s-11.2-5-22.6,5.6c15.1,0.2,17.1,6,17.1,6s-17-3.5-20.4,14.6
		c12.1-7.5,18.7-2.7,18.7-2.7s-18.7,5.9-13.6,22.3c7.3-7.2,16.6-9.1,16.6-9.1l0.3,0.8c0,0,4.4,1.9,8.5,1.9c4,0,5-0.6,4.5-2.8
		c-0.5-2.2,0.3-4.7,0.4-5.6c0.1-0.8,1.5-1.1,1.5-1.1s0.9-0.2,1.2,1.1c0.7,2.9-1.5,5.3,1.3,8.6c2.9,3.3,7.3,2.6,8.6,3.1
		c1.4,0.5,9.1,2,9.1,2s21.7,3.8,28.5,0.9c4.8-2.1,19-11.2,22.9-17.6c1.9-3.1,2.7-7.1,3.2-11.4c1.7-16.7,6-36.7,18-46.2
		c0.9-0.8,2.9-1.3,3.9-1.9c1.2-0.7,2.2-1,2.6-2.1c0.3-2.6-4.2-36.7-4.9-46.1c-1.2-17.1-14-30.3-14-30.3s0-1.1,1.4-1.4
		c1.4-0.3,3.6,0.2,3.6,0.2s8-0.3,14,31.1c6,31.4,6.5,56.6,12.8,68.5c1.9,3.6,10.7,17.8,17.8,31.6c5.8,11.4,7.6,19.5,9.9,24.2
		c5.2,10.4,0.2,23.3-1.9,24.7c-2.1,1.4-2.2,0.1-2.9-0.3c-0.7-0.5,0.3-5.5,0.3-5.5s2-2.4-0.8-6.8c-2.8-4.4-15.5-7.5-15.5-7.5
		s-1.9-1.4-3.1-2c1.3-12.7-19.9-13.9-19.9-13.9s6.1,8.7,5.3,17c-15.2-11.2-27.6,0-27.6,0s11.5,2,16.7,11.2
		c-20.2-5.2-22.4,9.8-22.4,9.8s8.2-3.7,17,3.1c-19,1.4-16.1,16.4-16.1,16.4s5-6.6,19.7-1.6c-0.3,0.4-12.1,9.3-4.8,23.6
		c1.7-3.7,6.2-9.7,11.5-11.9c0.5,0.7,0.6,0.6,0.8,0.8c0,0,11.8-5,17.7-5.2c6-0.2,10.9-0.5,18.7-1.3c7.8-0.8,12.2-4.5,15.9-6.6
		c3.6-2.1,17.9-20.4,21.5-23.6c3.6-3.2,4.6-8.6,4.6-8.6s2.4-7.7,3.8-25.3c1.4-17.6,2.4-41.9,2-57.3c-0.5-21-13.1-68.4-13.1-68.4
		s0-1.6,1.1-2c1.2-0.4,1.1,0,2.7,2.5c1.6,2.5,4.6,15.9,7.1,17.9c1,0.8,0.8,3.6,4.7,2.1c1.2-0.5,3-8.1,3.6-12.3
		C436.2,217.5,434.3,209.3,430.6,202.2 M105.7,64.6c0.5,0.2,1,0.4,1,0.4s-1,9,0.3,13c-5.6-2.1-10.1-3.7-10.1-3.7
		S102.2,66.1,105.7,64.6 M105.9,95c-0.2,0-0.9-0.1-1.8-0.2c-4.1-3.4-4.4-9.3-4.4-9.3s9.1,2.2,10.6,2.9
		C109.6,90.4,106.3,92.8,105.9,95 M117,96.8c-1.1-0.4-3.7-2.7-3.8-4.2c-0.1-2.1-0.6-3.4-0.6-3.4s13.3,3.7,17.1,10.2
		C124.4,98.1,118.1,97.2,117,96.8 M108.3,78.7c0,0,4.4-6.9,8.1-8.7c12.5,6.5,18.5,17.8,20.6,25.8C130.1,87,108.3,78.7,108.3,78.7"/>
	<path d="M108.7,195c16.1-4.7,32.7-22.6,44.4-34.3c6.6-6.6,11.4-10.1,12.7-11.1c1.9,1.6,10.4,15.6,14.5,29.2
		c3.2,10.5,2.9,21.3,2.7,24.4c-0.5,9.5-6.7,11.4-6.7,11.4s-38,12.5-44.6,12.3c-3-0.1-26.3,5.5-33,4.9c-17.7-1.7-22-10.2-22-10.2
		l-8.9-15.4c0,0-1.1-3.6,2.1-2.5c3.2,1.1,3.7,1.2,6.6,2c2.9,0.8,0.6-2.1,0.6-2.1s-2.9-1.6-5.4-2.7c-8.2-3.6-9-15.5-9-15.5
		s-0.4-9.9,0-17.1c0.4-7.2-16.4-6.8-16.4-6.8s6.4-13.2,26.1-5.6c0.2-7.1-17.1-12.4-17.1-12.4s10.6-11.3,30.2,4.5
		c1-11.4-8.9-20.5-8.9-20.5s15.6-2.8,22,19c6.6-5.4,2.6-20,2.6-20s15.1,8.4,10.4,23.8c7.9-1.4,10.8-11.7,10.8-11.7
		s6.1,10.7-3.8,21.2c-3.7,3.9-4.5,2.8-4.5,2.8s-15.7,20.5-5.6,46.6c1.3,3.4,3.5,0.8,3.7-0.7C112.6,206.8,111.8,201.2,108.7,195"/>
	<path d="M180,42c0,0,11.5,10.4,12.6,11.7c0.9,1.1,7.9-2.7,11.5-1.8c2.2,0.5-1.2-6.2-2.6-8.2c-1.4-1.9-6-6.8-11.6-5.9
		C185.2,38.6,180,42,180,42"/>
	<path class="st1" d="M130.4,96.2C124.5,89,111.7,86.1,97,82.3C86.3,79.6,74.7,75,69,66.7c-3-4.3-4.5-9-4.6-13.3
		c-0.1-3.2,0.3-6,0.9-7.8c0.3,0.6,0.6,1.2,0.8,1.7c2.6,5.5,6.8,14.8,17.6,23.2c5.1,4,14.3,6.7,23.2,10.1c9.6,3.3,19.9,8.2,26.1,14.5
		c0,0,4,4.4,4.3,5.9c-0.9-0.2-2.3-0.5-4.1-0.8C132.7,98.7,130.4,96.2,130.4,96.2"/>
	<path class="st2" d="M130.4,96.2C124.5,89,111.7,86.1,97,82.3C86.3,79.6,74.7,75,69,66.7c-3-4.3-4.5-9-4.6-13.3
		c-0.1-3.2,0.3-6,0.9-7.8c0.3,0.6,0.6,1.2,0.8,1.7c2.6,5.5,6.8,14.8,17.6,23.2c5.1,4,14.3,6.7,23.2,10.1c9.6,3.3,19.9,8.2,26.1,14.5
		c0,0,4,4.4,4.3,5.9c-0.9-0.2-2.3-0.5-4.1-0.8C132.7,98.7,130.4,96.2,130.4,96.2z"/>
	<path class="st3" d="M96,94.5c1.5,0,3.5-0.2,5,0C98.8,93,97.9,87,97.9,87S95.7,90.4,96,94.5"/>
	<path class="st3" d="M108,95.3c1.5,0.1,2.6,0.4,5.1,0.8c-2.2-1.5-1.3-4.3-2.2-5.5C109.4,93.2,108.4,93.5,108,95.3"/>
	<path class="st3" d="M108.5,74.8c2.4-3.7,5.6-6,5.7-6c-1.1-0.5-5.6-2.8-5.6-2.8S108.2,74.5,108.5,74.8"/>
	<path class="st3" d="M96.3,71.5c0,0,5-6.8,7.1-7.9c-3.4-1-4.8-1.8-5.9-2.4C96.6,66.5,96.3,71.5,96.3,71.5"/>
	<path class="st1" d="M324,236c0,0,13.4-1.9,20.9,4.4c-0.1-1.2-1-8.3-1-8.3S330.9,227.4,324,236"/>
	<path class="st2" d="M324,236c0,0,13.4-1.9,20.9,4.4c-0.1-1.2-1-8.3-1-8.3S330.9,227.4,324,236z"/>
	<path class="st3" d="M152,41.9c0,0,3.7,0.3,5,3.9c1.2,3.5,1.8,8.6-0.8,19.1c-0.2,1-2.1,0.8-2.2-0.4c0-1.2,1.2-6.4,1.5-9.5
		c0.3-3-0.1-6.8-1.1-7.7c-0.8-0.8-2.4-1.4-2.7-1.4c-0.3-0.1-2.2-0.4-1.8-2.2C150.3,41.9,152,41.9,152,41.9"/>
	<path class="st3" d="M152.9,52.1c1.8-0.5,1-2.4-1.2-3.2c-2.3-0.8-7.4,0.5-9,5.3c-1.5,4.4,5.7,8.1,7.2,8c2.5-0.1,3.2-3.5,1.7-4.2
		c-1.5-0.7-3.9-1-3.7-2.9C148,53.2,151.1,52.6,152.9,52.1"/>
	<path class="st1" d="M112.9,152.9c0,0,4.2,0.2,8.4-6.2c-0.3,5.7-4.9,10.4-4.9,10.4L112.9,152.9z"/>
	<path class="st1" d="M53.2,158.8c6.1-5,18.5,0,18.5,0l-6.3,5.5C65.3,164.2,62.8,158.7,53.2,158.8"/>
	<path class="st1" d="M63.1,143.1c8.9-2.8,21.4,8,21.4,8s-6.6,3.4-8.5,4.4C76,154.7,74.9,146.7,63.1,143.1"/>
	<path class="st1" d="M83.4,130.9c8.7,3,12.1,17.4,12.1,17.4l-7,1.4C88.5,149.7,90.5,140.5,83.4,130.9"/>
	<path class="st1" d="M101.4,148.3c3.3-3.4,5.4-8.7,4-15c2.3,2.1,5.2,10.8,2.7,17.1C107.1,149.8,105.8,148.5,101.4,148.3"/>
	<path class="st1" d="M162.8,268.6c-1.2-0.8-3.1-1.1-4.4-1.1c3.6-3.5,2.8-8.7,2.8-8.7S164.6,264.2,162.8,268.6"/>
	<path class="st1" d="M153.4,267.6c-3.5,0.3-5.8,1.1-6.5,1.4c-0.5-9.9-4-14.5-4-14.5S151,259.2,153.4,267.6"/>
	<path class="st1" d="M143.7,270.2c-1.8,1.3-1.4,0.8-4.2,2.9c-3.3-5.3-6.8-9.8-18.3-10.1C130,256.7,141.1,264.2,143.7,270.2"/>
	<path class="st1" d="M114.5,278.6c3.2-6.1,16.2-6.4,22.6-2.9c-1.9,2.3-2.4,3.3-3.1,5.8C128.1,277.9,117.6,278.3,114.5,278.6"/>
	<path class="st1" d="M119.5,290c4.3-5.8,13.1-5.8,13.2-5.5c-0.3,0.4-1.8,5.1-1.8,5.8C130.5,289.9,125.7,288.7,119.5,290"/>
	<path class="st1" d="M260.5,308.3c-2-0.4-4.6-0.9-6.5-1.2c0.7-0.7,2.8-6.3,0.3-10.5C256.1,297,260.3,298.5,260.5,308.3"/>
	<path class="st1" d="M242.1,308.9c2.5-1.5,4.1-1.7,6-1.6c-2.3-5.4-13.1-7.6-14.9-7C234.3,300.8,241.8,304.5,242.1,308.9"/>
	<path class="st1" d="M223.3,311.9c7.3-3.5,14.1-0.9,14.6-0.5c-0.8,0.8-2.9,3.1-3.8,5.2C232.5,312.9,223.3,311.9,223.3,311.9"/>
	<path class="st1" d="M216.5,329.4c0.6-1.4,7.4-8.2,15.1-6c-1.2,2.1-1.4,3.4-0.8,5.2C223.3,325.5,216.7,329.3,216.5,329.4"/>
	<path class="st1" d="M219.5,348.8c1.8-9.1,8.4-11.7,11.7-13.3c-0.1,1.4,0.4,5.5,1.2,6.6C231.5,341.9,223.2,344.2,219.5,348.8"/>
	<path class="st1" d="M360.7,356.1c-2.3,0.6-5.7,2.1-6.9,2.8c0.4-5.5-1.3-10.9-2.9-13.3C353.5,346.1,361.4,349.4,360.7,356.1"/>
	<path class="st1" d="M343.2,368.9c-0.7-2.4-7.4-10-13.5-11.2c4.6-2.5,12.7-2.2,20.2,3.9C346.9,363.6,343.8,367.7,343.2,368.9"/>
	<path class="st1" d="M321.9,375.8c3.8-6.9,15.8-4.1,19.2-2.8c-1.5,1.6-2.8,4.4-3.1,8.7C335,376.5,325.7,374.8,321.9,375.8"/>
	<path class="st1" d="M321.3,393.5c-0.3,0.6,1.7-8.6,16.2-7.9c-0.4,3.5-0.5,5,0.1,8.4C328.2,390.1,321.3,393.5,321.3,393.5"/>
	<path class="st1" d="M333.9,413.9c0,0-1.3-7.4,4.9-13.1c0.6,3.2,1.6,5,2.8,6.2C337.9,408.3,333.9,413.9,333.9,413.9"/>
	<path class="st4" d="M103.6,155.2c-3.1,2.9-6.4,2.3-9.2,5.5c-2,2.3-7.5,10.3-4.6,23.3c1.9,8.5,3.7,23.3,4.8,28.2
		c1.5,6.5-2.3,12.6-4.9,12.7"/>
	<path class="st5" d="M255.3,313.4c0.3,3.7,0.3,5.9,1.5,9.3c0.9,2.5,5.7,4.3,14.8,6.9c5.6,1.6,16,5.2,19.2,6.6
		c7.5,3.2,4.3,8.3,4.4,11.1"/>
	<path class="st1" d="M43.4,298.5c0,107.2,90.8,194.1,202.8,194.1c46.5,0,89.4-15,123.6-40.2L43.4,254.3V298.5z"/>
	<polygon class="st1" points="449.1,0.2 246.1,0.2 146.5,0.2 449.1,183.8 	"/>
	<g>
		<path class="st6" d="M246.1,0.2h203v298.3c0,107.2-90.8,194.1-202.8,194.1c-112,0-202.8-86.9-202.8-194.1V0.2L246.1,0.2L246.1,0.2
			z"/>
	</g>
</g>
</svg>
