<?xml version="1.0" encoding="utf-8"?>
<!-- Generator: Adobe Illustrator 25.0.1, SVG Export Plug-In . SVG Version: 6.00 Build 0)  -->
<svg version="1.1" id="Ebene_1" xmlns="http://www.w3.org/2000/svg" xmlns:xlink="http://www.w3.org/1999/xlink" x="0px" y="0px"
	 viewBox="0 0 492.5 492.5" style="enable-background:new 0 0 492.5 492.5;" xml:space="preserve">
<style type="text/css">
	.st0{fill:#16A74E;}
	.st1{fill:#FFFFFF;}
	.st2{fill:#010202;}
	.st3{fill:#FFD730;}
	.st4{fill:none;stroke:#010202;stroke-width:3.048;}
</style>
<g>
	<path class="st0" d="M246.1,0h203v298.4c0,107.2-90.8,194.1-202.8,194.1c-112,0-202.8-86.9-202.8-194.1V0H246.1z"/>
	<polygon class="st1" points="43.4,234.2 43.4,0 246.1,0 449.1,0 449.1,234.2 	"/>
	<path class="st2" d="M94.9,28v4.5l1.3,0.1c2.3,0.1,3.2,0.4,3.5,0.6c0.5,0.3,1.2,0.9,1.2,2.8V69c0,1.9-0.7,2.5-1.3,2.8
		c-0.3,0.2-1.2,0.5-3.4,0.6l-1.3,0.1V77h42.1l3.3-18.3h-4.6l-0.4,0.9c-1.9,4.9-4.2,8.3-6.7,9.9c-2.6,1.7-5.8,2.5-9.6,2.5
		c-2.7,0-3.6-0.4-3.9-0.5c-0.3-0.2-0.5-0.9-0.5-1.8V37.3c0-3.2,0.7-3.8,0.8-3.9c0.3-0.2,1.4-0.8,4.8-0.9l1.4,0V28L94.9,28L94.9,28z"
		/>
	<path class="st3" d="M96.9,29.9v0.7c1.8,0.1,3.1,0.4,3.8,0.8c1.5,0.8,2.2,2.3,2.2,4.5V69c0,2.2-0.8,3.8-2.3,4.6
		c-0.8,0.4-2.1,0.7-3.7,0.8V75h38.5c0.2-0.8,2.4-13.2,2.6-14.4h-1c-2,5.1-4.5,8.7-7.3,10.5c-2.9,1.9-6.5,2.8-10.7,2.8
		c-2.4,0-4-0.3-4.9-0.8c-1-0.6-1.5-1.8-1.5-3.5V37.3c0-2.9,0.5-4.7,1.6-5.5c1-0.7,2.8-1.1,5.4-1.2v-0.6H96.9z"/>
	<path class="st2" d="M140.4,28v4.5l1.4,0.1c2.4,0.1,3.3,0.4,3.7,0.6c0.5,0.3,1.2,0.8,1.2,2.8v33.1c0,1.9-0.8,2.5-1.3,2.8
		c-0.3,0.2-1.3,0.5-3.5,0.5l-1.4,0V77h26.7v-4.6h-1.4c-2.3,0-3.5-0.4-4.1-0.8c-0.6-0.4-0.9-1.2-0.9-2.6V35.9c0-2,0.7-2.5,1.3-2.8
		c0.3-0.2,1.3-0.5,3.8-0.6l1.4-0.1V28L140.4,28L140.4,28z"/>
	<path class="st3" d="M142.4,29.9v0.7c1.8,0.1,3.2,0.4,4,0.8c1.5,0.8,2.3,2.3,2.3,4.5V69c0,2.2-0.8,3.8-2.4,4.6
		c-0.8,0.4-2.1,0.6-3.9,0.7V75h22.8v-0.6c-2-0.1-3.5-0.4-4.5-1c-1.2-0.8-1.9-2.2-1.9-4.3V35.9c0-2.3,0.8-3.8,2.3-4.6
		c0.8-0.4,2.2-0.6,4.1-0.8v-0.6L142.4,29.9L142.4,29.9z"/>
	<path class="st2" d="M167.1,28v4.5l1.3,0.1c2.3,0.1,3.1,0.4,3.4,0.6c0.3,0.2,1.2,0.6,1.2,2.8v33.1c0,1.9-0.7,2.5-1.2,2.8
		c-0.3,0.2-1.2,0.5-3.3,0.6l-1.4,0.1V77h23.3c6.1,0,11-1.3,14.7-3.8c3.9-2.6,5.9-6.1,5.9-10.4c0-4.6-2.1-8.1-6.1-10.7
		c-1.1-0.6-2.2-1.2-3.5-1.7c1.3-0.6,2.5-1.3,3.7-2.3c2.4-1.9,3.6-4.6,3.6-7.8c0-5.3-2.9-9-8.6-10.9c-2.8-1-6.4-1.5-10.6-1.5
		L167.1,28L167.1,28L167.1,28z M186.7,34.7c0-0.9,0.2-1.4,0.3-1.5c0.1-0.1,0.5-0.4,2.1-0.4c2.2,0,3.6,0.6,4.3,1.9
		c0.8,1.6,1.3,3.6,1.3,5.9c0,3.1-0.6,5.2-1.7,6.3c-0.7,0.7-2.4,1.5-6.2,1.7L186.7,34.7L186.7,34.7z M187,71.2L187,71.2
		c-0.1-0.2-0.3-0.7-0.3-2V53.6c2.8,0,4.8,0.4,6.1,1.2c2.4,1.4,3.6,4.1,3.6,8.5c0,2.9-0.5,5.2-1.7,6.7c-1,1.4-3,2.1-5.7,2.1
		C187.5,72,187.1,71.4,187,71.2"/>
	<path class="st3" d="M169.1,29.9v0.7c1.8,0.1,3,0.4,3.8,0.8c1.4,0.8,2.2,2.3,2.2,4.5v33.1c0,2.2-0.8,3.8-2.3,4.5
		c-0.8,0.4-2,0.7-3.6,0.8V75h21.4c5.7,0,10.2-1.2,13.6-3.4c3.3-2.3,5-5.1,5-8.7c0-3.9-1.7-6.8-5.2-9c-1.8-1.1-4-1.9-6.4-2.4
		l-0.5-0.1v-1.6l0.5-0.1c2.3-0.4,4.5-1.4,6.4-3c1.9-1.6,2.9-3.6,2.9-6.3c0-4.4-2.4-7.4-7.2-9.1c-2.6-0.9-6-1.4-9.9-1.4L169.1,29.9
		L169.1,29.9L169.1,29.9z M184.7,34.7c0-1.4,0.3-2.4,1-3c0.7-0.6,1.8-0.9,3.3-0.9c2.9,0,5,1,6,3c1,1.9,1.5,4.2,1.5,6.8
		c0,3.7-0.8,6.3-2.4,7.8c-1.6,1.5-4.5,2.2-9,2.2h-0.6L184.7,34.7L184.7,34.7z M184.7,69.3V51.6l0.5,0c3.9-0.1,6.7,0.4,8.5,1.4
		c3.1,1.7,4.6,5.1,4.6,10.2c0,3.4-0.7,6-2.1,7.9c-1.4,1.9-3.9,2.9-7.3,2.9c-1.8,0-3.1-0.6-3.7-1.8C184.9,71.6,184.7,70.6,184.7,69.3
		"/>
	<path class="st2" d="M212.6,28v4.5l1.3,0.1c2.3,0.1,3.2,0.4,3.5,0.6c0.6,0.3,1.2,0.9,1.2,2.8v33.1c0,1.9-0.7,2.5-1.2,2.8
		c-0.3,0.2-1.3,0.5-3.5,0.6l-1.4,0.1V77h42.5l3.4-17H254l-0.4,0.8c-2,4.4-4.3,7.3-6.8,8.9c-2.5,1.5-5.9,2.3-10,2.3
		c-2.8,0-3.6-0.4-3.8-0.5c-0.4-0.3-0.5-1.2-0.5-1.8V54.6c2.7,0.2,4.6,0.8,5.7,1.9c1.3,1.4,2.2,3.9,2.6,7.4l0.2,1.2h4.4V39.2H241
		l-0.2,1.1c-0.9,4.5-2,6.4-2.8,7.3c-0.9,1-2.8,1.5-5.5,1.6V34.9c0-1,0.2-1.4,0.3-1.5c0,0,0.6-0.4,3.1-0.4c5.1,0,8.7,0.7,10.5,2.1
		c1.8,1.4,3.1,4.2,3.9,8.2l0.2,1.1h4.3V28L212.6,28L212.6,28z"/>
	<path class="st3" d="M214.6,29.9v0.7c1.8,0.1,3,0.4,3.8,0.8c1.5,0.8,2.3,2.3,2.3,4.5v33.1c0,2.2-0.7,3.7-2.2,4.5
		c-0.8,0.5-2.2,0.7-3.9,0.8V75h38.9c0.2-0.8,2.4-11.9,2.6-13.1h-0.9c-2.1,4.5-4.6,7.7-7.4,9.4c-2.8,1.7-6.5,2.6-11,2.6
		c-2.5,0-4.1-0.3-4.9-0.9c-0.9-0.6-1.4-1.8-1.4-3.4V52.5h0.5c4.1,0,6.9,0.9,8.5,2.6c1.5,1.6,2.5,4.3,3,8h0.7V41.2h-0.7
		c-0.8,3.7-1.8,6.3-3.2,7.8c-1.5,1.6-4.2,2.3-8.3,2.3h-0.5V34.9c0-1.5,0.3-2.5,1.1-3c0.7-0.5,2.1-0.8,4.3-0.8
		c5.7,0,9.5,0.8,11.7,2.5c2.1,1.6,3.6,4.7,4.5,8.9h0.7V29.9L214.6,29.9L214.6,29.9z"/>
	<path class="st2" d="M258.3,28v4.5l1.3,0.1c2.9,0.2,3.6,0.7,3.7,0.8c0.3,0.2,1,1.1,1,4v30.3c0,2.9-0.6,3.7-0.8,3.9
		c-0.3,0.3-1.2,0.8-3.8,0.9l-1.4,0.1V77H284v-4.5l-1.4-0.1c-2.7-0.1-3.5-0.7-3.7-0.9c-0.3-0.3-0.8-1.1-0.8-3.9v-9.2
		C281.7,63.1,292,77,292,77h16.4v-4.3l-1.3-0.1c-0.5,0-0.9-0.1-1.1-0.2c-0.1,0-0.3-0.2-0.6-0.6c0,0-9.9-13.3-13.4-17.9
		c1.9-0.6,3.7-1.4,5.5-2.7c3.2-2.4,4.9-5.8,4.9-9.9c0-5.7-3.1-9.6-9.2-11.8c-3-1-6.9-1.5-11.5-1.5L258.3,28L258.3,28z M278.1,34.6
		c0-0.4,0.1-0.9,0.3-1.2c0,0,0.5-0.4,2.7-0.4c2.8,0,4.6,1,5.7,3.1c0.6,1.3,1,3.2,1,5.7c0,3.7-0.8,6.2-2.2,7.1
		c-1.5,0.9-4,1.5-7.5,1.6L278.1,34.6L278.1,34.6z"/>
	<path class="st3" d="M260.3,29.9v0.7c2.1,0.2,3.5,0.6,4.2,1.2c1.1,0.9,1.7,2.7,1.7,5.6v30.3c0,2.7-0.5,4.5-1.4,5.4
		c-0.9,0.8-2.4,1.2-4.5,1.4V75h21.8v-0.7c-2.2-0.2-3.8-0.6-4.6-1.5c-0.9-1-1.3-2.7-1.3-5.2v-33c0-1.2,0.4-2.1,1.1-2.7
		c0.7-0.6,1.9-0.8,3.9-0.8c3.6,0,6.1,1.4,7.5,4.2c0.8,1.6,1.2,3.8,1.2,6.5c0,4.6-1,7.4-3.2,8.8c-2,1.3-5.3,1.9-9.9,2h-0.5
		c0.1,0.2,1,1.3,1,1.3S292.7,74.6,293,75h13.5v-0.6c-0.4-0.1-0.9-0.1-1.2-0.2c-0.5-0.2-1-0.6-1.5-1.2l-15.1-20.2l0.9-0.2
		c2.3-0.4,4.6-1.4,6.7-3c2.7-2,4.1-4.8,4.1-8.3c0-4.8-2.6-8.1-7.8-9.9c-2.7-0.9-6.4-1.4-10.9-1.4L260.3,29.9L260.3,29.9z"/>
	<path class="st2" d="M306,28l-0.1,16.6h4.7l0.1-1.3c0.4-4.4,1.9-7.3,4.8-8.9c1.3-0.7,3.2-1.1,5.6-1.3v34.5c0,2.8-0.6,3.7-0.9,4
		c-0.3,0.3-1.2,0.9-4.4,0.9h-1.4V77h27.2v-4.6h-1.4c-3.3,0-4.2-0.6-4.5-0.9c-0.3-0.2-0.9-1.1-0.9-4V33.1c2.4,0.2,4.3,0.6,5.6,1.3
		c2.6,1.5,4.2,4.5,4.8,9l0.2,1.2h4.6L349.9,28L306,28L306,28z"/>
	<path class="st3" d="M307.9,29.9c0,1,0,11.6,0,12.6h0.9c0.5-4.8,2.4-8.1,5.8-9.9c1.8-1,4.5-1.5,7.9-1.6l0.6,0v36.6
		c0,2.7-0.5,4.5-1.5,5.4c-0.9,0.9-2.7,1.3-5.2,1.4V75h23.3v-0.6c-2.6,0-4.4-0.5-5.3-1.4c-1-1-1.5-2.7-1.5-5.4V31l0.6,0
		c3.5,0.1,6.1,0.6,7.9,1.6c3.1,1.8,5,5.1,5.7,9.9h0.9c0-1,0-11.6,0-12.6H307.9z"/>
	<path class="st2" d="M378.2,11.5c-0.5,0.4-1,0.8-1.4,1.4L366.1,26h7l9.5-6.3c1-0.6,1.7-1.2,2.2-1.8c0.7-0.8,1-1.8,1-3
		c0-1.2-0.4-2.3-1.2-3.1c-0.8-0.9-1.9-1.3-3.3-1.3C380.2,10.5,379.1,10.8,378.2,11.5 M350.8,28v4.5l1.3,0.1c2.3,0.1,3.2,0.4,3.5,0.6
		c0.6,0.3,1.2,0.9,1.2,2.8v33.1c0,1.9-0.7,2.5-1.2,2.8c-0.4,0.2-1.3,0.5-3.6,0.6l-1.4,0.1V77h42.5l3.4-17h-4.5l-0.4,0.8
		c-2,4.4-4.3,7.3-6.8,8.9c-2.5,1.5-5.9,2.3-10,2.3c-2.8,0-3.6-0.4-3.8-0.5c-0.5-0.3-0.5-1.2-0.5-1.8V54.6c2.7,0.2,4.6,0.8,5.7,1.9
		c1.3,1.4,2.2,3.9,2.6,7.4l0.1,1.2h4.4V39.2h-4.3l-0.2,1.1c-0.8,4.5-2,6.4-2.8,7.3c-0.9,1-2.9,1.5-5.5,1.6V34.9c0-1,0.2-1.4,0.3-1.5
		c0,0,0.6-0.4,3.1-0.4c5.1,0,8.6,0.7,10.4,2.1c1.8,1.4,3.1,4.2,3.9,8.2l0.2,1.1h4.3V28L350.8,28L350.8,28z"/>
	<path class="st3" d="M379.3,13.1L379.3,13.1c-0.4,0.3-0.7,0.6-1,1c0,0-5.9,7.3-8,9.9h2.2c0.3-0.2,9-6,9-6c0.8-0.5,1.4-1,1.9-1.5
		c0.3-0.4,0.5-1,0.5-1.7c0-0.7-0.2-1.3-0.7-1.7c-0.4-0.5-1.1-0.7-1.8-0.7C380.6,12.4,380,12.7,379.3,13.1 M352.8,29.9v0.7
		c1.8,0.1,3.1,0.4,3.9,0.8c1.5,0.8,2.3,2.3,2.3,4.5V69c0,2.2-0.7,3.7-2.2,4.5c-0.8,0.5-2.1,0.7-3.9,0.8V75h39
		c0.2-0.8,2.3-11.9,2.6-13.1h-0.9c-2.1,4.5-4.6,7.7-7.4,9.4c-2.9,1.7-6.6,2.6-11,2.6c-2.5,0-4.1-0.3-4.9-0.9
		c-0.9-0.6-1.3-1.8-1.3-3.4V52.5h0.6c4,0,6.9,0.9,8.5,2.6c1.5,1.6,2.5,4.3,3.1,8h0.7V41.2h-0.7c-0.8,3.7-1.8,6.3-3.2,7.8
		c-1.5,1.6-4.2,2.3-8.3,2.3h-0.6V34.9c0-1.5,0.3-2.5,1.1-3c0.7-0.5,2.1-0.8,4.3-0.8c5.6,0,9.5,0.8,11.7,2.5c2.1,1.6,3.6,4.7,4.5,8.9
		h0.8V29.9L352.8,29.9L352.8,29.9z"/>
	<path class="st2" d="M200.6,89.7v4.5l1.3,0.1c2.3,0.1,3.2,0.4,3.5,0.6c0.5,0.3,1.3,0.9,1.3,2.8v33.1c0,1.9-0.7,2.5-1.2,2.8
		c-0.4,0.2-1.3,0.5-3.5,0.6l-1.4,0v4.5h42.5l3.4-17H242l-0.4,0.8c-2,4.4-4.3,7.3-6.8,8.9c-2.5,1.5-5.9,2.3-9.9,2.3
		c-2.8,0-3.6-0.4-3.8-0.5c-0.4-0.3-0.5-1.3-0.5-1.8v-15.1c2.7,0.2,4.6,0.8,5.7,1.9c1.3,1.4,2.2,3.9,2.6,7.4l0.2,1.2h4.4V101H229
		l-0.2,1.2c-0.9,4.5-2,6.4-2.8,7.3c-0.9,1-2.8,1.5-5.5,1.6V96.7c0-1,0.2-1.4,0.3-1.5c0,0,0.6-0.4,3.1-0.4c5.1,0,8.6,0.7,10.5,2.1
		c1.8,1.4,3.1,4.2,3.9,8.2l0.2,1.1h4.3V89.7L200.6,89.7C200.6,89.7,200.6,89.7,200.6,89.7z"/>
	<path class="st3" d="M202.6,91.7v0.7c1.8,0.1,3.1,0.4,3.8,0.8c1.5,0.8,2.2,2.3,2.2,4.5v33.1c0,2.2-0.7,3.7-2.2,4.5
		c-0.8,0.5-2.2,0.7-3.9,0.8v0.7h38.9c0.2-0.8,2.4-11.9,2.6-13.1h-0.8c-2.2,4.5-4.6,7.7-7.4,9.4c-2.8,1.7-6.5,2.6-11,2.6
		c-2.5,0-4.1-0.3-4.9-0.9c-0.9-0.6-1.4-1.8-1.4-3.4v-17.1h0.6c4,0,6.9,0.9,8.5,2.6c1.5,1.6,2.5,4.3,3.1,8h0.7V103h-0.7
		c-0.7,3.7-1.8,6.3-3.2,7.8c-1.5,1.6-4.2,2.3-8.3,2.3l-0.5,0V96.7c0-1.5,0.3-2.5,1.1-3c0.7-0.5,2-0.8,4.3-0.8
		c5.7,0,9.5,0.8,11.7,2.6c2.1,1.6,3.6,4.7,4.5,8.9h0.7V91.7L202.6,91.7L202.6,91.7z"/>
	<path class="st2" d="M247,89.7l-0.1,16.6h4.7l0.1-1.3c0.4-4.4,1.9-7.3,4.8-8.9c1.3-0.7,3.2-1.1,5.6-1.3v34.5c0,2.8-0.6,3.7-0.9,4
		c-0.3,0.3-1.3,0.9-4.4,0.9h-1.4v4.6h27.2v-4.6h-1.4c-3.3,0-4.2-0.6-4.5-0.8c-0.2-0.3-0.9-1.1-0.9-4V94.8c2.4,0.2,4.3,0.6,5.6,1.3
		c2.6,1.5,4.3,4.5,4.9,9l0.2,1.2h4.6l-0.1-16.6L247,89.7L247,89.7z"/>
	<path class="st3" d="M248.9,91.7c0,1,0,11.6-0.1,12.6h0.9c0.5-4.8,2.5-8.1,5.8-9.9c1.9-1,4.5-1.6,8-1.6l0.6,0v36.6
		c0,2.7-0.5,4.5-1.5,5.4c-0.9,0.9-2.7,1.3-5.2,1.4v0.6h23.3v-0.6c-2.6-0.1-4.4-0.5-5.3-1.4c-1-0.9-1.5-2.7-1.5-5.4V92.7l0.6,0
		c3.5,0.1,6.2,0.6,8,1.6c3.1,1.8,5,5.1,5.7,9.9h0.9c0-1,0-11.7,0-12.6H248.9z"/>
	<path class="st2" d="M121.5,151.5v4.4l1.3,0.1c2.5,0.3,3.4,0.8,3.7,1c0.1,0.1,0.7,0.7,0.7,3.8v30.3c0,2.8-0.5,3.6-0.7,3.8
		c-0.2,0.2-1.1,0.8-3.6,1l-1.3,0.1v4.5H147V196l-1.4-0.1c-2.5-0.1-3.4-0.6-3.8-0.9c-0.2-0.2-0.8-1-0.8-3.9v-11.4
		c3.4,0,6.1-0.1,7.9-0.3c2.2-0.2,4.4-0.8,6.6-1.6c3-1.3,5.2-3.1,6.6-5.3c1.3-2.2,2-4.6,2-7.1c0-5.1-1.7-8.8-5.2-10.9
		c-3.2-2-8-3-14-3L121.5,151.5L121.5,151.5L121.5,151.5z M141.1,157.6c0-0.3,0.1-0.6,0.2-0.7c0.2-0.1,0.7-0.3,2.2-0.3
		c2.4,0,4,0.7,4.8,2.2c0.9,1.7,1.4,4,1.4,6.9c0,4.1-0.9,6.7-2.6,7.8c-0.7,0.4-2.3,1-6,1.2L141.1,157.6L141.1,157.6z"/>
	<path class="st3" d="M123.5,153.5v0.7c2.1,0.3,3.5,0.7,4.3,1.4c0.9,0.8,1.4,2.5,1.4,5.3v30.3c0,2.6-0.4,4.3-1.3,5.2
		c-0.8,0.8-2.2,1.3-4.4,1.5v0.7H145v-0.6c-2.1-0.2-3.6-0.6-4.5-1.4c-0.9-0.9-1.4-2.6-1.4-5.3v-13.3h0.6c4,0,7.1-0.1,9.2-0.3
		c2-0.2,4-0.7,6.1-1.5c2.6-1.1,4.5-2.7,5.6-4.5c1.1-1.9,1.7-3.9,1.7-6c0-4.4-1.4-7.5-4.3-9.3c-2.9-1.8-7.3-2.7-13-2.7L123.5,153.5
		C123.5,153.5,123.5,153.5,123.5,153.5z M139.1,157.6c0-1.2,0.4-2,1.2-2.4c0.7-0.4,1.7-0.6,3.2-0.6c3.2,0,5.4,1.1,6.5,3.2
		c1.1,2,1.6,4.6,1.6,7.8c0,4.8-1.2,7.9-3.5,9.4c-1.5,0.9-4.2,1.4-8.4,1.5h-0.6L139.1,157.6L139.1,157.6z"/>
	<path class="st2" d="M180.7,150.5l-15.5,38.3c-1.4,3.5-2.2,4.9-2.6,5.5c-0.8,1.1-1.7,1.6-2.9,1.7l-1.3,0.1v4.5h16.8V196l-1.4,0
		c-1.8,0-2.7-0.2-3.1-0.3c-1-0.3-1-0.7-1-0.8c0-0.4,0.1-1.3,0.8-3.4c0,0,1-2.9,1.6-4.4h13.4c0.4,1.1,1.4,3.3,1.4,3.3l0.9,2.3
		c0.4,1.3,0.5,1.8,0.5,2c0,0.6-0.1,0.9-0.2,0.9c-0.3,0.1-1.1,0.4-3.9,0.5l-1.4,0.1v4.5h25V196l-1.5,0c-1.1,0-1.9-0.3-2.4-1.1
		c-0.5-0.7-1.6-2.6-3.7-7.5l-15.6-36.8L180.7,150.5L180.7,150.5C180.7,150.5,180.7,150.5,180.7,150.5z M178.6,170.3
		c1.3,3.1,3.7,8.9,4.7,11.3h-9.1C175.1,179.2,177.4,173.5,178.6,170.3"/>
	<path class="st3" d="M182,152.5c-0.3,0.7-15,37.1-15,37.1c-1.2,3-2.2,5-2.8,5.9c-1,1.4-2.3,2.1-3.9,2.4v0.7h12.8v-0.6
		c-1.3,0-2.4-0.2-3.1-0.4c-1.9-0.7-2.4-1.8-2.4-2.7c0-0.9,0.3-2.2,0.9-4c0,0,2.1-5.7,2.1-5.7h0.4h15.7l1.9,4.5l0.9,2.4
		c0.4,1.2,0.5,2,0.5,2.6c0,1.4-0.5,2.4-1.4,2.7c-0.7,0.3-2,0.5-4,0.6v0.6h21v-0.6c-1.5-0.1-2.7-0.7-3.5-1.9
		c-0.9-1.2-2.2-3.8-3.9-7.9c0,0-13.6-32.2-15.1-35.6L182,152.5C182,152.5,182,152.5,182,152.5z M177.9,166.6h1.2l7.1,17h-15
		L177.9,166.6z"/>
	<path class="st2" d="M203.3,151.5l-0.1,16.6h4.7l0.1-1.3c0.4-4.4,1.9-7.3,4.8-8.9c1.3-0.7,3.2-1.1,5.6-1.3v34.5
		c0,2.8-0.6,3.7-0.9,4c-0.3,0.3-1.3,0.9-4.4,0.9h-1.4v4.5h27.2V196h-1.4c-3.2,0-4.2-0.6-4.5-0.9c-0.3-0.2-0.9-1.1-0.9-4v-34.5
		c2.4,0.2,4.3,0.6,5.6,1.3c2.6,1.5,4.2,4.5,4.8,9l0.2,1.2h4.6l-0.1-16.6L203.3,151.5L203.3,151.5z"/>
	<path class="st3" d="M205.2,153.5c0,1,0,11.6,0,12.6h0.9c0.5-4.8,2.5-8.1,5.8-9.9c1.9-1,4.5-1.6,7.9-1.7l0.6,0v36.6
		c0,2.7-0.5,4.4-1.5,5.4c-0.9,0.9-2.7,1.3-5.2,1.4v0.6h23.3V198c-2.6-0.1-4.4-0.5-5.3-1.4c-1-0.9-1.5-2.7-1.5-5.4v-36.6l0.6,0
		c3.5,0.1,6.2,0.6,8,1.7c3.1,1.8,5,5.1,5.7,9.9h0.9c0-1-0.1-11.6-0.1-12.6H205.2z"/>
	<path class="st2" d="M248.3,151.5v4.4l1.3,0.1c2.9,0.3,3.5,0.7,3.7,0.8c0.3,0.2,1,1.1,1,4v30.3c0,3-0.6,3.7-0.8,3.9
		c-0.3,0.3-1.3,0.8-3.8,0.9l-1.3,0.1v4.5H274V196l-1.4-0.1c-2.7-0.1-3.5-0.7-3.7-0.9c-0.2-0.3-0.8-1.1-0.8-3.9V182
		c3.5,4.8,13.9,18.6,13.9,18.6h16.4v-4.4l-1.3-0.1c-0.5,0-0.9-0.1-1.1-0.2c-0.1,0-0.3-0.1-0.6-0.5c0,0-9.9-13.3-13.4-17.9
		c1.9-0.6,3.7-1.4,5.5-2.7c3.2-2.4,4.9-5.8,4.9-9.9c0-5.7-3.1-9.6-9.1-11.8c-3-1-6.9-1.5-11.5-1.5L248.3,151.5L248.3,151.5z
		 M268.1,158.2c0-0.4,0.1-0.9,0.3-1.2c0,0,0.5-0.4,2.7-0.4c2.8,0,4.6,1,5.7,3.1c0.6,1.3,1,3.2,1,5.7c0,3.7-0.8,6.2-2.2,7.1
		c-1.5,0.9-4,1.4-7.5,1.6C268.1,174.1,268.1,158.2,268.1,158.2z"/>
	<path class="st3" d="M250.2,153.5v0.7c2.1,0.2,3.5,0.6,4.2,1.2c1.2,0.9,1.7,2.7,1.7,5.6v30.3c0,2.7-0.5,4.5-1.4,5.4
		c-0.9,0.8-2.4,1.2-4.5,1.4v0.7H272v-0.6c-2.2-0.2-3.7-0.6-4.6-1.5c-0.9-0.9-1.3-2.7-1.3-5.2v-33c0-1.2,0.3-2.2,1.1-2.7
		c0.7-0.5,1.9-0.8,4-0.8c3.6,0,6.1,1.4,7.5,4.2c0.8,1.6,1.2,3.8,1.2,6.5c0,4.6-1,7.5-3.2,8.8c-2,1.2-5.3,1.9-9.9,2c0,0-0.4,0-0.5,0
		c0.1,0.2,1,1.3,1,1.3s15.5,20.7,15.8,21.1h13.4V198c-0.4-0.1-0.9-0.1-1.2-0.2c-0.5-0.2-1-0.6-1.5-1.3l-15.1-20.2l0.9-0.2
		c2.3-0.4,4.6-1.4,6.7-3c2.7-2,4.1-4.8,4.1-8.3c0-4.8-2.6-8.1-7.8-9.9c-2.7-0.9-6.4-1.4-10.9-1.4L250.2,153.5L250.2,153.5z"/>
	<path class="st2" d="M297.6,151.5v4.5l1.3,0c2.4,0.1,3.3,0.4,3.7,0.6c0.5,0.3,1.2,0.9,1.2,2.8v33.1c0,1.9-0.7,2.6-1.3,2.8
		c-0.4,0.2-1.3,0.5-3.5,0.5l-1.4,0v4.5h26.7V196h-1.4c-2.3,0-3.5-0.4-4.1-0.8c-0.6-0.4-0.9-1.2-0.9-2.6v-33.1c0-1.9,0.7-2.5,1.2-2.8
		c0.3-0.2,1.3-0.5,3.8-0.6l1.4,0v-4.5L297.6,151.5L297.6,151.5z"/>
	<path class="st3" d="M299.6,153.5v0.7c1.8,0.1,3.2,0.4,3.9,0.8c1.5,0.8,2.3,2.3,2.3,4.5v33.1c0,2.2-0.8,3.8-2.4,4.6
		c-0.8,0.4-2.2,0.6-3.8,0.7v0.6h22.8v-0.6c-1.9-0.1-3.5-0.4-4.5-1c-1.2-0.8-1.9-2.2-1.9-4.3v-33.1c0-2.2,0.8-3.8,2.3-4.6
		c0.8-0.4,2.2-0.6,4.1-0.7v-0.7L299.6,153.5L299.6,153.5z"/>
	<path class="st2" d="M324.1,151.5v4.5l1.3,0.1c2.3,0.1,3.2,0.5,3.5,0.6c0.6,0.3,1.3,0.9,1.3,2.8v33.1c0,1.9-0.7,2.5-1.2,2.8
		c-0.4,0.2-1.3,0.5-3.6,0.6l-1.4,0.1v4.5h42.6l3.3-17h-4.5l-0.4,0.8c-2,4.4-4.3,7.3-6.8,8.9c-2.5,1.5-5.9,2.3-9.9,2.3
		c-2.8,0-3.6-0.4-3.8-0.5c-0.5-0.3-0.5-1.3-0.5-1.8v-15.1c2.7,0.2,4.6,0.8,5.7,1.9c1.3,1.4,2.2,3.9,2.6,7.4l0.2,1.2h4.4v-25.9h-4.3
		l-0.2,1.2c-0.8,4.5-2,6.4-2.8,7.3c-0.9,1-2.8,1.5-5.5,1.6v-14.4c0-1,0.2-1.4,0.3-1.5c0,0,0.6-0.4,3.1-0.4c5.1,0,8.6,0.7,10.5,2.1
		c1.8,1.4,3.1,4.2,3.9,8.2l0.3,1.1h4.3v-16.6L324.1,151.5L324.1,151.5L324.1,151.5z"/>
	<path class="st3" d="M326.1,153.5v0.7c1.8,0.1,3.1,0.4,3.8,0.8c1.5,0.8,2.3,2.3,2.3,4.5v33.1c0,2.2-0.7,3.7-2.2,4.5
		c-0.8,0.5-2.2,0.7-3.9,0.8v0.7h39c0.2-0.8,2.4-11.9,2.6-13.1h-0.8c-2.1,4.5-4.6,7.7-7.4,9.4c-2.8,1.7-6.5,2.6-11,2.6
		c-2.5,0-4.1-0.3-4.9-0.9c-0.9-0.6-1.4-1.8-1.4-3.4v-17.1h0.6c4,0,6.9,0.9,8.5,2.6c1.5,1.6,2.5,4.3,3,8h0.7v-21.9h-0.7
		c-0.8,3.7-1.8,6.3-3.2,7.8c-1.5,1.6-4.2,2.3-8.3,2.3h-0.6v-16.4c0-1.5,0.4-2.5,1.1-3c0.7-0.5,2.1-0.8,4.3-0.8
		c5.6,0,9.5,0.8,11.6,2.6c2.1,1.6,3.6,4.7,4.5,8.9h0.7v-12.6L326.1,153.5L326.1,153.5L326.1,153.5z"/>
	<g>
		<path class="st4" d="M43.4,234.2h405.7 M246.1,0h203v298.4c0,107.2-90.8,194.1-202.8,194.1c-112,0-202.8-86.9-202.8-194.1V0H246.1
			z"/>
	</g>
</g>
</svg>
