<?xml version="1.0" encoding="utf-8"?>
<!-- Generator: Adobe Illustrator 25.0.1, SVG Export Plug-In . SVG Version: 6.00 Build 0)  -->
<svg version="1.1" id="Ebene_1" xmlns="http://www.w3.org/2000/svg" xmlns:xlink="http://www.w3.org/1999/xlink" x="0px" y="0px"
	 viewBox="0 0 492.5 492.5" style="enable-background:new 0 0 492.5 492.5;" xml:space="preserve">
<style type="text/css">
	.st0{fill:#FFFFFF;}
	.st1{fill:#E8423F;}
	.st2{fill:#16A74E;}
	.st3{clip-path:url(#SVGID_2_);fill:none;stroke:#010202;stroke-width:3.048;}
</style>
<g>
	<g>
		<g>
			<g>
				<g>
					<path class="st0" d="M246.1,1.6h201.7v296.5c0,106.5-90.2,192.9-201.6,192.9c-111.3,0-201.6-86.4-201.6-192.9V1.6H246.1z"/>
				</g>
			</g>
		</g>
	</g>
	<g>
		<g>
			<g>
				<g>
					<path class="st1" d="M317.1,1.7v477c76.1-27.4,130.3-97.5,130.7-179.8V1.7L317.1,1.7L317.1,1.7z"/>
				</g>
			</g>
		</g>
	</g>
	<g>
		<g>
			<g>
				<g>
					<path class="st2" d="M44.6,1.7v296.3c0,85.4,58,157.8,138.4,183.2V1.7L44.6,1.7L44.6,1.7z"/>
				</g>
			</g>
		</g>
	</g>
	<g>
		<g>
			<g>
				<g>
					<polygon class="st0" points="436.5,59.9 389.3,59.9 389.3,12.5 375.3,12.5 375.3,59.9 329,59.9 329,73.9 375.3,73.9 
						375.3,119.8 389.3,119.8 389.3,73.9 436.5,73.9 					"/>
				</g>
			</g>
		</g>
	</g>
	<g>
		<g>
			<g>
				<g>
					<g>
						<g>
							<g>
								<g>
									<g>
										<g>
											<g>
												<defs>
													<rect id="SVGID_1_" x="43.1" width="406.2" height="492.5"/>
												</defs>
												<clipPath id="SVGID_2_">
													<use xlink:href="#SVGID_1_"  style="overflow:visible;"/>
												</clipPath>
												<path class="st3" d="M246.1,1.5h201.7V298c0,106.6-90.2,192.9-201.6,192.9C134.9,491,44.6,404.6,44.6,298V1.5H246.1z"/>
											</g>
										</g>
									</g>
								</g>
							</g>
						</g>
					</g>
				</g>
			</g>
		</g>
	</g>
</g>
</svg>
