<?xml version="1.0" encoding="utf-8"?>
<!-- Generator: Adobe Illustrator 25.0.1, SVG Export Plug-In . SVG Version: 6.00 Build 0)  -->
<svg version="1.1" id="Ebene_1" xmlns="http://www.w3.org/2000/svg" xmlns:xlink="http://www.w3.org/1999/xlink" x="0px" y="0px"
	 viewBox="0 0 492.5 492.5" style="enable-background:new 0 0 492.5 492.5;" xml:space="preserve">
<style type="text/css">
	.st0{fill:#FFFFFF;}
	.st1{fill:#E8423F;}
	.st2{clip-path:url(#SVGID_2_);fill:none;stroke:#010202;stroke-width:3.048;}
	.st3{clip-path:url(#SVGID_4_);fill:none;stroke:#010202;stroke-width:3.048;}
	.st4{fill:#010202;}
	.st5{fill:none;stroke:#010202;stroke-width:3.048;stroke-miterlimit:10;}
</style>
<g>
	<path class="st0" d="M246.1,1.5h201.7V298c0,106.5-90.3,192.9-201.6,192.9c-111.3,0-201.6-86.4-201.6-192.9V1.5H246.1z"/>
	<rect x="246.2" y="1.5" class="st1" width="201.7" height="68.7"/>
	<rect x="246.1" y="140.3" class="st1" width="201.7" height="70.1"/>
	<path class="st1" d="M246.1,350.7h194.1c4.9-16.7,7.6-34.4,7.6-52.7v-17.4H246.1V350.7z"/>
	<path class="st1" d="M401.7,420.8H246.1v70.1h0.6C309.1,490.8,364.8,463.5,401.7,420.8"/>
	<g>
		<g>
			<g>
				<g>
					<g>
						<defs>
							<rect id="SVGID_1_" x="43.1" width="406.2" height="492.5"/>
						</defs>
						<clipPath id="SVGID_2_">
							<use xlink:href="#SVGID_1_"  style="overflow:visible;"/>
						</clipPath>
						<path class="st2" d="M246.1,210.5h201.7v-70.1H246.1V210.5z M401.7,420.8H246.1v70.1h0.6C309.1,490.8,364.8,463.5,401.7,420.8
							z M246.1,420.8h155.6c17.5-20.3,30.8-44.1,38.5-70.1H246.1V420.8z M246.1,350.7h194.1c4.9-16.7,7.6-34.4,7.6-52.7v-17.4H246.1
							V350.7z M246.1,280.6h201.7v-70.1H246.1V280.6z M447.8,70.2V1.5H246.1v68.7H447.8z M246.1,140.4h201.7V70.2H246.1V140.4z"/>
					</g>
				</g>
			</g>
		</g>
		<g>
			<g>
				<g>
					<g>
						<defs>
							<rect id="SVGID_3_" x="43.1" width="406.2" height="492.5"/>
						</defs>
						<clipPath id="SVGID_4_">
							<use xlink:href="#SVGID_3_"  style="overflow:visible;"/>
						</clipPath>
						<path class="st3" d="M246.1,1.5h201.7V298c0,106.5-90.3,192.9-201.6,192.9c-111.3,0-201.6-86.4-201.6-192.9V1.5H246.1z"/>
					</g>
				</g>
			</g>
		</g>
	</g>
	<path class="st1" d="M61.9,75.4c0,20.9,10,45.5,38,46.2c5.3,0.1,18.6-0.5,27.4-9.1c5.3-5.1,7.9-12.3,7.9-21.1
		c0-14.9-7.6-21.5-13.9-24.4c-7.7-3.5-16.8-3.1-22.1-1.6c1.7-4.4,5.9-11.5,20.3-12c5.8-0.2,14.1,1.3,20.7,9.4
		c7.9,9.7,15,31,3.9,77.3l-0.4,1.9h57.1l0-1.5c0.7-48.1-9.2-82.9-29.4-103.4c-16.9-17.2-36.3-19-43.8-19
		C62.6,17.9,61.9,74.8,61.9,75.4"/>
	<path class="st4" d="M127.6,16.4C93.4,16.4,77,32,69.2,45.1c-8.7,14.7-8.8,29.6-8.8,30.3c0,21.5,10.3,47,39.5,47.7h0.5l0.6,0
		c8.4,0,35.8-2.3,35.8-31.7c0-21.2-15-28.7-29.1-28.7c-1.8,0-3.8,0.1-5.7,0.4c2.4-3.7,7.1-7.9,17.6-8.2c0.3,0,0.6,0,0.9,0
		c5.3,0,12.9,1.6,18.8,9.2c7.5,9.5,14.2,30.4,3.3,75.6l-0.9,3.8h3.9h53.7h3l0-3c0.7-48.5-9.3-83.7-29.8-104.5
		C155.1,18.3,135.3,16.4,127.6,16.4 M63.4,75.4c0-2.4,1.3-55.9,64.2-55.9c14.2,0,71.5,6.7,71.7,115.7c0,1.7,0,3.5,0,5.3h-53.7
		c4-16.7,5.8-30.7,5.8-42.2c0-33.8-15-46.4-30.9-46.4c-0.3,0-0.6,0-1,0c-20.7,0.7-22.1,15.1-23,16.2c0.5-0.4,1.5-0.9,2.8-1.3
		c0.3-0.1,0.7-0.2,1-0.3c2-0.5,4.6-0.8,7.4-0.8c11.1,0,26,5,26,25.7c0,26-23.7,28.7-32.8,28.7c-0.4,0-0.7,0-1,0
		C73.5,119.4,63.4,96.3,63.4,75.4L63.4,75.4L63.4,75.4L63.4,75.4z"/>
	<rect x="133.7" y="146.2" class="st1" width="77.4" height="11.5"/>
	<rect x="133.7" y="146.2" class="st5" width="77.4" height="11.5"/>
	<rect x="133.7" y="177.9" class="st1" width="77.4" height="11.5"/>
	<rect x="133.7" y="177.9" class="st5" width="77.4" height="11.5"/>
	<rect x="118" y="162.1" class="st1" width="108.6" height="11.5"/>
	<rect x="118" y="162.1" class="st5" width="108.6" height="11.5"/>
	<polygon class="st1" points="145.3,368.4 111.3,408.1 137.6,194.1 206.8,194.1 233.3,408.1 199.1,368.6 172.3,453.7 	"/>
	<polygon class="st5" points="145.3,368.4 111.3,408.1 137.6,194.1 206.8,194.1 233.3,408.1 199.1,368.6 172.3,453.7 	"/>
</g>
</svg>
