<?xml version="1.0" encoding="utf-8"?>
<!-- Generator: Adobe Illustrator 25.0.1, SVG Export Plug-In . SVG Version: 6.00 Build 0)  -->
<svg version="1.1" id="Ebene_1" xmlns="http://www.w3.org/2000/svg" xmlns:xlink="http://www.w3.org/1999/xlink" x="0px" y="0px"
	 viewBox="0 0 492.5 492.5" style="enable-background:new 0 0 492.5 492.5;" xml:space="preserve">
<style type="text/css">
	.st0{fill:#FFD72E;}
	.st1{fill:#FFFFFF;}
	.st2{fill:#12080D;}
	.st3{fill:#E7423F;}
</style>
<g>
	<path class="st0" d="M246.1,1.5h201.7V298c0,106.7-90.2,193-201.6,193c-111.3,0-201.6-86.3-201.6-193l0-296.4L246.1,1.5L246.1,1.5z
		"/>
	<g>
		<path class="st1" d="M139.9,206.4c-1.3,0-2.4-0.9-2.7-2.3c-1.9-11.3-2.5-22.4-1.6-29.7c0.5-4.6,2.8-19.1,9.4-26.7
			c-1.1-1.7-2.6-4-3.8-6.7c-2.2-5.2-2.8-9.9-1.6-14.1c1.6-5.5,6-9.8,13.2-12.7c1.4-0.6,3,0.1,3.5,1.5s-0.1,3-1.5,3.5
			c-5.6,2.3-9,5.4-10.1,9.2c-1.4,4.7,0.6,10.8,5.7,17.9l0.1,0.1c0.8,1.1,0.6,2.7-0.4,3.6c-4.3,3.7-8,13.5-9.3,25
			c-0.8,6.8-0.2,17.3,1.6,28.2c0.2,1.5-0.8,2.9-2.2,3.1C140.2,206.4,140,206.4,139.9,206.4z M352.7,206.4c-0.1,0-0.3,0-0.4,0
			c-1.5-0.2-2.5-1.6-2.3-3.1c1.7-11.1,2.2-21.7,1.5-28.2c-1.3-11.4-5-21.3-9.4-25c-1.1-0.9-1.3-2.5-0.4-3.7
			c6.5-8.8,6.8-14.6,5.9-17.9c-1.1-3.9-4.5-7-10.1-9.3c-1.4-0.6-2-2.1-1.5-3.5c0.6-1.4,2.1-2,3.5-1.5c7.3,3,11.7,7.3,13.3,12.8
			c1.7,6-0.1,13-5.4,20.7c5.4,6.2,8.4,17.5,9.5,26.7c1.1,10.1-0.7,24.1-1.5,29.6C355.2,205.5,354,206.4,352.7,206.4z"/>
		<rect x="204.4" y="385.3" class="st1" width="82" height="3"/>
		<path class="st1" d="M191,331.2c-1.1,0-2.2-0.7-2.6-1.9c-0.5-1.4,0.3-2.9,1.8-3.4c3.2-1,14.3-10.2,16-13.6c3.2-6.6,4-18,4.1-19.1
			L210,207l-66.1-45.5c-1.2-0.8-1.5-2.5-0.7-3.8c0.8-1.2,2.5-1.5,3.8-0.7l68.4,47.1l0.3,89.1l0,0.1c0,0.5-0.8,13.3-4.6,21.2
			c-2.4,4.9-14.6,15-19.2,16.4C191.6,331.1,191.3,331.2,191,331.2z M300.6,331.2c-0.3,0-0.5,0-0.8-0.1c-4.6-1.5-16.9-11.5-19.2-16.4
			l0,0c-3.6-7.9-4.5-20.6-4.5-21.1l0-0.1l0-0.1l0.2-89l68.4-47.1c1.2-0.8,2.9-0.5,3.8,0.7c0.8,1.2,0.5,2.9-0.7,3.8l-66,45.5
			l-0.2,86.1c0.1,1.1,1,12.5,4,19.1c1.7,3.5,12.7,12.6,16,13.6c1.4,0.4,2.2,2,1.8,3.4C302.8,330.4,301.7,331.2,300.6,331.2z"/>
	</g>
	<g>
		<path d="M153,114.9c0,0-11.1-4.8-28.2-49c-17.1-44.2-44.9-39.6-45.1-39.6c-0.9,0.2-2.9,0.4-3.4,2.9c-0.5,2.6,1.6,3.7,2.2,3.9
			c0.6,0.3,16.9,4.5,24.3,50.3c8.2,50.8,35.8,63.3,41.6,64.8C130.3,121,153,114.9,153,114.9"/>
		<path d="M367.5,65.9c17.2-44.2,44.9-39.6,45.1-39.6c0.9,0.2,3,0.4,3.4,2.9c0.4,2.6-1.5,3.7-2.1,3.9c-0.6,0.3-17,4.5-24.5,50.3
			c-8.2,50.8-35.8,63.3-41.4,64.8c14-27.2-8.6-33.4-8.6-33.4"/>
		<path d="M350.4,154.3c0,0,10.7,20.2,4.5,49.4c0.9,1.4,12.7,11.6,33.7,4.9c21-6.7,22.1-31.1,40.4-37
			C417.3,152.1,391.1,127.3,350.4,154.3"/>
	</g>
	<path class="st1" d="M364.4,176.3c-0.1,0-0.1,0-0.2,0c-3.8-0.2-7.6-0.3-7.6-0.3v-3c0.2,0,4,0,7.8,0.3c0,0,0,0,0,0
		c1.2,0,6.1-2.3,10-4.2c7.9-3.8,17.7-8.5,23.7-8.5c9.7,0,26.2,8.2,26.9,8.5l-1.4,2.7c-0.2-0.1-16.5-8.2-25.5-8.2
		c-5.3,0-15.2,4.7-22.4,8.2C369.7,174.8,366.3,176.3,364.4,176.3z"/>
	<path d="M141.9,153.5c0,0-10.6,20.2-4.4,49.4c-0.8,1.4-12.6,11.6-33.7,4.9c-21.1-6.8-22.2-31.1-40.5-37
		C74.9,151.3,101.1,126.5,141.9,153.5"/>
	<path class="st1" d="M128,175.5c-1.9,0-5.4-1.6-11.6-4.6c-7.6-3.6-17-8.1-22.3-8.1c-9,0-25.3,8.1-25.5,8.2l-1.4-2.7
		c0.7-0.3,17.2-8.5,26.8-8.5c6,0,15.7,4.7,23.6,8.4c4.1,2,9.2,4.4,10.3,4.3c3.8-0.3,7.5-0.3,7.7-0.3l0,3c0,0-3.8,0-7.5,0.3
		C128.2,175.5,128.1,175.5,128,175.5z"/>
	<g>
		<path d="M204.5,388.3h81.9c0,0,1.5,14.8-9.9,14.8h-63.9C203.8,403.2,204.5,388.3,204.5,388.3"/>
		<path d="M143.3,160.8L211,207l0.2,86.5c0,0-1.8,11.4-5,20c-1.6,4.1-13.6,14-17.8,14c-2.4-0.2-11.5-27.3-16.6-36.5
			c-2.5-4.5-22.1-20.8-9.7-38.6C126.2,197.1,143.3,160.8,143.3,160.8"/>
		<path d="M348.6,160.8L280.8,207l-0.2,86.5c0,0,1.9,11.4,4.9,20c1.7,4.1,13.7,14,17.8,14c2.6-0.2,11.6-27.3,16.7-36.5
			c2.4-4.5,21.9-20.8,9.7-38.6C365.6,197.1,348.6,160.8,348.6,160.8"/>
	</g>
	<g>
		<path class="st1" d="M170.9,193.5c0,10.3,8.9,18.7,19.9,18.7c5.5,0,10.4-2.1,14-5.4l-31.6-22C171.8,187.4,170.9,190.4,170.9,193.5
			"/>
		<path d="M176.9,193.5c0,7.2,6.2,13.1,13.9,13.1c3.8,0,7.1-1.4,9.7-3.7l-22.1-15.3C177.5,189.4,176.9,191.4,176.9,193.5"/>
		<path class="st1" d="M320.5,193.5c0,10.3-8.8,18.7-20,18.7c-5.4,0-10.3-2.1-14-5.4l31.6-22C319.7,187.4,320.5,190.4,320.5,193.5"
			/>
		<path d="M314.5,193.5c0,7.2-6.2,13.1-14,13.1c-3.6,0-7.1-1.4-9.7-3.7l22.1-15.3C313.9,189.4,314.5,191.4,314.5,193.5"/>
		<path d="M310.6,334c-0.9-0.4-9,0.4-21.7-11.4c-3-3-8.4-9.7-8.6-10.9c-2.6-9.4-3.4-19.7-3.2-36.1c0.2-18.9,0-70.8,0-70.8l70.6-48.9
			c0,0-5.2-11-13.3-11.3c-4.1-0.2-68,0.1-88.5,0.2c-20.5-0.1-84.5-0.4-88.4-0.2c-8.2,0.4-13.4,11.3-13.4,11.3l70.6,48.9
			c0,0-0.2,51.9,0.1,70.8c0.2,16.3-0.6,26.6-3.2,36.1c-0.3,1.3-5.6,7.9-8.7,10.9c-12.5,11.8-20.6,10.9-21.6,11.4
			c-4.9,1.7-10.6,5.6-4.9,27.7c5.7,21.9,15.5,23.6,15.5,23.6h108.2c0,0,9.7-1.7,15.5-23.6C321.2,339.6,315.6,335.7,310.6,334"/>
		<path class="st1" d="M152.4,115c-6.4,2.5-10.8,6.4-12.6,11.3c-0.6,1.7-0.9,3.4-0.9,5.3c0,4.8,1.7,11.2,5.8,17
			c11.5,16.3,25.7,14.4,32.4,11.3c0,0,0,0,0,0c2.1,4.1,4.2,6.7,9,8.9c3.4,1.5,7.7,0.3,11.9-0.9c1.5-0.4,3.6-1,4.4-1.1
			c0.6,0.3,2,1.6,2.9,2.4c2.4,2.3,5.2,4.9,8.5,5.3c2.6,0.3,5.3-0.8,8.2-1.8c2.3-0.9,4.8-1.8,6.4-1.7c0,0,0.3,0,0.3,0
			c0,0,0.2,0.2,0.2,0.2c2.4,2,5.4,3.7,17,3.8c11.8-0.1,14.6-1.9,16.7-4v0l0.2,0c1.5-0.2,4.1,0.8,6.4,1.7c2.8,1.1,5.6,2.1,8.2,1.8
			c3.2-0.3,6-3,8.6-5.3c0.9-0.9,2.1-2.1,2.8-2.4c0.9,0,3,0.6,4.5,1.1c4.1,1.2,8.6,2.4,11.8,0.9c4.7-2.1,6.9-4.8,9-8.9v0
			c4.1,1.7,20.6,5.1,33.3-11.3c3.9-5,4.9-12.2,4.9-17c0-1.8-0.2-3.5-0.9-5.2c-1.9-5.9-7.1-9.3-12-11.3"/>
		<path d="M334.9,117.4c0.6-1.6,0.9-3.4,0.9-5.2c0-9.6-7.9-17.3-17.6-17.3c-2.4,0-4.3,0.4-6.4,1.1c-2.1-6.9-8.8-11.9-16.7-11.9
			c-3.9,0-7.5,1.3-10.5,3.5c-3.2-4.9-8.6-8.2-14.8-8.2c-3.9,0-7.3,1.2-10.3,3.3c-3.7,2.7-13-3.1-13-3.1s-11.5,4.9-16.4,2.1
			c-2.6-1.4-5.5-2.3-8.7-2.3c-6.1,0-11.4,3.1-14.5,7.8c-2.9-2.1-6.4-3.3-10.2-3.3c-7.7,0-14.3,5.1-16.5,12.1c-2-0.8-4.2-1.3-6.5-1.3
			c-9.6,0-17.4,7.7-17.4,17.3c0,1.8,0.3,3.6,0.8,5.3c-7.4,2.1-22,10.1-8.6,29.1c13.4,19,28,9.2,28,9.2s2.4-1.3,4.3,2.2
			c1.8,3.5,3.3,5.4,7.1,7c3.7,1.7,12.8-3.2,15.8-2.2c3,0.9,7.2,7.3,10.8,7.6c3.5,0.4,9.9-3.9,14.5-3.5c4.7,0.4,0.5,3.9,17.3,4.1
			c16.7-0.2,11.9-3.7,16.4-4.1c4.7-0.4,10.9,3.9,14.6,3.5c3.4-0.4,7.7-6.7,10.7-7.6c3-0.9,12,3.9,15.9,2.2c3.6-1.7,5.2-3.5,7.1-7
			c1.7-3.5,4.1-2.2,4.1-2.2s15.5,9.5,28.8-9.4C356.8,127.5,342.4,119.6,334.9,117.4"/>
		<path class="st2" d="M218,361.3c1.4,2.8,0.5,6-1.9,7.1l-3.9,1.9c-2.4,1.3-5.5,0-6.9-2.6l-7.9-15.7c-1.4-2.8-0.5-6,1.9-7.3l3.9-1.9
			c2.4-1.1,5.5,0,6.9,2.8L218,361.3L218,361.3z"/>
		<path class="st2" d="M273.1,361.3c-1.3,2.8-0.6,6,1.9,7.1l3.9,1.9c2.4,1.3,5.6,0,6.9-2.6l7.9-15.7c1.3-2.8,0.4-6-1.9-7.3l-4.1-1.9
			c-2.4-1.1-5.4,0-6.7,2.8L273.1,361.3z"/>
	</g>
	<path class="st1" d="M280.9,372.3c-1,0-1.9-0.2-2.7-0.7l-3.8-1.9c-1.4-0.6-2.5-1.7-3-3.1c-0.7-1.8-0.6-4,0.3-6l0-0.1l7.9-15.6
		c1.6-3.4,5.4-5,8.7-3.5l0,0l4.2,2c3.1,1.7,4.2,5.8,2.6,9.3l0,0.1l-7.9,15.7c-0.9,1.7-2.4,3-4.3,3.6
		C282.2,372.2,281.5,372.3,280.9,372.3z M274.5,362c-0.6,1.2-0.6,2.5-0.2,3.6c0.3,0.7,0.7,1.2,1.4,1.5l0.1,0l3.9,2
		c0.7,0.4,1.5,0.4,2.3,0.2c1-0.3,2-1.1,2.4-2.1l7.9-15.7c0.9-2,0.4-4.4-1.3-5.3l-4-1.9c-1.5-0.7-3.6-0.1-4.6,2l0,0.1L274.5,362z
		 M210.1,372.3c-0.6,0-1.3-0.1-1.9-0.3c-1.8-0.6-3.4-1.9-4.3-3.6l0,0l-7.9-15.7c-1.7-3.6-0.6-7.6,2.5-9.3l0,0l4-2
		c3.3-1.5,7.2,0.1,8.9,3.5l7.9,15.7c0.9,1.9,1,4,0.4,5.8c-0.6,1.5-1.6,2.7-3,3.3l-3.9,1.9C212,372.1,211,372.3,210.1,372.3z
		 M206.6,367c0.5,1,1.4,1.8,2.5,2.1c0.6,0.2,1.4,0.3,2.3-0.2l0,0l4-2c0.8-0.4,1.2-1.1,1.4-1.6c0.4-1,0.3-2.3-0.3-3.4l-7.9-15.7
		c-1.1-2.2-3.3-2.8-4.9-2.1l-3.9,1.9c-1.7,0.9-2.2,3.2-1.2,5.3L206.6,367z"/>
	<path class="st3" d="M279.9,353.1c3.6-5.8,4.7-5.6,4.9-5.6c14.6,10.9,24.3,28.1,24.3,47.2c0,33.1-28.5,59.9-63.5,59.9
		c-35.1,0-63.5-26.8-63.5-59.9c0-19.1,9.5-36.3,24.2-47.2c0.5-0.2,2.6-1.3,4.8,5.8c2.3,7.1,2.2,8.2,2,8.4
		c-9.7,8.2-15.8,20-15.8,33.1c0,24.7,21.6,44.6,48.2,44.6c26.6,0,48.1-20,48.1-44.6c0-13.3-6.2-25.1-16.1-33.5
		C277.6,361.3,275.9,359.8,279.9,353.1"/>
	<path d="M245.6,456.2c-17.3,0-33.7-6.4-45.9-18c-12.3-11.6-19.1-27-19.1-43.4c0-9.6,2.3-18.8,6.8-27.4c4.3-8.2,10.5-15.5,18.1-21.1
		l0.1-0.1l0.1-0.1c0.9-0.4,1.8-0.4,2.7,0c1.7,0.8,3,2.9,4.3,6.8c1,3.2,1.7,5.5,2,6.9c0.3,1.4,0.3,2.3-0.3,2.9l-0.1,0.1l-0.1,0.1
		c-9.7,8.2-15.2,19.8-15.2,31.9c0,23.8,20.9,43.1,46.6,43.1c25.7,0,46.6-19.3,46.6-43.1c0-12.3-5.5-23.8-15.6-32.3l0,0
		c-0.8-0.7-2.2-3.1,2.1-10.1l0,0c3.7-5.9,5.2-6.3,6.2-6.3h0.5l0.4,0.3c7.5,5.6,13.7,12.9,18,21.1c4.5,8.6,6.8,17.8,6.8,27.4
		C310.7,428.6,281.5,456.2,245.6,456.2z M207.1,348.9c-14.9,11.1-23.5,27.9-23.5,45.9c0,32.2,27.8,58.4,62,58.4
		c34.2,0,62-26.2,62-58.4c0-17.4-8.6-34.3-22.9-45.5c-0.5,0.5-1.6,1.7-3.5,4.6c-2.6,4.3-2.5,6-2.5,6.4c10.6,9.1,16.4,21.3,16.4,34.5
		c0,12.4-5.2,24-14.5,32.7c-9.4,8.7-21.8,13.5-35.1,13.5c-13.2,0-25.7-4.8-35.1-13.5c-9.4-8.7-14.6-20.3-14.6-32.7
		c0-12.8,5.8-25.1,15.8-33.8c-0.1-0.7-0.5-2.5-2-7.2C208.4,349.5,207.2,348.9,207.1,348.9z"/>
	<path class="st3" d="M262.8,385.5c0.9,3.9,1.5,7.9,1.5,12.2c0,16.7-8.5,30.3-19.1,30.3c-10.6,0-19.1-13.5-19.1-30.3
		c0-4.3,0.6-8.4,1.6-12C237.3,385.8,259.1,385.5,262.8,385.5"/>
	<path d="M246.2,492.5c-27.4,0-54-5.1-79-15.3c-24.2-9.8-45.9-23.8-64.6-41.6c-18.7-17.9-33.3-38.7-43.5-61.8
		c-10.6-24-16-49.5-16-75.8l0-298l200.5,0l2.4,0h203.2v298c0,26.3-5.4,51.8-16,75.8c-10.2,23.2-24.9,44-43.5,61.8
		c-18.6,17.8-40.4,31.9-64.5,41.6C300.3,487.3,273.7,492.5,246.2,492.5z M46.2,3l0,294.9c0,105.6,89.7,191.5,200.1,191.5
		c110.3,0,200-85.9,200-191.5V3H248.6l0,0L46.2,3z M245.2,429.6c-5.7,0-10.9-3.4-14.8-9.6c-3.8-6-5.8-13.9-5.8-22.2
		c0-4.4,0.6-8.5,1.7-12.4l0.3-1.1h1.1c6,0,16.8-0.1,24.7-0.1c5,0,9-0.1,10.4-0.1h1.2l0.3,1.2c1.1,4.7,1.5,8.7,1.5,12.6
		c0,8.4-2.1,16.3-5.8,22.2C256.1,426.2,250.8,429.6,245.2,429.6z M228.8,387.3c-0.8,3.3-1.3,6.8-1.3,10.5c0,7.8,1.9,15.1,5.4,20.6
		c3.3,5.3,7.7,8.1,12.2,8.1c4.6,0,8.9-2.9,12.2-8.1c3.5-5.5,5.4-12.8,5.4-20.6c0-3.3-0.4-6.7-1.2-10.7c-1.9,0-5.2,0-9.1,0.1
		C245,387.2,235,387.3,228.8,387.3z"/>
</g>
</svg>
