<?xml version="1.0" encoding="utf-8"?>
<!-- Generator: Adobe Illustrator 25.0.1, SVG Export Plug-In . SVG Version: 6.00 Build 0)  -->
<svg version="1.1" id="Ebene_1" xmlns="http://www.w3.org/2000/svg" xmlns:xlink="http://www.w3.org/1999/xlink" x="0px" y="0px"
	 viewBox="0 0 492.5 492.5" style="enable-background:new 0 0 492.5 492.5;" xml:space="preserve">
<style type="text/css">
	.st0{fill:#FFFFFF;}
	.st1{fill:#DD3322;}
</style>
<g>
	<g>
		<path class="st0" d="M45.3,2.3v288c0,111,90,200.9,200.9,200.9s200.9-90,200.9-200.9V2.3H45.3z"/>
		<path d="M246.2,492.7c-54,0-104.8-21-143.1-59.3c-38.2-38.2-59.3-89-59.3-143.1V1h404.6v289.4c0,54-21,104.8-59.3,143.1
			C351.1,471.6,300.3,492.7,246.2,492.7z M46.7,3.7v286.7c0,110,89.5,199.6,199.6,199.6s199.6-89.5,199.6-199.6V3.7H46.7z"/>
	</g>
	<g>
		<path class="st1" d="M447.2,1.6H45.3v233.8h401.9V1.6z"/>
		<path d="M448.5,236.7H43.9V0.2h404.6V236.7z M46.7,234h399.1V3H46.7V234z"/>
	</g>
	<g>
		<path class="st0" d="M262.3,247.6V13.8h-32.1v233.8 M230.2,29.8H192v18.6h-12.2V29.8h-47.4v32.1h34.4v13.8h-34.4v32.1h47.4V89.4
			H192v18.3h18.3v13H192v18.3h-12.2v-18.3h-47.4v32.1h34.4v13.8h-34.4v32.1h47.4v-18.3H192v18.3h38.2"/>
		<path d="M263.7,247.6h-2.8V15.2h-29.3v232.4h-2.8v-47.5h-38.2v-18.3h-9.5v18.3H131v-34.8h34.4v-11H131v-34.8h50.1v18.3h9.5v-18.3
			H209v-10.2h-18.3V90.8h-9.5v18.3H131V74.3h34.4v-11H131V28.5h50.1V47h9.5V28.5h38.2v-16h34.8V247.6z M193.4,197.3h35.4V31.2h-35.4
			v18.6h-15V31.2h-44.6v29.3h34.4v16.5h-34.4v29.3h44.6V88.1h15v18.3h18.3v15.7h-18.3v18.3h-15v-18.3h-44.6v29.3h34.4V168h-34.4
			v29.3h44.6V179h15V197.3z"/>
	</g>
	<g transform="matrix(-1,0,0,1,530,0)">
		<g id="b">
			<g>
				<path id="a_1_" class="st1" d="M146.9,322.5c-13.8,23.7-8.4,47.4,10.7,58.1c19.1,10.7,27.5,0.8,26.7-16.8
					c12.2,13,3.8,32.9-8.4,35.9c-9.2,2.3-23.7-0.8-33.6-6.1c-27.5-15.3-36.7-55-18.3-84.8"/>
				<path d="M169,401.7c-8.5,0-19.1-2.6-27.3-7c-13-7.2-22.4-19.8-26.5-35.4c-4.5-17.4-1.8-36.1,7.6-51.3l2.3,1.4
					c-9,14.6-11.6,32.5-7.3,49.2c3.9,14.9,12.8,26.9,25.1,33.7c10.2,5.5,24.2,8.1,32.6,6c5.6-1.4,10.4-6.7,12.4-13.5
					c1.8-6.1,0.9-12.1-2.3-17.1c-0.3,8.1-2.9,14-7.4,16.8c-5.2,3.2-12.4,2.3-21.4-2.8c-9-5-15.1-12.7-17.7-22.4
					c-3.2-11.6-0.9-24.9,6.5-37.6l2.4,1.4c-7,12-9.2,24.6-6.2,35.5c2.4,8.9,8.1,16,16.4,20.7c7.9,4.4,14.4,5.4,18.6,2.8
					c4.3-2.7,6.5-9.2,6.1-18.4l-0.2-3.7l2.5,2.7c5.8,6.2,7.8,14.5,5.3,22.8c-2.3,7.7-7.9,13.7-14.4,15.3
					C174.1,401.5,171.7,401.7,169,401.7z"/>
			</g>
			<g>
				<path class="st1" d="M247,262.1h-26c-3.1,0-4.6-3.1-4.6-5.3v-16c0-2.3,1.5-5.3,4.6-5.3h26 M247,478.3c-28.3,0-51.2-13-61.9-35.1
					c-8.4-16.8-5.3-32.1-0.8-44.3c8.4-22.2,39-17.6,42,0.8c-11.5-7.6-25.2-8.4-27.5,8.4c-3.1,27.5,16.8,43.5,48.1,43.5 M246.2,262.1
					h-20.6c-6.9,0-16,5.3-13,16l11.5,39h22.2"/>
				<path d="M247,479.7c-28.7,0-52.3-13.4-63.1-35.9c-9.1-18.3-4.8-34.7-0.8-45.4c4.9-12.9,16.6-16.5,25-15.6
					c10.2,1,18.1,7.7,19.6,16.7l0.5,3.1l-2.6-1.8c-6.9-4.6-13.9-6.1-18.6-4c-3.7,1.7-6,5.5-6.8,11.5c-1.2,11.2,1.5,20.9,7.9,28.1
					c8,9,21.8,13.9,38.9,13.9v2.8c-17.8,0-32.4-5.3-40.9-14.8c-6.9-7.8-9.9-18.2-8.6-30.2c1.2-8.7,5.2-12.2,8.4-13.6
					c4.9-2.2,11.4-1.3,18.2,2.4c-2.7-6.8-9.8-10.5-16.3-11.2c-7.9-0.8-17.9,2.5-22.2,13.9c-3.8,10.2-8,25.9,0.7,43.2
					c10.4,21.5,33.1,34.4,60.7,34.4V479.7z M246.2,318.5h-23.2l-11.8-40c-1.6-5.7,0.1-9.6,1.8-11.9c1.3-1.7,3-3,4.9-4.1
					c-1.9-1.2-3-3.6-3-5.8v-16c0-3.2,2.3-6.7,6-6.7h26v2.8h-26c-2.2,0-3.2,2.4-3.2,4v16c0,1.6,1,4,3.2,4h26v2.8h-21.4
					c-3.3,0-7.8,1.5-10.3,4.8c-1.9,2.6-2.4,5.8-1.3,9.5l11.2,38h21.1V318.5z"/>
			</g>
			<g transform="matrix(.472 -.882 -.882 -.472 581 970)">
				<g>
					<path id="a_2_" class="st1" d="M146.7,322.8c14.4-23.3,37.8-29.8,56.3-18c18.4,11.8,13.7,23.9-2.2,31.5
						c17.2,4.7,30.8-12.1,27.7-24.4c-2.3-9.2-11.9-20.5-21.3-26.8c-26.5-17-65.8-6.4-83.5,23.9"/>
					<path d="M206.7,338.5c-2.1,0-4.2-0.3-6.2-0.8l-3.6-1l3.3-1.6c8.3-4,13-9,13.3-14.1c0.3-5-3.6-10.2-11.2-15.1
						c-8-5.1-17-6.7-26-4.7c-11,2.5-21.1,10.4-28.4,22.2l-2.3-1.4c7.7-12.5,18.4-20.8,30.1-23.5c9.7-2.2,19.4-0.5,28.1,5.1
						c8.7,5.5,12.9,11.4,12.5,17.5c-0.3,5.3-4.3,10.3-11.3,14.5c6,0.5,11.7-1.6,16.2-6.1c5-5,7.4-11.8,6-17.3
						c-2.1-8.4-11-19.5-20.7-26c-11.8-7.6-26.6-9.8-41.6-6.2c-16.7,4-31.3,14.8-39.9,29.6l-2.4-1.4c9-15.5,24.2-26.7,41.7-30.9
						c15.7-3.8,31.3-1.4,43.7,6.6c10.2,6.8,19.6,18.6,21.8,27.6c1.6,6.5-1,14.3-6.7,20C218.5,336.1,212.7,338.5,206.7,338.5z"/>
				</g>
			</g>
			<g>
				<path class="st1" d="M247,255.2h-30.6c-9.2,0-8.4-13,0-13H247"/>
				<path d="M247,256.6h-30.6c-3.1,0-5-1.3-6-2.4c-1.3-1.4-2-3.2-2-5.3c0-3.9,2.8-8.1,8-8.1H247v2.8h-30.6c-3.4,0-5.2,2.7-5.2,5.3
					c0,1.3,0.4,2.5,1.2,3.4c0.9,1,2.3,1.5,4,1.5H247V256.6z"/>
			</g>
			<g>
				<circle class="st1" cx="204.2" cy="369.1" r="13.9"/>
				<path d="M204.2,384.3c-8.4,0-15.3-6.9-15.3-15.3s6.9-15.3,15.3-15.3s15.3,6.9,15.3,15.3S212.6,384.3,204.2,384.3z M204.2,356.5
					c-6.9,0-12.5,5.6-12.5,12.5c0,6.9,5.6,12.5,12.5,12.5s12.5-5.6,12.5-12.5C216.7,362.1,211.1,356.5,204.2,356.5z"/>
			</g>
			<g>
				<circle class="st1" cx="166" cy="414.9" r="13.9"/>
				<path d="M166,430.2c-8.4,0-15.3-6.9-15.3-15.3s6.9-15.3,15.3-15.3s15.3,6.9,15.3,15.3S174.4,430.2,166,430.2z M166,402.4
					c-6.9,0-12.5,5.6-12.5,12.5c0,6.9,5.6,12.5,12.5,12.5s12.5-5.6,12.5-12.5C178.5,408,172.9,402.4,166,402.4z"/>
			</g>
		</g>
	</g>
	<g id="b_1_">
		<g>
			<path id="a_3_" class="st1" d="M345.6,322.5c13.8,23.7,8.4,47.4-10.7,58.1c-19.1,10.7-27.5,0.8-26.7-16.8
				c-12.2,13-3.8,32.9,8.4,35.9c9.2,2.3,23.7-0.8,33.6-6.1c27.5-15.3,36.7-55,18.3-84.8"/>
			<path d="M323.5,401.7c-2.7,0-5.1-0.3-7.3-0.8c-6.5-1.6-12.1-7.6-14.4-15.3c-2.4-8.3-0.5-16.6,5.3-22.8l2.5-2.7l-0.2,3.7
				c-0.4,9.2,1.8,15.7,6.1,18.4c4.2,2.6,10.6,1.6,18.6-2.8c8.3-4.6,14-11.8,16.4-20.7c3-10.9,0.8-23.5-6.2-35.5l2.4-1.4
				c7.4,12.7,9.7,26,6.5,37.6c-2.6,9.6-8.8,17.4-17.7,22.4c-9,5-16.2,6-21.4,2.8c-4.5-2.8-7.1-8.7-7.4-16.8
				c-3.2,5-4.1,11.1-2.3,17.1c2,6.8,6.9,12.1,12.4,13.5c8.4,2.1,22.4-0.5,32.6-6c12.3-6.8,21.2-18.8,25.1-33.7
				c4.4-16.6,1.7-34.6-7.3-49.2l2.3-1.4c9.4,15.2,12.2,33.9,7.6,51.3c-4.1,15.6-13.5,28.2-26.4,35.4
				C342.6,399.1,332,401.7,323.5,401.7z"/>
		</g>
		<g>
			<path class="st1" d="M245.5,262.1h26c3.1,0,4.6-3.1,4.6-5.3v-16c0-2.3-1.5-5.3-4.6-5.3h-26 M245.5,478.3
				c28.3,0,51.2-13,61.9-35.1c8.4-16.8,5.3-32.1,0.8-44.3c-8.4-22.2-39-17.6-42,0.8c11.5-7.6,25.2-8.4,27.5,8.4
				c3.1,27.5-16.8,43.5-48.1,43.5 M246.2,262.1h20.6c6.9,0,16,5.3,13,16l-11.5,39h-22.2"/>
			<path d="M245.5,479.7v-2.8c27.6,0,50.3-12.8,60.6-34.4c8.7-17.3,4.6-33,0.7-43.2c-4.3-11.4-14.3-14.6-22.2-13.9
				c-6.5,0.6-13.6,4.3-16.3,11.2c6.8-3.7,13.3-4.6,18.2-2.4c3.2,1.4,7.2,5,8.4,13.6c1.3,12.1-1.6,22.5-8.6,30.3
				c-8.6,9.6-23.1,14.8-40.9,14.8v-2.8c17,0,30.8-4.9,38.9-13.9c6.4-7.2,9.1-16.9,7.9-28.1c-0.8-5.9-3.1-9.8-6.8-11.4
				c-4.7-2.1-11.6-0.6-18.6,4l-2.6,1.8l0.5-3.1c1.5-8.9,9.4-15.6,19.6-16.7c8.5-0.8,20.2,2.7,25,15.6c4,10.7,8.3,27.1-0.8,45.4
				C297.7,466.3,274.1,479.7,245.5,479.7z M269.4,318.5h-23.2v-2.8h21.1l11.2-38c1.1-3.7,0.6-6.9-1.3-9.5c-2.5-3.3-7-4.8-10.3-4.8
				h-21.4v-2.8h26c2.2,0,3.2-2.4,3.2-4v-16c0-1.6-1-4-3.2-4h-26V234h26c3.7,0,6,3.5,6,6.7v16c0,2.2-1.1,4.6-3,5.8
				c2,1,3.7,2.4,4.9,4.1c1.7,2.3,3.4,6.2,1.8,11.9L269.4,318.5z"/>
		</g>
		<g transform="matrix(.472 -.882 -.882 -.472 581 970)">
			<g>
				<path id="a_4_" class="st1" d="M345.7,322.8c-14.4-23.3-37.8-29.8-56.3-18c-18.4,11.8-13.7,23.9,2.2,31.5
					c-17.2,4.7-30.8-12.1-27.7-24.4c2.3-9.2,11.9-20.5,21.3-26.8c26.5-17,65.8-6.4,83.5,23.9"/>
				<path d="M285.8,338.5c-6,0-11.8-2.4-16.4-6.9c-5.7-5.6-8.4-13.5-6.7-20c2.3-9,11.6-20.8,21.8-27.6c12.5-8,28-10.4,43.7-6.6
					c17.5,4.2,32.6,15.5,41.7,30.9l-2.4,1.4c-8.6-14.8-23.2-25.6-39.9-29.6c-15-3.6-29.8-1.4-41.6,6.2c-9.7,6.4-18.6,17.6-20.7,25.9
					c-1.4,5.6,1,12.4,6,17.3c4.5,4.4,10.3,6.5,16.2,6.1c-7-4.1-11-9.2-11.3-14.5c-0.4-6.1,3.8-12,12.5-17.5
					c8.6-5.5,18.4-7.3,28.1-5.1c11.7,2.7,22.4,11,30.1,23.5l-2.3,1.4c-7.3-11.8-17.4-19.7-28.4-22.2c-9-2-18-0.4-26,4.7
					c-7.7,4.9-11.5,10.1-11.2,15.1c0.3,5.1,5,10.1,13.3,14.1l3.3,1.6l-3.6,1C289.9,338.2,287.9,338.5,285.8,338.5z"/>
			</g>
		</g>
		<g>
			<path class="st1" d="M245.5,255.2H276c9.2,0,8.4-13,0-13h-30.6"/>
			<path d="M276,256.6h-30.6v-2.8H276c1.7,0,3.1-0.5,4-1.5c0.8-0.9,1.2-2.1,1.2-3.4c0-2.6-1.8-5.3-5.2-5.3h-30.6v-2.8H276
				c5.2,0,8,4.2,8,8.1c0,2-0.7,3.9-2,5.3C281,255.3,279.1,256.6,276,256.6z"/>
		</g>
		<g>
			<circle class="st1" cx="288.3" cy="369.1" r="13.9"/>
			<path d="M288.3,384.3c-8.4,0-15.3-6.9-15.3-15.3s6.9-15.3,15.3-15.3s15.3,6.9,15.3,15.3S296.7,384.3,288.3,384.3z M288.3,356.5
				c-6.9,0-12.5,5.6-12.5,12.5c0,6.9,5.6,12.5,12.5,12.5c6.9,0,12.5-5.6,12.5-12.5C300.8,362.1,295.2,356.5,288.3,356.5z"/>
		</g>
		<g>
			<circle class="st1" cx="326.5" cy="414.9" r="13.9"/>
			<path d="M326.5,430.2c-8.4,0-15.3-6.9-15.3-15.3s6.9-15.3,15.3-15.3s15.3,6.9,15.3,15.3S334.9,430.2,326.5,430.2z M326.5,402.4
				c-6.9,0-12.5,5.6-12.5,12.5c0,6.9,5.6,12.5,12.5,12.5c6.9,0,12.5-5.6,12.5-12.5C339,408,333.4,402.4,326.5,402.4z"/>
		</g>
	</g>
	<g>
		<ellipse class="st1" cx="246.2" cy="283.5" rx="16" ry="21.4"/>
		<path d="M246.2,306.3c-9.6,0-17.4-10.2-17.4-22.8c0-12.6,7.8-22.8,17.4-22.8c9.6,0,17.4,10.2,17.4,22.8
			C263.7,296,255.8,306.3,246.2,306.3z M246.2,263.5c-8.1,0-14.7,9-14.7,20s6.6,20,14.7,20s14.7-9,14.7-20S254.3,263.5,246.2,263.5z
			"/>
	</g>
	<g>
		<circle class="st1" cx="246.2" cy="325.5" r="18.9"/>
		<path d="M246.2,345.8c-11.2,0-20.2-9.1-20.2-20.2c0-11.2,9.1-20.2,20.2-20.2s20.2,9.1,20.2,20.2
			C266.5,336.7,257.4,345.8,246.2,345.8z M246.2,308c-9.6,0-17.5,7.8-17.5,17.5s7.8,17.5,17.5,17.5c9.6,0,17.5-7.8,17.5-17.5
			S255.9,308,246.2,308z"/>
	</g>
</g>
</svg>
