<?xml version="1.0" encoding="utf-8"?>
<!-- Generator: Adobe Illustrator 25.0.1, SVG Export Plug-In . SVG Version: 6.00 Build 0)  -->
<svg version="1.1" id="Ebene_1" xmlns="http://www.w3.org/2000/svg" xmlns:xlink="http://www.w3.org/1999/xlink" x="0px" y="0px"
	 viewBox="0 0 492.5 492.5" style="enable-background:new 0 0 492.5 492.5;" xml:space="preserve">
<style type="text/css">
	.st0{fill:#E7423F;}
	.st1{fill:#FFFFFF;}
</style>
<g>
	<g>
		<path class="st0" d="M246.1,1.5h201.7V298c0,106.7-90.2,193-201.6,193c-111.3,0-201.6-86.3-201.6-193l0-296.5L246.1,1.5L246.1,1.5
			z"/>
		<path d="M246.2,492.5c-27.4,0-54-5.1-79-15.3c-24.2-9.8-45.9-23.8-64.6-41.6c-18.7-17.9-33.3-38.7-43.5-61.8
			c-10.6-24-16-49.5-16-75.8l0-298l202,0l1,0h203.2v298c0,26.3-5.4,51.8-16,75.8c-10.2,23.2-24.9,44-43.5,61.8
			c-18.6,17.8-40.4,31.9-64.5,41.6C300.3,487.3,273.7,492.5,246.2,492.5z M46.2,3l0,294.9c0,105.6,89.8,191.5,200.1,191.5
			c110.3,0,200.1-85.9,200.1-191.5V3H247.1l0,0L46.2,3z"/>
	</g>
	<g>
		<path class="st1" d="M282.5,181.2h27.7v23h42.9v-23h19.3v23h47.2v-26.1h-17.4v-20.8h17.4v-26.4h-47.2v23h-19.3v-23h-25.5v-20.2
			h25.5v-23h19.3v23h47.2V84.6h-17.4V63.8h17.4V37.7h-47.2v22.7h-19.3V37.7h-42.9v22.7h-27.7V181.2L282.5,181.2z"/>
		<path d="M421.2,205.8H371v-23h-16.3v23h-46v-23H281V58.9h27.7V36.2h46v22.7H371V36.2h50.3v29.1h-17.4v17.8h17.4v29.1H371v-23
			h-16.3v23h-25.5v17.2h25.5v23H371v-23h50.3v29.4h-17.4v17.8h17.4V205.8z M374,202.7h44.2v-23.1h-17.4v-23.8h17.4v-23.3H374v23
			h-22.4v-23h-25.5v-23.3h25.5v-23H374v23h44.2V86.1h-17.4V62.3h17.4V39.2H374v22.7h-22.4V39.2h-39.9v22.7H284v117.8h27.7v23h39.9
			v-23H374V202.7z"/>
	</g>
	<g>
		<path class="st1" d="M209.3,181.2h-27.5v23h-43v-23h-19.4v23H72.2v-26.1h17.4v-20.8H72.2v-26.4h47.2v23h19.4v-23h25.6v-20.2h-25.6
			v-23h-19.4v23H72.2V84.6h17.4V63.8H72.2V37.7h47.2v22.7h19.4V37.7h43v22.7h27.5L209.3,181.2L209.3,181.2z"/>
		<path d="M183.3,205.8h-46v-23h-16.4v23H70.7v-29.2h17.4v-17.8H70.7v-29.4h50.2v23h16.4v-23h25.6v-17.2h-25.6v-23h-16.4v23H70.7
			V83.1h17.4V65.3H70.7V36.2h50.2v22.7h16.4V36.2h46v22.7h27.5v123.8h-27.5V205.8z M140.3,202.7h39.9v-23h27.5V61.9h-27.5V39.2
			h-39.9v22.7h-22.4V39.2H73.7v23.1h17.4v23.8H73.7v23.1h44.2v-23h22.4v23h25.6v23.3h-25.6v23h-22.4v-23H73.7v23.3h17.4v23.8H73.7
			v23.1h44.2v-23h22.4V202.7z"/>
	</g>
	<g>
		<path class="st1" d="M250.3,15l0.3,277.6c0,0.4,0.4,28.3,28.9,28.3c15.5,0,22.3-5.2,28.8-9.9c7.3-5.4,14.6-10.7,33.5-10.9
			c6.9,0,23,0.9,33.5,11.4c6.9,6.9,10.3,16.3,10.3,28.6c0,11.2-7.3,22.1-19.1,28.8c-15.7,8.4-34.8,7.7-50.2-2.6l-3.9-2.6
			c-8.8-6-21-14.4-35.4-7.3c-9.2,4.5-14.2,12.2-13.5,21.3c0,5.6,1.7,8.8,3.9,12.5c3.2,5.4,7.1,12,7.1,30.1
			c0,10.7-3.4,29.4-25.7,31.3c-17.8,1.7-30.8-15.7-30.9-31.3c-0.1-18,3.9-24.7,7-30.1c2.1-3.6,3.9-6.9,3.9-12.2
			c0.6-9.2-4.4-17-13.6-21.5c-14.3-7.1-26.4,1.3-35.4,7.3l-3.8,2.6c-15.6,10.5-34.6,10.9-50.2,2.6c-11.9-6.7-19.2-17.6-19.2-28.8
			c0-12.2,3.5-21.7,10.3-28.6c10.6-10.5,26.7-11.4,33.1-11.4c19.3,0.2,26.7,5.6,33.8,10.9c6.6,4.7,13.5,9.9,28.8,9.9
			c28.6,0,28.9-27.9,28.9-28.3L241.7,15l-35.1-0.1v263.4c0,4.7-1.3,7.9-3.6,9c-2.7,1.3-6.9-0.4-11.5-4.5
			c-12.1-10.9-32.5-15.9-47.4-15.9c-15,0-71,12.2-71,72.8C73.1,372,97.4,407,151,407c16.4,0,32.3-8.4,40.9-14.4
			c-4.5,7.9-7.4,17.2-7.4,27c0,8.4,1.6,17,4.8,25.3c8.8,22.1,27,36.5,49.9,39.1c2,0.4,5.1,0.4,7.1,0.4c2,0,3.9,0,5.6-0.2
			c24-2.8,42.2-17.2,51-39.3c3.2-8.2,4.7-17,4.7-25.1c0-10.1-3-19.3-7.5-27.3c8.6,6,24.5,14.4,41,14.4c53.5,0,77.9-35,77.9-67.4
			c0-60.5-56-72.8-71.1-72.8c-14.8,0-35.4,4.9-47.4,15.9c-4.5,4.1-8.8,5.8-11.6,4.5c-2.1-1.1-3.4-4.3-3.4-9V14.8L250.3,15z"/>
		<path d="M246.2,486c-2.1,0-5.2,0-7.3-0.4c-11.7-1.3-22.1-5.5-31-12.5c-8.8-6.9-15.7-16.4-20.1-27.5c-3.3-8.4-4.9-17.1-4.9-25.9
			c0-7.6,1.7-15.3,5.1-22.7c-7.7,4.6-21.8,11.6-37,11.6c-24.9,0-45.7-7.6-60.1-22c-6.3-6.3-11.2-13.8-14.6-22.2
			c-3.2-7.9-4.8-16.3-4.8-24.8c0-14.3,3.1-26.9,9.2-37.7c5.1-9,12.3-16.6,21.4-22.7c16.5-11,34.6-13.9,42-13.9
			c15.1,0,36,5,48.4,16.3c4,3.6,7.8,5.2,9.8,4.3l0,0c1.8-0.8,2.8-3.6,2.8-7.6V13.3l38.1,0.2L243,292.5c0,0.1,0,7.6-3.9,15
			c-3.5,6.8-11,14.8-26.5,14.8c-15.5,0-22.8-5.2-29.2-9.8l-0.5-0.4c-6.8-5.1-13.9-10.4-32.9-10.6c-7.8,0-22.4,1.4-32,10.9
			c-6.6,6.7-9.9,15.7-9.9,27.5c0,10.5,7.1,21.1,18.4,27.4c15.6,8.4,33.8,7.5,48.6-2.5l4.2-2.8c9.1-6.1,21.6-14.5,36.5-7.2
			c9.8,4.8,15.1,13.1,14.5,22.9c0,5.8-2.1,9.5-4.2,13l-0.1,0.2c-3,5.2-6.8,11.7-6.7,29.1c0,8.6,4.1,17.5,10.6,23.4
			c3.8,3.4,10.1,7.3,18.7,6.5c21.2-1.8,24.3-19.5,24.3-29.8c0-17.8-3.8-24.2-6.9-29.3c-2.3-3.9-4.1-7.4-4.1-13.2
			c-0.7-9.6,4.6-17.9,14.4-22.7c6.7-3.3,13.6-3.8,20.9-1.3c6.2,2,11.6,5.7,16,8.7l0,0l3.8,2.6c14.6,9.8,33.3,10.7,48.7,2.5
			C377,361,384,350.5,384,340c0-11.9-3.2-20.8-9.9-27.5c-9-9-22.6-10.9-32.4-10.9c-18.4,0.2-25.3,5.3-32.6,10.7l-0.2,0.1
			c-6.4,4.7-13.7,10-29.5,10c-15.5,0-23-8.1-26.5-14.8c-3.9-7.4-3.9-15-3.9-15l-0.3-279.1l38.2-0.2v264.9c0,3.9,1,6.8,2.6,7.6
			c2.1,1,5.9-0.7,9.9-4.3c12.3-11.2,33.2-16.3,48.5-16.3c7.3,0,25.5,2.9,42,13.9c9.1,6.1,16.3,13.7,21.4,22.7
			c6.1,10.7,9.2,23.4,9.2,37.7c0,8.5-1.6,16.8-4.8,24.8c-3.3,8.4-8.2,15.8-14.6,22.2c-14.4,14.4-35.2,22-60.1,22
			c-15.3,0-29.4-6.9-37.1-11.6c3.4,7.5,5.1,15.1,5.1,22.9c0,8.8-1.7,17.7-4.8,25.7c-4.5,11.3-11.3,20.6-20.3,27.5
			c-9.1,7-19.8,11.3-32,12.7C250.2,486,248.3,486,246.2,486z M196.5,387.6l-3.3,5.8c-4.7,8.4-7.3,17.5-7.3,26.3
			c0,8.4,1.6,16.7,4.7,24.8c8.6,21.7,26.3,35.6,48.7,38.1l0.1,0c1.8,0.4,4.9,0.4,6.8,0.4c2,0,3.8,0,5.4-0.2
			c23-2.7,41.2-16.7,49.8-38.3c3-7.6,4.6-16.1,4.6-24.6c0-9-2.5-18-7.3-26.5l-3.3-5.8l5.5,3.9c4.7,3.3,21.6,14.1,40.1,14.1
			c52.5,0,76.4-34.2,76.4-65.9c0-25.4-9.8-44.9-29.2-57.8c-15.9-10.6-33.3-13.4-40.3-13.4c-14.6,0-34.7,4.8-46.4,15.5
			c-5.1,4.6-9.9,6.3-13.2,4.8l0,0c-2.8-1.4-4.3-5.1-4.3-10.4V16.3l-32.1,0.1l0.3,276.1c0,0.1,0.1,6.9,3.6,13.7
			c4.6,8.7,12.6,13.1,23.8,13.1c14.8,0,21.3-4.8,27.7-9.4l0.2-0.1c7.4-5.4,15-11,34.4-11.2c10.4,0,24.8,2.1,34.6,11.8
			c7.1,7.1,10.7,17.1,10.7,29.6c0,11.6-7.6,23.2-19.9,30.1l0,0c-8,4.3-17,6.3-26,5.9c-9.1-0.4-18.1-3.4-25.8-8.5l-3.9-2.6
			c-8.6-5.8-20.3-13.9-33.9-7.2c-8.7,4.2-13.3,11.4-12.7,19.8l0,0.1c0,5.1,1.4,7.9,3.7,11.7c3.1,5.1,7.3,12.2,7.3,30.8
			c0,5.3-0.8,13.1-4.7,19.7c-4.5,7.8-12.1,12.2-22.4,13.1c-7.7,0.7-14.9-1.8-21-7.2c-7.1-6.4-11.5-16.2-11.6-25.6
			c-0.1-18.2,3.9-25.1,7.1-30.6l0.1-0.2c2-3.5,3.7-6.4,3.7-11.5l0-0.1c0.5-8.6-4-15.7-12.8-20c-13.4-6.6-24.5,0.9-33.5,6.9l-4.2,2.8
			c-7.8,5.2-16.7,8.2-25.9,8.6c-8.9,0.4-17.9-1.7-25.9-6l0,0c-12.3-6.9-20-18.4-20-30.1c0-12.5,3.6-22.4,10.7-29.6
			c10.4-10.3,25.9-11.8,34.2-11.8c20,0.2,27.8,6.1,34.7,11.2l0.5,0.3c6.4,4.5,13,9.3,27.5,9.3c11.2,0,19.2-4.4,23.8-13.1
			c3.5-6.8,3.6-13.6,3.6-13.7l0.2-276.1l-32-0.1v261.9c0,5.4-1.6,9.1-4.5,10.4c-3.3,1.6-8-0.1-13.2-4.8
			c-11.8-10.7-31.8-15.5-46.4-15.5c-7,0-24.4,2.8-40.3,13.4c-19.4,13-29.2,32.4-29.2,57.8c0,31.7,23.9,65.9,76.4,65.9
			c18.4,0,35.3-10.8,40-14.1L196.5,387.6z"/>
	</g>
	<g>
		<path class="st1" d="M302.7,241.9c0,6.2-4.9,11.2-10.9,11.2h-91.2c-6.1,0-11.1-4.9-11.1-11.2c0-6.2,5-11.2,11.1-11.2h91.2
			C297.8,230.8,302.7,235.7,302.7,241.9z"/>
		<path d="M291.8,254.6h-91.2c-3.4,0-6.6-1.3-8.9-3.7c-2.4-2.4-3.7-5.6-3.7-9s1.3-6.6,3.7-9c2.4-2.4,5.5-3.7,8.9-3.7h91.2
			c6.9,0,12.5,5.7,12.5,12.7C304.2,248.9,298.6,254.6,291.8,254.6z M200.6,232.3c-5.3,0-9.6,4.3-9.6,9.6s4.3,9.6,9.6,9.6h91.2
			c5.2,0,9.4-4.3,9.4-9.6s-4.2-9.6-9.4-9.6H200.6z"/>
	</g>
</g>
</svg>
