<?xml version="1.0" encoding="utf-8"?>
<!-- Generator: Adobe Illustrator 25.0.1, SVG Export Plug-In . SVG Version: 6.00 Build 0)  -->
<svg version="1.1" id="Ebene_1" xmlns="http://www.w3.org/2000/svg" xmlns:xlink="http://www.w3.org/1999/xlink" x="0px" y="0px"
	 viewBox="0 0 492.5 492.5" style="enable-background:new 0 0 492.5 492.5;" xml:space="preserve">
<style type="text/css">
	.st0{fill:#E8423F;}
	.st1{fill:#FFD730;}
	.st2{clip-path:url(#SVGID_2_);fill:none;stroke:#010202;stroke-width:3.32;stroke-miterlimit:10;}
	.st3{fill:#010202;}
	.st4{fill:#FFFFFF;}
	.st5{clip-path:url(#SVGID_4_);fill:none;stroke:#010202;stroke-width:3.048;}
</style>
<g>
	<path class="st0" d="M246.1,1.5h201.7V298c0,106.5-90.3,192.9-201.6,192.9c-111.3,0-201.6-86.4-201.6-192.9V1.5L246.1,1.5
		L246.1,1.5z"/>
	<path class="st1" d="M331.5,61.8c0,27.3-24.2,49.4-54.2,49.4c-29.9,0-54.2-22.1-54.2-49.4c0-27.3,24.2-49.4,54.2-49.4
		C307.2,12.4,331.5,34.5,331.5,61.8"/>
	<g>
		<g>
			<g>
				<g>
					<g>
						<defs>
							<rect id="SVGID_1_" x="43.1" width="406.2" height="492.5"/>
						</defs>
						<clipPath id="SVGID_2_">
							<use xlink:href="#SVGID_1_"  style="overflow:visible;"/>
						</clipPath>
						<path class="st2" d="M277.3,12.4c29.9,0,54.2,22.1,54.2,49.4s-24.2,49.4-54.2,49.4c-29.9,0-54.2-22.1-54.2-49.4
							S247.4,12.4,277.3,12.4z"/>
					</g>
				</g>
			</g>
		</g>
	</g>
	<polygon class="st3" points="90.1,32.2 141.6,447.5 156.8,445.8 109.1,30 	"/>
	<path class="st1" d="M94,35.2c0.1,0.6,50.5,407.9,50.6,408.5c0.6-0.1,7.9-0.9,8.4-0.9c-0.1-0.6-46.8-408.3-46.9-409
		C105.5,33.9,94.6,35.1,94,35.2"/>
	<path class="st3" d="M97.3,16.4L97.3,16.4c-9.8,1.2-17,7.9-16.2,14.9c0.9,7,9.6,11.6,19.4,10.4c5.8-0.7,10.9-3.4,13.8-7.1
		c1.8-2.4,2.7-5.1,2.3-7.8C115.8,19.8,107.1,15.2,97.3,16.4"/>
	<path class="st1" d="M97.8,19.8c-7.5,0.9-13.2,5.5-13.2,10.2c0,0.2,0,0.5,0,0.8c0.6,5.1,7.6,8.4,15.5,7.4c4.9-0.6,9.2-2.8,11.5-5.8
		c1.3-1.7,1.9-3.5,1.6-5.2C112.6,22.1,105.7,18.8,97.8,19.8"/>
	<path class="st3" d="M110.7,122.1L110.7,122.1c-9.4,1.2-16.4,7.7-15.5,14.4c0.9,6.7,9.2,11.2,18.7,10c9.4-1.2,16.4-7.7,15.5-14.4
		C128.5,125.4,120.1,120.9,110.7,122.1"/>
	<path class="st1" d="M111.1,125.6c-7.2,0.9-12.6,5.2-12.6,9.8c0,0.2,0,0.5,0,0.7c0.6,4.8,7.3,8,14.8,7c7.5-1,13.2-5.7,12.5-10.5
		C125.3,127.7,118.7,124.6,111.1,125.6"/>
	<path class="st3" d="M150.6,162.2c40.9-3.5,90.3-17.8,112.3-71.1c21.7,0,27.7-1.5,27.7-1.5s8,10.5,46,30.6
		c7.2,3.8,29.2,82.5,29.2,82.5s4.1,15.6-7.3,16.9c-11.4,1.3-31.9,0.4-31.9,0.4s26.5,208.6,26.7,210.4c-1.5,0.4-10.5,5.2-20.8,10.6
		c-10.2,5.3-21.7,11.3-28.5,12.9c-0.4,0.1-5.5,1.4-7.8-3.2c-2.3-4.6,0.9-8.1,0.9-8.1l22.3-19.6c0,0,0.6-1.1,0.6-1.9
		c-0.1-0.8-1-1.1-1-1.1l-36.4-0.3l-34.2-176.5l-4,0.9l33.2,176.1l-71.1,0l18.8-230.7l-72.2-0.2C153,189.4,150.8,164.3,150.6,162.2"
		/>
	<polygon class="st4" points="290.2,111.2 292.9,91.1 286.5,104.9 267.7,104.9 262.4,92.1 264.7,111.2 	"/>
	<rect x="261.8" y="156.6" class="st1" width="47.8" height="32.1"/>
	<rect x="252.5" y="156.6" class="st1" width="7.2" height="32.1"/>
	<rect x="246.2" y="156.6" class="st1" width="4.5" height="32.1"/>
	<path class="st3" d="M312.4,61.8c0,18.6-16.2,33.7-36.1,33.7c-20,0-36.1-15.1-36.1-33.7c0-18.6,16.2-33.7,36.1-33.7
		C296.2,28.1,312.4,43.2,312.4,61.8"/>
	<path class="st4" d="M275.4,46.9c8.3,0.2,22.8-2.9,19.9,14.8c-0.6,3.7,0,8.6,0,8.6s0.5,5.7-0.2,9.4c-1.2,11.3-3.9,13.5-16.8,14
		c-15.3,0.5-15.1-1-17.5-7.2c-5.7-17.3-3.3-30.5-3.3-30.5S258.9,46.6,275.4,46.9"/>
	<path class="st3" d="M232.5,423.8c0,0-17,0-26.6-0.1c-6.4,9-25.9,6.3-31.1,6.6c-4.6,0.3-7.7,3.2-7.7,8c0,4.8,3.9,8,8.2,8h48.8
		c5.9,0,7.7-5.4,7.7-5.4L232.5,423.8z"/>
	<path class="st4" d="M284.7,213.6l-2.9-22.7l-15.7,0.1h-14.7c-0.6,0-1.1,0.7-1.1,1.4c0,0.8,0.5,1.4,1.1,1.4h11.7c0,0,0.3,2-0.6,2.1
		c0,0-12.9,0.2-13.5,0.2c-0.6,0-4.3-3.2-4.3-3.2c-0.2-0.2-0.3-0.3-0.4-0.4c-0.2-0.2-0.2-0.6-0.2-0.6c0-0.7-0.2-1.2-0.9-1.3
		c-0.8,0-1.3,0.4-1.4,1.1c-0.2,1.5,0.1,1.6,0.2,1.8c0.1,0.2,0.2,0.4,4.7,4.9c0.2,0.3,0.8,0.5,1.1,0.5l11.8-0.1l0.1,2.2h-12
		c-0.6,0-1.2,0.6-1.2,1.4c0,0.8,0.5,1.4,1.2,1.4h12.1l0.1,2h-11.6c-0.6,0-1.2,0.6-1.2,1.4c0,0.8,0.5,1.4,1.2,1.4H260l0.1,2.1H249
		c-0.7,0-1.2,0.6-1.2,1.4c0,0.8,0.5,1.4,1.2,1.4H264c0,0,0.1-0.1,0.2-0.1L284.7,213.6L284.7,213.6z"/>
	<path class="st3" d="M102.5,163.7c0,1.8,1.3,4.8,4.9,4.8h13.8v21.2l57.5-0.2l-2.6-27.9l-73.6-0.1
		C102.5,161.5,102.5,163.7,102.5,163.7z"/>
	<path class="st4" d="M151.4,187.3l-2.2-23.5l-44.5,0c0,0.9,0.6,2.6,2.7,2.6h16v21L151.4,187.3z"/>
	<path class="st3" d="M108.7,166.3c-2,0-3.7,1.7-3.7,3.9c0,2.1,1.6,3.8,3.7,3.8h13.9c2,0,3.7-1.7,3.7-3.8c0-2.1-1.6-3.9-3.7-3.9
		H108.7z"/>
	<path class="st4" d="M108.7,168.5c-0.8,0-1.5,0.7-1.5,1.7c0,0.9,0.7,1.7,1.5,1.7h13.9c0.8,0,1.5-0.8,1.5-1.7c0-0.9-0.7-1.7-1.5-1.7
		H108.7z"/>
	<path class="st3" d="M109.7,172.3c-2,0-3.6,1.7-3.6,3.8c0,2.1,1.6,3.8,3.6,3.8h13.5c2,0,3.6-1.7,3.6-3.8c0-2.1-1.6-3.8-3.6-3.8
		C123.2,172.3,109.7,172.3,109.7,172.3z"/>
	<path class="st4" d="M109.7,174.4c-0.8,0-1.5,0.7-1.5,1.6c0,0.9,0.7,1.6,1.5,1.6h13.5c0.8,0,1.4-0.7,1.4-1.6c0-0.9-0.7-1.6-1.4-1.6
		H109.7z"/>
	<path class="st3" d="M110.2,178c-2,0-3.6,1.6-3.6,3.5c0,1.9,1.6,3.5,3.6,3.5h13.6c2,0,3.6-1.6,3.6-3.5c0-1.9-1.6-3.5-3.6-3.5H110.2
		z"/>
	<path class="st4" d="M110.2,180.3c-0.8,0-1.5,0.6-1.5,1.3c0,0.7,0.7,1.3,1.5,1.3h13.6c0.8,0,1.4-0.6,1.4-1.3c0-0.7-0.6-1.3-1.4-1.3
		H110.2z"/>
	<path class="st3" d="M111,183c-2,0-3.6,1.5-3.6,3.3c0,1.9,1.6,3.4,3.6,3.4h12.9c2,0,3.6-1.5,3.6-3.4c0-1.8-1.6-3.3-3.6-3.3H111
		L111,183z"/>
	<path class="st4" d="M111,185.2c-0.8,0-1.4,0.5-1.4,1.1c0,0.6,0.6,1.2,1.4,1.2h12.9c0.8,0,1.4-0.5,1.4-1.2c0-0.6-0.6-1.1-1.4-1.1
		H111z"/>
	<path class="st3" d="M266.7,66.8c0,1.2-1,2.2-2.2,2.2c-1.2,0-2.2-1-2.2-2.2c0-1.2,1-2.2,2.2-2.2C265.7,64.6,266.7,65.6,266.7,66.8"
		/>
	<path class="st3" d="M286.7,66.8c0,1.2-1,2.2-2.2,2.2c-1.2,0-2.2-1-2.2-2.2c0-1.2,1-2.2,2.2-2.2C285.7,64.6,286.7,65.6,286.7,66.8"
		/>
	<path class="st3" d="M278.6,59.5c-0.5,0.4-0.5,1.1-0.1,1.6c0.4,0.5,1.8,0.9,2.2,0.5c0.1-0.1,3.8-2.1,4.8-2c1.7,0.3,3.7,0.9,6,2.1
		c0.5,0.3,1.2,0.2,1.5-0.2c0.4-0.5,0.1-1.4-0.4-1.8C285.1,54.2,278.6,59.5,278.6,59.5"/>
	<path class="st3" d="M261.5,59.4c-0.6,0.2-0.8,0.9-0.6,1.4c0.2,0.6,1.3,1,1.8,0.8c1.2-0.5,4.3-1.7,6.1-0.4c1.1,0.8,1.6,2.4,1.4,4.8
		c-0.7,10-0.6,12.9-0.6,13c0,0.6,0.5,1.1,1.1,1.1l9,0.3c0.6,0,0.7-2.2,0.1-2.2c0,0-6.2,0.2-7.9,0.1c0-1.5,0.1-5.4,0.6-12.2
		c0-0.4,0-0.7,0-1.1c0-2.6,0.3-4.6-1.2-5.7C267.9,56.8,261.8,59.3,261.5,59.4"/>
	<path class="st3" d="M270.8,85c-0.9,0-1.7,0.7-1.7,1.6c0,0.9,0.7,1.7,1.7,1.7h10c0.9,0,1.7-0.7,1.7-1.7c0-0.9-0.7-1.6-1.7-1.6
		H270.8z"/>
	<g>
		<g>
			<g>
				<g>
					<g>
						<defs>
							<rect id="SVGID_3_" x="43.1" width="406.2" height="492.5"/>
						</defs>
						<clipPath id="SVGID_4_">
							<use xlink:href="#SVGID_3_"  style="overflow:visible;"/>
						</clipPath>
						<path class="st5" d="M246.1,1.5h201.7V298c0,106.5-90.3,192.9-201.6,192.9c-111.3,0-201.6-86.4-201.6-192.9V1.5L246.1,1.5
							L246.1,1.5z"/>
					</g>
				</g>
			</g>
		</g>
	</g>
</g>
</svg>
