<?xml version="1.0" encoding="utf-8"?>
<!-- Generator: Adobe Illustrator 25.0.1, SVG Export Plug-In . SVG Version: 6.00 Build 0)  -->
<svg version="1.1"
	 id="Ebene_1" xmlns:cc="http://creativecommons.org/ns#" xmlns:dc="http://purl.org/dc/elements/1.1/" xmlns:rdf="http://www.w3.org/1999/02/22-rdf-syntax-ns#" xmlns:svg="http://www.w3.org/2000/svg"
	 xmlns="http://www.w3.org/2000/svg" xmlns:xlink="http://www.w3.org/1999/xlink" x="0px" y="0px" viewBox="0 0 492.5 492.5"
	 style="enable-background:new 0 0 492.5 492.5;" xml:space="preserve">
<style type="text/css">
	.st0{fill:#FFFFFF;}
	.st1{fill:#FF0000;}
	.st2{fill:#0B0000;}
</style>
<g>
	<g id="g824">
		<g>
			<path id="path5818_1_" class="st0" d="M44.3,3.3v283.4c0,111.8,90.4,202.5,201.9,202.5s201.9-90.6,201.9-202.5V3.3H44.3z"/>
			<path d="M246.2,492.5c-54.8,0-106.3-21.4-145.1-60.3c-38.7-38.9-60.1-90.5-60.1-145.5V0h410.3v286.7c0,55-21.3,106.6-60.1,145.5
				C352.6,471.1,301,492.5,246.2,492.5z M47.6,6.6v280.2c0,109.8,89.1,199.2,198.6,199.2s198.6-89.4,198.6-199.2V6.6H47.6z"/>
		</g>
	</g>
	<g>
		<path id="path6434_1_" class="st1" d="M285.5,21.1c-10,0-18.1,8.1-18.1,18.2c0,0,0,0,0,0c0,2.9,0.7,5.8,2,8.3
			c-6.9,3.5-13.2,7.2-19.1,11.2c-3.4-4.6-8.8-7.3-14.5-7.3c-10,0-18.1,8.1-18.1,18.2c0,5.3,2.3,10.3,6.3,13.7
			c-4.3,5.6-8.1,11.7-11.2,18.3c-2.6-1.4-5.5-2.1-8.5-2.1c-10,0-18.1,8.1-18.1,18.2c0,0,0,0,0,0c0,9.3,7.1,17.2,16.3,18.1
			c-0.2,1.2-0.4,2.4-0.6,3.6c-23.4,171.4-18.2,214.6-41,311c19.1-6.5,35.1-55.9,52.6-84.1l25.7,104.3l27.5-108
			c16.9,30.2,26.3,79.8,50.7,90.2c-14.4-87.1-28-183.6-36.1-285.9c-2.4-30.4,3.6-40,13.5-57.1c10.1-17.6,65.7-36.7,73.4,11
			c6.2,38.9-36.3,37.7-47.7,14.7l-20.8,16.6c16.7,13.6,24.1,35.1,62.4,27.3c2.2,7.8,9.3,13.2,17.4,13.2c10,0,18.1-8.1,18.1-18.2
			c0,0,0,0,0,0c0-4.6-1.7-8.9-4.8-12.3c3.8-5.9,6.9-13.3,9.4-21.6c1.9,0.7,3.9,1,5.9,1c10,0,18.1-8.1,18.1-18.2
			c0-10-8.1-18.2-18.1-18.2c0,0,0,0,0,0c-0.3,0-0.6,0-0.8,0c-0.4-7.4-1.9-14.7-4.8-21.5c5.4-3.3,8.6-9.2,8.6-15.5
			c0-10-8.1-18.2-18.1-18.2c-5,0-9.8,2.1-13.3,5.8c-5.9-4.4-12.5-8.2-19.4-11.2c0.6-1.8,0.8-3.6,0.8-5.5c0-10-8.1-18.2-18.1-18.2
			c-8.5,0-15.9,6-17.7,14.3c-3.3-0.3-6.5-0.5-9.6-0.6c-4.3-0.1-8.6,0.2-12.7,0.7C301.6,27.2,294.1,21.1,285.5,21.1L285.5,21.1z"/>
		<path class="st2" d="M240.9,471l-3.2,0L213,370.6c-5.1,8.7-10.1,19-15,29.1c-11.9,24.5-23.1,47.7-36.4,52.2l-2.8,1l0.7-2.9
			c13.3-56.5,17-94.1,22.6-151.2c3.9-39.6,8.7-88.8,18.4-159.7c0.1-0.7,0.2-1.4,0.3-2c-9.3-1.7-16.1-9.8-16.1-19.5
			c0-5.3,2.1-10.3,5.8-14c3.7-3.7,8.7-5.8,14-5.8c0,0,0,0,0,0c2.7,0,5.3,0.6,7.8,1.6c2.8-5.6,6-10.9,9.8-15.9
			c-3.7-3.7-5.7-8.7-5.7-13.9c0-10.9,8.9-19.8,19.7-19.8c5.7,0,11.1,2.5,14.8,6.8c5.1-3.4,10.7-6.7,16.6-9.7c-1-2.4-1.5-5-1.5-7.6
			c0-5.3,2.1-10.3,5.8-14c3.7-3.7,8.7-5.8,14-5.8c0,0,0,0,0,0h0c8.9,0,16.7,6,19,14.5c3.7-0.4,7.6-0.6,11.4-0.5
			c2.7,0,5.5,0.2,8.4,0.4c2.4-8.3,10.2-14.2,18.9-14.2c10.9,0,19.7,8.9,19.7,19.8c0,1.5-0.2,3.1-0.5,4.5c6.2,2.9,12,6.2,17.2,10
			c3.6-3.4,8.4-5.3,13.4-5.3c10.9,0,19.7,8.9,19.7,19.8c0,6.4-3.1,12.4-8.2,16.1c2.4,6,3.8,12.4,4.3,19.3c10.6,0.4,19,9.1,19,19.8
			c0,10.9-8.9,19.8-19.7,19.8c-1.6,0-3.3-0.2-4.8-0.6c-2.4,7.6-5.3,14.1-8.5,19.4c2.8,3.5,4.4,7.9,4.4,12.4
			c0,10.9-8.9,19.8-19.7,19.8c-8.3,0-15.7-5.3-18.5-13c-29.5,5.6-41-6.5-52.1-18.2c-3.2-3.3-6.5-6.8-10.1-9.7l-1.6-1.3l24-19.1
			l0.9,1.8c6.2,12.6,21.6,17.5,32.1,14.2c10.3-3.3,14.8-13.5,12.5-27.9c-2.6-16-11-25.7-24.3-28.1c-18.8-3.5-40.5,8.1-46,17.6
			l-0.7,1.3c-9.2,16-14.8,25.7-12.5,54.8c7,88.2,18.4,179,36.1,285.8l0.5,2.9l-2.7-1.2c-17-7.2-26.9-32.5-36.5-56.9
			c-4.1-10.4-8.3-21.1-13-30.3L240.9,471z M214.3,362.2l25,101.7l26.9-105.6l2,3.6c5.6,10.1,10.5,22.5,15.2,34.4
			c8.8,22.4,17.9,45.4,32,53.7c-17.4-105.5-28.7-195.5-35.6-282.9c-2.4-30.1,3.4-40.1,12.9-56.7l0.7-1.3
			c6.7-11.6,30.2-22.8,49.4-19.2c10.4,1.9,23.4,8.8,27,30.8c2.6,16-3,27.8-14.8,31.6c-12.6,4-28.1-2.4-35.1-14.1l-17.7,14.1
			c3.2,2.8,6.1,5.8,8.9,8.7c11.2,11.7,21.8,22.8,50.6,16.9l1.5-0.3l0.4,1.5c2,7.1,8.5,12,15.8,12c9.1,0,16.5-7.4,16.5-16.5
			c0-4.2-1.6-8.1-4.4-11.2l-0.9-0.9l0.7-1.1c3.6-5.5,6.7-12.7,9.2-21.2l0.5-1.6l1.6,0.6c1.7,0.6,3.6,0.9,5.4,0.9
			c9.1,0,16.4-7.4,16.4-16.5c0-9.1-7.4-16.5-16.5-16.5c-0.2,0-0.5,0-0.7,0l-1.6,0.1l-0.1-1.6c-0.4-7.5-2-14.6-4.7-21l-0.5-1.3
			l1.2-0.7c4.8-3,7.8-8.4,7.9-14.1c0-9.1-7.4-16.5-16.5-16.5c-4.6,0-9,1.9-12.1,5.3l-1,1.1l-1.2-0.9c-5.7-4.2-12.1-7.9-19-11
			l-1.3-0.6l0.4-1.4c0.5-1.6,0.8-3.3,0.8-5c0-9.1-7.4-16.5-16.5-16.5c-7.7,0-14.5,5.5-16.1,13l-0.3,1.4l-1.5-0.2
			c-3.2-0.3-6.4-0.5-9.5-0.6c-4.2-0.1-8.4,0.2-12.4,0.7l-1.5,0.2l-0.3-1.5c-1.5-7.7-8.3-13.3-16.1-13.3l0,0c-4.4,0-8.5,1.7-11.6,4.8
			c-3.1,3.1-4.8,7.3-4.8,11.7c0,2.6,0.6,5.3,1.8,7.6l0.8,1.5l-1.5,0.7c-6.9,3.5-13.2,7.2-18.9,11.1L250,61l-0.9-1.3
			c-3.1-4.2-8-6.7-13.2-6.7c-9.1,0-16.5,7.4-16.5,16.5c0,4.8,2.1,9.4,5.7,12.5l1.2,1l-0.9,1.2c-4.3,5.6-8,11.6-11,18l-0.7,1.6
			l-1.5-0.8c-2.4-1.3-5-1.9-7.7-1.9c0,0,0,0,0,0c-4.4,0-8.5,1.7-11.6,4.8c-3.1,3.1-4.8,7.3-4.8,11.7c0,8.5,6.4,15.6,14.8,16.4
			l1.7,0.2l-0.3,1.7c-0.2,1.2-0.4,2.4-0.5,3.6c-9.7,70.8-14.5,120.1-18.4,159.6c-5.5,56-9.1,93.4-21.9,148.3
			c11-6.5,21.5-28.2,31.7-49.2c5.6-11.5,11.3-23.4,17.2-32.8L214.3,362.2z"/>
	</g>
	<path d="M237.6,470.6c0-1.6-0.8-165.1-1.8-246c-0.2-17.3,0.7-33.7,1.6-51.2l0.3-4.8c0.2-3.9,0.1-8-0.1-12.3
		c-0.5-12.7-1-27.1,7-45.3c5.2-12,10.8-19.7,20-27.6c8.9-7.6,21.4-14,34.3-17.5c8.5-2.3,24.9-4.8,34.9-3.1
		c9.6,1.6,19.8,3.9,29.4,10.1c7.3,4.7,14.6,12.9,20.1,22.7c4.6,8.3,7,16.8,6.9,24.8c0.3,11.9-2.9,21.8-9.3,28.6
		c-5.3,5.6-12.8,9-20.5,9.2c-9.7,0.3-14.1-1.9-18.3-4c-1.7-0.9-3.4-1.7-5.5-2.4l1-3.1c2.3,0.8,4.1,1.7,5.9,2.5
		c4.1,2,7.9,3.9,16.8,3.7c6.8-0.2,13.4-3.2,18.2-8.1c5.8-6.1,8.7-15.2,8.4-26.3c0.1-7.4-2.2-15.4-6.5-23.2
		c-5.2-9.2-12.3-17.2-19-21.5c-8.6-5.5-17.5-7.8-28.1-9.6c-8.6-1.4-24.1,0.5-33.5,3c-12.4,3.4-24.4,9.5-33,16.8
		c-8.8,7.5-14.1,14.9-19.1,26.4c-7.6,17.6-7.1,31.6-6.7,43.9c0.2,4.4,0.3,8.5,0.1,12.6l-0.3,4.8c-0.9,17.4-1.8,33.8-1.6,50.9
		c1,80.9,1.8,244.4,1.8,246L237.6,470.6z"/>
	<g>
		<rect id="rect6487-3_1_" x="176.2" y="166" class="st1" width="126.5" height="59.7"/>
		<path d="M304.4,227.4H174.5v-63h129.8V227.4z M177.8,224.1h123.3v-56.4H177.8V224.1z"/>
	</g>
	<g>
		<rect id="rect6487_1_" x="161.9" y="180.9" class="st1" width="155.1" height="30"/>
		<path d="M318.6,212.5H160.3v-33.3h158.4V212.5z M163.5,209.2h151.8v-26.7H163.5V209.2z"/>
	</g>
</g>
</svg>
