<?xml version="1.0" encoding="utf-8"?>
<!-- Generator: Adobe Illustrator 25.0.1, SVG Export Plug-In . SVG Version: 6.00 Build 0)  -->
<svg version="1.1" id="Ebene_1" xmlns:cc="http://creativecommons.org/ns#"
	 xmlns="http://www.w3.org/2000/svg" xmlns:xlink="http://www.w3.org/1999/xlink" x="0px" y="0px" viewBox="0 0 492.5 492.5"
	 style="enable-background:new 0 0 492.5 492.5;" xml:space="preserve">
<style type="text/css">
	.st0{fill:#FFD72E;}
	.st1{fill:#050102;}
	.st2{fill:#E7423F;}
</style>
<g>
	<path class="st0" d="M246.1,1.5h201.7V298c0,106.7-90.2,193-201.6,193c-111.3,0-201.6-86.3-201.6-193l0-296.5L246.1,1.5L246.1,1.5z
		"/>
	<path d="M246.2,492.5c-27.4,0-54-5.1-79-15.3c-24.2-9.8-45.9-23.8-64.6-41.6c-18.7-17.9-33.3-38.7-43.5-61.8
		c-10.6-24-16-49.5-16-75.8l0-298L245,0l1.1,0h203.2v298c0,26.3-5.4,51.8-16,75.8c-10.2,23.2-24.9,44-43.5,61.8
		c-18.6,17.8-40.4,31.9-64.5,41.6C300.3,487.3,273.7,492.5,246.2,492.5z M46.2,3l0,294.9c0,105.6,89.8,191.5,200.1,191.5
		c110.3,0,200.1-85.9,200.1-191.5V3h-199l0,0h-1.1L46.2,3z"/>
	<path d="M90.8,163.4c-6.3,0-12.7-1.5-13.1-1.6l-0.8-0.2l-0.2-0.7c0-0.1-0.8-2.7-1.4-5.5c-1.4-5.8-1-6.8-0.4-7.4
		c0.4-0.4,1-0.6,1.5-0.4c6.2,1.6,22,3.9,24.6,3.2c0.7-0.2,1.7,0.1,2.1,1.3c0.7,2.2-0.4,8.7-4.6,10.3
		C96.3,163.1,93.6,163.4,90.8,163.4z M79.1,159.4c2.8,0.6,12.9,2.4,18.5,0.4c1.1-0.4,1.8-1.5,2.2-2.4c0.7-1.4,0.9-3,0.8-3.9
		c-0.4,0-0.9,0.1-1.4,0.1c-5.6,0-17.1-2-22.2-3.1C77.3,152.3,78.2,156,79.1,159.4z"/>
	<path class="st0" d="M105.4,159.4c0,0-30.4-0.7-32.3-1.4c-2-0.8,3.6,12.9,11.4,16.1c4.5,1.8,12.6-7.7,21.5-8.5
		C108.3,165.5,105.4,159.4,105.4,159.4"/>
	<path d="M96.7,149.9c-0.5,0.5-0.9,7.5-0.9,7.5l6.8,9.7c0,0,5.5-1.8,5.3-0.6c0.7,3.3-2.8,5.8,2.1,7.1c4.9,1.3,4.9-6.9,19.4-6.4
		c14.6,0.5,19.4,2.1,23.2,7.7c4.7,7,7.8,27,9,29.9c0.9,2.2,3.5,8.8,7.2,10.4c3.9,1.5,8.9-5.9,8.9-6.2c0-1.7-1.7-3.5-1.7-5
		c0-1.5,2.1-5.4,3.7-7.9c2-3.3-6.4-22.3-6.9-24.4c-0.1-3.7-1.5-7.3-1.5-7.3s-2.4-4.5-3.6-5.6c-1.2-1.1-1.4-2.4-2.7-2.8
		c-1-0.3-13.3-2.7-21.6-2.8c-2.4,0-20.3-3.1-22.3-1.7C114.3,149.4,103.6,142.2,96.7,149.9"/>
	<path d="M248.4,359.4c-0.3,0-0.7,0-1,0l-0.1,0c-6.8-0.8-9.6-12.4-8.4-22.7c0.8-7.1,6.8-13.5,12.2-17.2c1.8-1.2,5-3.2,6.9-2.7l1,0.2
		l0.2,1c0,0.2,4.1,29.9,4.1,31.2c0,1.4-2.4,4.1-3.9,5.5C256.8,356.8,253,359.4,248.4,359.4z M247.6,356.4c6.6,0.5,11.8-5.9,12.6-7.5
		c-0.3-2.6-3-23.2-3.8-29c-3.5,1.4-13.5,8.6-14.5,17.1C240.7,346.6,243.5,355.8,247.6,356.4z M257.3,319.6L257.3,319.6L257.3,319.6z
		"/>
	<path class="st0" d="M280.2,347.3c-5.8-9.2-17.8-27.7-17.8-27.7s-11.3,2.1-10.4,21C252.8,359.6,274.8,358.1,280.2,347.3"/>
	<g>
		<path d="M266.1,356.7c-1.2,0-2.4-0.1-3.6-0.4c-3.3-0.7-6.1-2.4-8.2-4.8c-2.3-2.8-3.6-6.4-3.8-10.8c-0.5-10.3,2.6-15.8,5.3-18.7
			c3-3.2,6.2-3.9,6.4-3.9l1-0.2l0.5,0.8c0.1,0.2,12.1,18.6,17.8,27.7l0.4,0.7l-0.4,0.8C278.9,353.3,272.5,356.7,266.1,356.7z
			 M261.7,321.4c-2.5,1-9,4.9-8.3,19.2c0.3,6.9,3.8,11.6,9.6,12.8c5.9,1.2,12.6-1.4,15.4-6C273.3,339.3,264.2,325.2,261.7,321.4z"/>
		<path d="M85.8,175.7c-0.6,0-1.2-0.1-1.8-0.3c-4.4-1.8-7.8-6.5-9.4-9.1c-0.2-0.3-4-6.5-3.1-8.7c0.3-0.8,1.2-1.2,2.1-0.9
			c1.8,0.5,20.5,1.1,31.9,1.4l0.8,0l0.4,0.8c0.9,1.9,2.2,5.3,1.2,7.1c-0.4,0.6-1,1-1.7,1.1c-4.2,0.3-8.3,2.8-11.9,5.1
			C91.1,173.9,88.3,175.7,85.8,175.7z M74.3,159.5c1.1,3.2,5.3,11.1,10.7,13.3c1.6,0.7,4.6-1.2,7.8-3.1c3.8-2.3,8-4.9,12.7-5.4
			c0-0.7-0.4-2.2-1-3.6c-2.2-0.1-8.4-0.2-14.6-0.4C80.4,160,76.2,159.7,74.3,159.5z M105.9,164.3
			C105.9,164.3,105.9,164.3,105.9,164.3C105.9,164.3,105.9,164.3,105.9,164.3z M73.6,156.7C73.6,156.7,73.6,156.7,73.6,156.7
			C73.6,156.7,73.6,156.7,73.6,156.7z"/>
		<path d="M80.9,260c-1.5,0-3.4,0-5.3-0.1c-2.4,0-4.3-0.1-5.8-0.3c-2.5-0.2-3.7-0.5-4-1.6c-0.2-0.7,0-1.4,0.6-1.8
			c0.6-0.6,2.8-3.8,4.7-6.4c5.5-8,7.5-10.6,8.8-11c1.9-0.6,10.2-3.1,10.6-3.2l2.8-0.8l-8.4,25.2l-1.1,0C83.7,260,82.5,260,80.9,260z
			 M69.8,256.7c2.8,0.2,8,0.3,12.8,0.3l5.9-17.7c-2.6,0.8-6.4,1.9-7.6,2.3c-1.1,0.8-5.1,6.5-7.4,9.9
			C71.9,253.8,70.7,255.5,69.8,256.7z M80.9,241.6C80.9,241.6,80.9,241.6,80.9,241.6z"/>
	</g>
	<path class="st0" d="M90.1,235.3c0,0,12.5,1.9,11.7,1.7c-0.8-0.2,0.7,17.8,0.2,18.7c-0.5,1.1-15.3,11.6-24,8.2
		C76.6,263.4,90.1,235.3,90.1,235.3"/>
	<path d="M81.9,266c-1.6,0-3.1-0.2-4.5-0.8c-0.4-0.2-0.7-0.5-0.9-0.9c-0.3-0.8-0.7-1.6,5.9-16c3.1-6.9,6.3-13.6,6.4-13.7l0.5-1
		l1.1,0.2c3.9,0.6,10.2,1.6,11.4,1.7c0.2,0,0.3,0,0.5,0.1c0.8,0.2,1.3,1,1.1,1.8c0,0-0.1,0.2-0.2,0.5c-0.1,1.4,0.1,6,0.2,9.2
		c0.4,8,0.3,8.8-0.1,9.5l0,0c-0.9,1.4-5.7,4.5-9.6,6.4C90.3,264.4,86,266,81.9,266z M79.6,262.8c3.9,0.9,8.8-0.8,12.4-2.5
		c4.4-2,7.8-4.5,8.6-5.3c0.1-1.2-0.1-5-0.2-7.9c-0.2-4.7-0.3-7.3-0.3-8.8c-0.1,0-0.2,0-0.3,0c-1-0.1-2.3-0.3-4.1-0.6
		c-1.8-0.3-3.7-0.6-4.8-0.7C85.8,247.7,80.7,259.3,79.6,262.8z M100.5,255.2L100.5,255.2L100.5,255.2z"/>
	<path d="M127.9,426.9c-6,0-6.9-0.7-7.4-1.5c-0.8-1.3,0.2-2.6,2.7-5.1c1.5-1.5,3.6-3.4,6.4-5.8c4.6-4,9.4-7.8,9.4-7.8l0.4-0.3l0.5,0
		c0.1,0,2.4-0.2,4.8-0.1c3.8,0.2,6,0.9,7,2.2c1.1,1.5,0.4,3.7-6,10.5c-3.4,3.6-7.1,7.1-7.1,7.1l-0.4,0.4l-0.5,0c0,0-3.8,0.3-7.6,0.4
		C129.2,426.9,128.5,426.9,127.9,426.9z M124,423.8c2.5,0.3,8,0.1,12.9-0.2c0.9-0.9,3.4-3.3,5.9-5.9c4.7-4.9,5.8-6.9,6.1-7.6
		c-0.5-0.2-1.7-0.6-4.5-0.8c-1.7-0.1-3.2,0-4,0C133.6,414.8,126.4,421.1,124,423.8z M122.7,423.5L122.7,423.5z"/>
	<path class="st0" d="M151.4,405.3l6.5,2.4c0,0,1.7,17.8-0.6,20.4c-2.3,2.8-15.5,8.6-26.7,3.6C128,430.4,151.4,405.3,151.4,405.3"/>
	<path d="M140.3,435.1c-3.4,0-6.9-0.6-10.3-2.1l-0.1,0c-0.5-0.3-0.9-0.8-1-1.4c-0.2-1,0.3-2.5,3.3-6.5c1.7-2.3,4.2-5.3,7.3-8.9
		c5.3-6.1,10.7-11.9,10.7-12l0.7-0.7l8.4,3l0.1,0.9c0,0,0.4,4.6,0.6,9.3c0.3,8.9-0.6,11.2-1.5,12.2
		C156.6,431.3,149,435.1,140.3,435.1z M132.2,430.7c10.7,4.1,22.5-1.7,24-3.6l0,0c0.1-0.1,1-1.5,0.8-10.2c-0.1-3.4-0.3-6.6-0.5-8.1
		l-4.7-1.7c-1.5,1.7-5.5,6-9.5,10.6C135,426.1,132.8,429.5,132.2,430.7z M358.8,430.5c-0.3,0-0.5-0.1-0.7-0.1
		c-0.4-0.2-0.8-0.5-0.9-0.9c-0.1-0.4-0.3-0.8,0.2-4.9c0.3-2.5,0.8-5.5,1.3-8.4c2.3-12.4,3.7-13.6,4.2-14.1l0.1-0.1
		c0.2-0.1,0.4-0.3,0.6-0.4c3-2.1,6.3-4.6,11.6-4.8l1.6-0.1l-0.9,27L375,424c0,0-3.7,1.7-7.4,3.4C361.7,430,359.7,430.5,358.8,430.5z
		 M364.9,404.3c-0.5,0.6-1.7,3.8-3.2,12.1c-0.8,4.6-1.4,8.7-1.6,10.8c2.5-0.8,8-3.2,12.9-5.5l0.8-21.8c-3.5,0.6-5.9,2.3-8.3,4
		C365.2,404,365,404.2,364.9,404.3z"/>
	<path class="st0" d="M375,391.5c0,0-8.4,37.1-7.5,38.4c0.6,1.1,21.3-9,22.3-16.3c0.9-7.1-5.6-23.6-5.6-23.6L375,391.5z"/>
	<path d="M367.8,431.5c-0.8,0-1.3-0.4-1.5-0.8c-0.5-0.7-0.8-1.5,3.2-20.8c2-9.3,4.1-18.7,4.1-18.8l0.2-1l11.4-1.9l0.4,1.1
		c0.3,0.7,6.6,17,5.7,24.3l0,0c-0.5,3.4-4.1,7.2-10.6,11.5c-5.1,3.3-10.3,5.8-12.3,6.2C368.2,431.5,368,431.5,367.8,431.5z
		 M376.3,392.9c-2.7,11.9-6.5,29.8-7.2,35.3c1.9-0.7,5.6-2.5,9.6-5.1c5.7-3.6,9.3-7.2,9.7-9.6c0.7-5.6-3.7-17.9-5.1-21.7
		L376.3,392.9z"/>
	<path d="M264.9,313.4c-2.4,3-6,4.5-6.4,3.6c1.3-8.2-2.3-18.2-8.6-26.2C257.4,291.9,267.7,310.2,264.9,313.4 M163.7,243.9
		c1.1,1.5-1.3,6.4,1.5,10.5c2.1,3,7.5,1.7,8.8,3.6c2.3,3,7.9,18.5,22.5,6.4c3.6,8.2,55.2,24.3,50.9,23c-20.3-4.9-18.9,1.9-22.9,0.4
		c-4-1.7-14.3-7.5-17.6,4.7c-8.4-2.1-12.3-1.5-18,9.7c-1.2,0.6-15.2,3.2-11.5,18c-8.6,4.9-6.3,12.5,1.4,20.8
		c-1,8.2-3.2,14.6,11,16.3c0.8,1.3,2.5,7.1,14.4,6.4c2.3,3.9-0.4,5.6-0.4,5.6s-32.3,23.2-46.5,23.8c-5.7,0.4-5.5,0.9-6.9,2.1
		c-1.5,1.3-5.5,10.9-5.5,10.9s-1.6,2.6,0.7,3.6c2.2,1.3,7.9,3.4,11.9,3.6c1.2,0.2,2.9-0.4,3.6-3c0.7-2.8,6.2-4.9,6.9,3
		c0.1,0.9,4.8-0.2,5.2-0.9c3.5-5.6,6.2-14,21.4-20.2c12.5-4.9,35.6-13.1,37.4-14.2c1.8-1.3,2.6-8.2,1.1-10.5
		c-1.6-2.1-5.6-7.5-5.6-7.5s14.7-5.2,15.9-5.6c-10.9-16.7,4.4-38.4,19.3-35c-0.4,0.4-4.5,4.9,3.2,10.3c-5.4,11.2,8.6,13.7,8.6,13.7
		s0.4,7.3,1.9,8.4c1.5,1.1,1.5,1.3,13.1,0.4c3.4-0.2,9.9,12.2,21.9,0c2.6,6.4,17.2,9.2,19.7-0.2c14.4,7.7,19.5-7.3,18.5-9.9
		c1.9,0,1.9-0.2,2.6-1.7c6.9,3.6,7.9,10.7,11.2,20c3.4,10.5,7.1,22.3,7.1,22.3s0.6,4.9-0.2,5.6c-2.1,1.3-4.1,6.7-2.1,12.2
		c13.1,6.7,19.7,0.9,19.7-0.2c0.2-1.1,0.9-4.5,1.9-5.4c1.1-0.9,6.2-3.2,6.2-4.5c-0.2-1.3-1.7-3.2-3.9-5.6c-2.4-1.1-3.9-4.3-5.8-5.4
		c-3.4-1.9-14.6-38-15.9-43.4c-1.1-5.4,3.4-19.1-4.1-20.6c-6.7-1.3-9.4,6.2-13.7,2.4c-1.1-1.3,2.8-2.4-0.4-7.3
		c-0.6-0.9-3.2-3.9-8.2-2.8c1.7-10.5-10.9-11.6-10.9-11.6s1.9-5.2-6-17.6c20.8,1.5,18.7-6,22.1-6.9c1.7-0.4,16.7,4.5,18.5-6.4
		c2.1,0,12.9,1.5,15.2-9.9c11.4,2.6,13.3-10.3,13.3-10.3s15.2-2.8,7.9-14.4c5.8-4.7,6.4-13.5-4.7-14.8c0.4-12.3-9.2-13.2-15.5-6.7
		c-0.4-1-10.3-8.2-16.5,7.1c-13.5-1.9-11.8,10.7-11.8,10.7s-10.9-2.8-10.1,13.3c-4.9,0.6-4.3,4.3-4.3,4.3s2.1,22.3-17,26.2
		c-7.1-11.8-27.9-17.8-42.3-25.5c-9.7-4.9-16.1-10.7-15-12.7c6-11.4,3.6-14,3.6-14s10.3-4.9,8.6-11.6c10.1-3.1,7.1-11.3,9-13.5
		c1.7-2.2,10.5-1.1,6.4-12.9c-0.9-2-11.8-5.8-15.9-11.7c-0.9,0-1.5,0.1-1.5,0.1s-0.4-8.2-3.9-8.5s-8.4,5.8-12.5,5.6
		c-2.1-0.1-8.5-0.4-10.2-0.6c-1.7-0.3-8,4.9-8,4.9s-14-3.3-17.9,4.7c-10.2-4.9-15.3,4-15.3,4s-13-4.1-15.3,11.4
		c-14.8,2.6-13.9,10.2-13.6,13.7c0.3,3.4,1.8,3.5,0.7,7c-5.3,1.4-10.6,7.8-10.6,7.8s-1.9,0.9-8.2-4.3c-7.5-6-11.1-8.9-12.8-10.8
		c-1.8-2-6.5-3.1-13.8,0.2c-3.2,1.4-2.7,2.7-11.6,8.4c-10.5,6.8-22,14.9-29.3,13.8c-4.4-0.6-12.6,6.2-12.6,12
		c-0.1,5.6,21.1,4.9,21.3,2.6c0.3-2.4,1.9-3.4,1.9-3.4s5.1,10.3,11.3,2.6c6.2-7.7,11.2-11.8,11.2-11.8s8.1-9,15.8-5.6
		S156.8,236.6,163.7,243.9"/>
	<path d="M276.4,104.2l-2.8-0.8c9.3-32.1-1.7-46.9-9.1-52.9c-11.3-9.1-26.5-8.8-35.8-3.8c-7.2,3.9-10.7,10.1-9.9,17.6l-2.9,0.3
		c-0.8-8.6,3.3-16.1,11.5-20.5c5.5-3,12.3-4.3,19.3-3.7c7.4,0.6,14.2,3.3,19.8,7.8C274.3,54.6,286.2,70.4,276.4,104.2z"/>
	<path d="M288.3,133.9c-0.4,0-0.8-0.1-1.1-0.4l1.9-2.4c-0.4-0.4-1-0.3-1.2-0.2c0.2-0.1,1.2-1,4.2-6.3c2-3.5,4.3-8,6.3-12
		c3.6-6.9,5.6-10.9,6.7-12.1c2.4-2.5,3.7-6,3.7-9.7c0-5.9-3.3-11.2-8.3-13.1l-1.7-0.7l1-1.5c1.8-2.9,2.8-6.3,2.8-10l0,0
		c0.1-5-1.7-9.7-5-13.1c-2.8-2.9-6.5-4.5-10.3-4.5l-0.1,0c-0.3,0-0.7,0-1.1,0.1l-3.5,0.4l2.2-2.8c3.2-4.1,3.8-9.4,1.4-13.5l0,0
		c-1.4-2.5-3.7-4.3-6.5-5c-3.1-0.8-6.5-0.2-9.4,1.6l-0.1,0c-0.5,0.3-0.7,0.4-0.7,0.4l-2.3,2.7l-0.4-3.5c-0.2-1.7-0.8-3.3-1.7-4.7
		l0,0c-1.4-2.3-3.7-3.8-6.4-4.3c-3.2-0.6-6.6,0.2-9.5,2.2c-0.6,0.4-1.1,0.9-1.7,1.5l-1.3,1.3l-1-1.4c-1.5-2.1-3.8-3.6-6.5-4
		c-3.1-0.5-6.3,0.3-9.1,2.3c-1.5,1.1-2.8,2.5-3.8,4.1l-0.7,1.2l-1.3-0.7c-3.4-1.9-7.3-1.7-10.3,0.5c-4.3,3.1-5.6,9.3-3,14.5l1.1,2.3
		l-2.6-0.2c-2.8-0.2-5.4,0.8-7.2,2.8c-3.9,4.1-3.6,11.2,0.8,15.8c0.3,0.3,0.6,0.6,0.9,0.8l1.1,1.1l-1.1,1.1
		c-0.1,0.1-0.2,0.2-0.3,0.3c-0.1,0.1-0.1,0.1-0.2,0.2c-3.7,3.9-3.7,10.3,0.1,14.3c2.6,2.8,6.5,3.7,9.9,2.5l3-1.1l-1.1,3
		c-1.3,3.6-0.6,7.5,1.8,10c1.6,1.7,3.7,2.6,6,2.6c0,0,0,0,0,0c2.6,0,5.1-1.2,7.1-3.2c0.7-0.7,1.2-1.5,1.7-2.4l1.1-2l1.4,1.8
		c1.6,2.1,3.9,3.3,6.3,3.6c2.1,0.2,4.2-0.4,5.8-1.8c3.2-2.8,3.9-7.9,1.6-12l-0.6-1.1l1-0.8c2.6-2.1,3.7-4.7,3.2-7.5
		c-0.6-3.2-3.4-6.2-6.8-7.2c-1.5-0.5-4.1-0.8-6.7,0.8c1.8,1.5,2.9,3.5,2.9,5.7c0,2.4-1.3,4.5-3.5,5.6c-2.8,1.3-5.1,1.7-7,1
		c-3.7-1.2-6-4.2-6.8-8.6c-0.7-3.6-0.1-7,0.3-8.3c1.2-4,4.1-7.2,8.4-9.2c6.3-3,15.3-3,22.2-0.1l0.1,0c2.7,1.1,9.7,4,13.6,12.7
		c4.8,10.6,3.5,26-3.9,45.9l-2.8-1c11-29.6,8.3-48-8.1-54.8l-0.1,0c-6.2-2.6-14.1-2.6-19.8,0c-2.4,1.1-5.6,3.3-6.8,7.4
		c-0.4,1.2-0.8,4.1-0.3,6.9c0.6,3.3,2.2,5.4,4.8,6.3c1.1,0.4,2.7,0.1,4.7-0.9c1.2-0.6,1.8-1.6,1.8-2.9c0-1.7-1.3-3.4-3.1-4.3l-2-0.9
		l1.5-1.5c3.1-3,7.2-4,11.2-2.8c4.5,1.4,8,5.2,8.8,9.6c0.7,3.5-0.5,6.9-3.3,9.6c2.4,5.2,1.3,11.2-2.8,14.7c-2.2,1.9-5.1,2.8-8,2.5
		c-2.6-0.3-5-1.4-6.9-3.2c-0.3,0.5-0.7,0.9-1.1,1.3c-2.5,2.6-5.9,4.1-9.2,4.1c0,0,0,0,0,0c-3.1,0-6-1.3-8.2-3.5
		c-2.6-2.8-3.7-6.6-3.1-10.5c-3.8,0.5-7.8-0.9-10.5-3.9c-4.6-4.9-4.8-12.8-0.6-17.8c-5.3-5.8-5.6-14.7-0.7-19.9
		c1.9-2.1,4.5-3.3,7.3-3.6c-1.9-6,0-12.6,4.8-16.1c3.6-2.5,8.2-3,12.3-1.3c1.1-1.5,2.4-2.8,3.9-3.9c3.4-2.5,7.5-3.5,11.4-2.8
		c2.9,0.5,5.4,1.9,7.4,3.9c0.3-0.2,0.6-0.5,0.9-0.7c3.5-2.5,7.8-3.5,11.8-2.7c3.5,0.7,6.5,2.7,8.3,5.7c0.7,1.1,1.3,2.4,1.7,3.7
		c3.4-1.9,7.4-2.5,11-1.5c3.6,0.9,6.6,3.2,8.4,6.4c2.5,4.4,2.5,9.8,0,14.4c4.1,0.4,7.9,2.3,11,5.4c3.8,3.9,5.9,9.5,5.8,15.2
		c0,3.6-0.8,7.1-2.4,10.1c5.2,2.8,8.6,8.7,8.6,15.2c0,4.5-1.6,8.7-4.5,11.8c-0.8,0.9-3.7,6.5-6.2,11.4
		c-7.5,14.7-10.2,19.3-12.3,19.8C288.6,133.9,288.5,133.9,288.3,133.9z"/>
	<path class="st0" d="M396.5,164.3c4.9-3.2,7.9-9.1,7.1-15.5c-0.6-5.6-4.1-10-8.6-12.3c1.3-2.6,1.7-5.6,1.5-8.6
		c-1.1-8.4-8.4-14.3-17-13.7c0.9-1.8,1.3-3.7,1.1-5.7c-0.9-6.3-7.1-10.6-14-9.7c-3.6,0.5-6.9,2.4-8.8,5c-2.4-6.9-9.4-11.3-17-10.3
		c-4.9,0.6-9,3.3-11.6,7.1c-3.6-2.4-8.6-3.6-13.7-3c-10.3,1.4-17.6,9.1-16.5,17.3c0.2,2.6,1.3,5,3,7l-15.2,10.4l14.2,20.3
		c0,0,20.4-15.8,37.8-14.9c19.5,0.9,29.2,9.8,28.3,26.1c-0.9,14.2-15.5,14.1-18.2,7.1c-3-7,3.4-10.6,3.4-10.6
		c-8.8-8.7-17.6-1.7-18.9,4.1c-3-0.7-6-0.2-8.4,1.9c-4.3,3.6-4.7,10.4-1.1,15.2c0.9,0.9,1.5,1.7,2.4,2.3c-2.4,3.9-2.1,9.5,1.1,13.7
		c3.9,5.1,10.5,6.2,15,2.5c0-0.1,0.2-0.2,0.2-0.3c0.4,1,1.1,2,1.7,2.9c3.9,5.1,10.7,6,15.5,2.1c1.7-1.5,3-3.6,3.4-5.9
		c0.4,0.3,0.6,0.6,0.9,0.9c5.4,5.2,13.7,4.8,18.7-0.8c3.4-3.8,4.5-9.1,3-13.8c0.9,0,1.5,0,2.1-0.1c7.9-1.1,13.7-7.1,12.9-13.5
		C400.4,168.5,398.9,166,396.5,164.3"/>
	<path d="M353.1,208.7c-0.4,0-0.9,0-1.3-0.1c-3.4-0.4-6.5-2.2-8.7-5l0,0c-0.3-0.4-0.6-0.9-1-1.4c-2.1,1.3-4.6,1.9-7.2,1.6
		c-3.4-0.4-6.6-2.3-8.8-5.2c-3.2-4.2-3.9-9.7-1.8-14.2c-0.3-0.3-0.7-0.7-1-1c-0.2-0.2-0.4-0.4-0.6-0.6l-0.1-0.1
		c-4.1-5.5-3.6-13.2,1.3-17.3c2.3-2,5.2-2.8,8.3-2.4c1.3-3.5,4.5-6.5,8.2-7.5c4.3-1.3,8.9,0.2,12.8,4.1l1.4,1.4l-1.8,1
		c0,0-1.4,0.8-2.4,2.3c-1.3,1.9-1.4,4-0.4,6.4l0,0c1,2.6,4.3,4.1,7.7,3.6c4.4-0.7,7.3-4.5,7.6-10.2c0.4-6.9-1.3-12.5-4.9-16.4
		c-4.4-4.9-11.8-7.6-22-8.1c-16.6-0.8-36.6,14.4-36.8,14.6l-1.3,1l-15.9-22.9l15.2-10.4c-1.3-1.9-2.1-4.1-2.3-6.5
		c-0.6-4.4,1-8.9,4.4-12.5c3.3-3.5,8.1-5.8,13.4-6.5c4.8-0.6,9.6,0.3,13.6,2.5c2.9-3.6,7.2-6,11.8-6.6c7.3-1,14.3,2.8,17.6,9.1
		c2.2-2,5-3.3,8.2-3.7c7.7-1,14.7,3.9,15.6,11l0,0c0.2,1.4,0,2.9-0.4,4.3c8.4,0.5,15.2,6.6,16.3,15.1l0,0.1c0.2,3-0.2,5.7-1.1,8.1
		c4.5,2.7,7.5,7.4,8.2,12.7c0.8,6-1.6,11.9-6.2,15.7c1.8,1.8,3,4.2,3.4,6.8c0.5,3.6-0.8,7.2-3.5,10.1c-2.7,2.8-6.4,4.7-10.6,5.2
		c-0.1,0-0.3,0-0.4,0c0.9,4.7-0.5,9.7-3.8,13.3c-2.7,3.1-6.3,4.8-10.3,5c-3.5,0.1-6.9-1-9.7-3.3c-0.7,1.6-1.8,3-3.1,4.2l0,0
		C358.6,207.7,355.9,208.7,353.1,208.7z M345.6,201.7c1.7,2.2,4,3.6,6.6,3.8c2.4,0.3,4.8-0.4,6.7-2c1.5-1.4,2.6-3.2,2.9-5l0.4-2.3
		l1.9,1.3c0.6,0.4,0.9,0.8,1.1,1.2c2.3,2.2,5.2,3.3,8.2,3.1c3.1-0.1,6-1.5,8.1-4c3-3.4,4.1-8.1,2.7-12.3l-0.6-2h2.1
		c0.7,0,1.4,0,1.9-0.1c3.5-0.5,6.6-2,8.8-4.3c2.1-2.2,3.1-4.9,2.7-7.6c-0.4-2.5-1.6-4.6-3.7-6.1l-1.8-1.3l1.8-1.2
		c4.6-3,7.2-8.5,6.4-14l0,0c-0.6-4.8-3.5-9-7.8-11.1l-1.3-0.7l0.7-1.3c1.1-2.2,1.6-4.9,1.4-7.8c-1-7.6-7.6-12.9-15.4-12.4l-2.6,0.2
		l1.1-2.3c0.8-1.6,1.1-3.2,0.9-4.8c-0.8-5.4-6.3-9.2-12.3-8.4c-3.2,0.4-6.1,2-7.8,4.4l-1.7,2.3l-0.9-2.7c-2.2-6.3-8.6-10.2-15.3-9.3
		c-4.3,0.5-8.1,2.8-10.5,6.4l-0.8,1.2l-1.2-0.8c-3.5-2.3-8.1-3.3-12.7-2.7c-4.6,0.6-8.8,2.6-11.6,5.6c-2.8,2.9-4.1,6.5-3.6,10l0,0.1
		c0.2,2.2,1.1,4.3,2.6,6.1l1.1,1.3l-15.4,10.5l12.4,17.8c2-1.4,6.1-4.2,11.3-7c9.9-5.2,18.7-7.7,26.2-7.3c11,0.5,19.2,3.6,24.1,9.1
		c4.2,4.6,6.1,10.9,5.7,18.6c-0.5,8.5-5.6,12.3-10.2,13c-4.8,0.8-9.4-1.5-11-5.4c-2.2-5.2,0.1-9.2,2.4-11.3c-2.8-2.2-5.7-3-8.5-2.1
		c-3.5,1-5.9,4.2-6.5,6.7l-0.3,1.5L333,166c-2.6-0.6-5.1-0.1-7,1.5l0,0c-3.6,3-4,8.9-0.9,13.1c0.2,0.2,0.4,0.4,0.5,0.6
		c0.5,0.6,1,1.1,1.6,1.5l1.1,0.8l-0.7,1.2c-2.1,3.5-1.7,8.5,1,12c1.7,2.3,4.2,3.7,6.7,4c2.2,0.3,4.3-0.3,6-1.7
		c0.1-0.1,0.1-0.2,0.2-0.2c0,0-0.1,0.1-0.1,0.2c0,0,0.1,0,0.1-0.1l0.6,0.7l2-0.4C344.4,200.1,345,201,345.6,201.7z M357.1,184.7
		c-0.6,0-1.1,0-1.7-0.1c-6.3-0.6-11.4-4.7-14.1-11.1l2.8-1.2c2.3,5.5,6.4,8.8,11.6,9.3c5.6,0.5,11.4-2.4,14.8-7.4
		c4.8-7.1,4.4-17.2-1.1-27.7c-4.1-8-12.1-13.3-22.6-15c-13.3-2.2-28.1,1.8-36.7,9.9l-2.1-2.2c9.2-8.8,25-13.1,39.2-10.7
		c11.4,1.9,20.2,7.8,24.8,16.6c3.2,6.1,4.8,12,4.8,17.6c0,4.9-1.4,9.5-3.9,13.2C369.2,181.4,363.2,184.7,357.1,184.7z"/>
	<g>
		<path class="st0" d="M287.2,130c2.4,2.9,7.5,2.3,11.6-1.3c4.3-3.6,5.8-9,3.4-11.9c-2.4-2.9-7.7-2.3-11.8,1.3
			C286.4,121.7,284.9,127.1,287.2,130"/>
		<path class="st0" d="M269.6,112.4c2.4,3.1,7.7,2.6,11.8-1.1c4.3-3.6,5.6-9.1,3.2-12.2c-2.4-3.1-7.7-2.6-12,1.1
			C268.6,103.9,267.3,109.3,269.6,112.4"/>
		<path class="st0" d="M300.8,146.6c2.6,3,7.9,2.5,12-1.2c4.3-3.7,5.8-9.2,3.4-12.3c-2.6-3.1-7.9-2.5-12,1.2
			C299.9,138,298.4,143.5,300.8,146.6"/>
	</g>
	<path d="M305.4,149.8c-0.2,0-0.4,0-0.6,0c-2.1-0.1-3.8-1-5-2.4l0,0c-1.4-1.8-1.7-4.3-1-7c0.7-2.6,2.3-5.1,4.6-7
		c2.7-2.4,5.9-3.7,8.8-3.5c2.1,0.1,3.8,1,5,2.4l0,0c2.8,3.6,1.2,9.8-3.6,14C311.2,148.6,308.2,149.8,305.4,149.8z M301.8,145.8
		c0.8,0.9,1.9,1.4,3.2,1.5c2.2,0.1,4.9-0.9,7-2.9l0,0c3.7-3.2,5.2-8,3.3-10.5c-0.8-0.9-1.9-1.4-3.2-1.5c-2.2-0.1-4.9,0.9-7,2.8l0,0
		C301.3,138.5,299.8,143.3,301.8,145.8z M291.5,133.1c-0.2,0-0.4,0-0.7,0c-1.9-0.2-3.5-1-4.5-2.3l0,0c-2.8-3.5-1.3-9.5,3.4-13.7
		c2.7-2.4,6.1-3.7,9-3.5c1.9,0.2,3.5,1,4.6,2.3c2.8,3.5,1.3,9.5-3.6,13.7C297.2,131.8,294.2,133.1,291.5,133.1z M288.2,129.2
		c0.8,1,2,1.3,2.8,1.4c2.2,0.2,4.8-0.9,7-2.9l0,0c3.7-3.1,5.2-7.8,3.3-10.2c-0.8-1-2-1.3-2.9-1.4c-2.3-0.2-4.9,0.9-7.1,2.9
		C287.8,122.2,286.3,126.9,288.2,129.2L288.2,129.2z M274.2,115.7c-0.3,0-0.5,0-0.8,0c-2-0.2-3.6-1-4.7-2.5
		c-2.8-3.6-1.4-9.8,3.2-13.9l0,0c2.8-2.4,6.3-3.6,9.2-3.3c2,0.2,3.6,1.1,4.6,2.5c2.8,3.7,1.3,9.9-3.4,13.9
		C279.9,114.4,276.9,115.7,274.2,115.7z M273.5,101.1c-3.5,3.2-4.8,7.9-2.8,10.5l0,0c0.8,1.1,2.1,1.4,3,1.5c2.2,0.2,4.8-0.8,7-2.7
		l0,0c3.6-3.1,5-7.9,3-10.4c-0.8-1.1-2-1.4-2.9-1.5C278.5,98.2,275.8,99.2,273.5,101.1z"/>
	<path class="st0" d="M258.7,107.1c5.4-11.3,3-23.2,3-23.2s17.8,8.4,9.9,32.4C270.7,115.5,263.2,109.6,258.7,107.1"/>
	<path class="st0" d="M301.8,153.9c11.8-7,28.8-3.8,28.8-3.8s-12.7-19.1-34.1-4.7C297.3,146.1,300.1,149.4,301.8,153.9"/>
	<path d="M272.3,119l-1.7-1.6c-0.7-0.6-8.2-6.5-12.6-9l-1.2-0.7l0.6-1.3c5.1-10.7,2.9-22.2,2.9-22.3l-0.6-2.9l2.7,1.3
		c0.2,0.1,4.9,2.3,8.5,7.7c3.3,4.9,6.4,13.6,2.1,26.5L272.3,119z M260.6,106.5c3.4,2.1,7.7,5.3,10.2,7.2c2.4-8.5,1.6-15.8-2.3-21.6
		c-1.6-2.4-3.4-4.1-4.8-5.2C263.9,91.1,263.9,98.8,260.6,106.5z"/>
	<path d="M301.1,156.1l-0.6-1.6c-1.6-4.2-4.2-7.3-4.9-8l-1.5-1.3l1.6-1.1c7.1-4.8,14.1-6.5,20.7-5.2c9.8,2,15.3,10,15.5,10.3
		l1.9,2.9l-3.4-0.6c-0.2,0-16.6-3-27.7,3.7L301.1,156.1z M298.8,145.7c1.1,1.4,2.6,3.6,3.8,6.2c8.5-4.4,18.9-4.2,24.4-3.7
		c-2.3-2.3-6.1-5.3-11.2-6.3C310.4,140.8,304.7,142.1,298.8,145.7z"/>
	<g>
		<path class="st1" d="M228.7,149.8c-2.2,1.8-34.2,13.1-42.1,2.5c-8.5-11.3,2.8-23.9,4.5-23c1.7,0.9,2.2,14.5,10.7,17
			c8.5,2.5,24.3,1,24.3,1L228.7,149.8L228.7,149.8z"/>
		<path class="st0" d="M267.9,132.5c4.1,4.9,12.5,4.1,19.1-1.7c6.7-5.8,8.8-14.6,4.9-19.4c-3.9-4.9-12.5-4.1-18.9,1.7
			C266.4,118.9,264.1,127.6,267.9,132.5"/>
		<path class="st0" d="M284.5,144.5c3.2,4.1,10.7,3.1,16.7-2.2c6.2-5.3,8.4-12.9,5.2-17c-3.2-4.1-10.7-3.1-16.7,2.2
			C283.6,132.8,281.2,140.4,284.5,144.5"/>
	</g>
	<path d="M290.3,148.5c-0.4,0-0.7,0-1,0c-2.5-0.2-4.6-1.3-6-3.1c-2-2.5-2.3-6.1-1.1-9.8c-2.6,1.2-5.4,1.7-7.9,1.5
		c-3.1-0.2-5.7-1.5-7.5-3.7l0,0c-2.2-2.7-2.7-6.5-1.6-10.7c1.1-4,3.5-7.8,7-10.8c4.1-3.7,9.2-5.6,13.7-5.3c3.1,0.3,5.7,1.6,7.4,3.8
		c2.2,2.8,2.8,6.5,1.8,10.7c-0.1,0.5-0.3,1-0.5,1.5c2.4-1,4.9-1.5,7.1-1.3c2.5,0.2,4.6,1.3,6,3c1.9,2.4,2.3,5.7,1.2,9.4
		c-1,3.5-3.4,6.9-6.6,9.7C298.5,146.6,294.1,148.5,290.3,148.5z M287,132.7c-2.6,4-3.3,8.3-1.4,10.8l0,0c1.1,1.4,2.7,1.8,3.9,1.9
		c3.2,0.3,7.3-1.4,10.7-4.3l0,0c5.4-4.6,7.7-11.5,4.9-14.9c-1.1-1.4-2.7-1.8-3.9-1.9c-2.9-0.3-6.3,0.9-9.4,3.3
		c-1.1,1.6-2.4,3-3.9,4.4C287.7,132.2,287.4,132.5,287,132.7z M269.1,131.5c1.3,1.5,3.2,2.5,5.4,2.6c3.2,0.3,6.9-1,10.2-3.5
		c1.1-1.5,2.4-3,3.9-4.3c0.4-0.3,0.7-0.6,1.1-0.9c1.1-1.6,1.9-3.4,2.3-5.1c0.8-3.2,0.4-6.1-1.2-8.1c-1.2-1.5-3-2.4-5.3-2.6
		c-3.7-0.3-8,1.4-11.4,4.5l0,0c-3,2.6-5.2,6-6.1,9.4C267.2,126.7,267.5,129.5,269.1,131.5z"/>
	<path class="st0" d="M254.3,112.4c24,13.4,38.1,37.3,41.8,45.8c3-1.5,4.1-3.8,6.9-5c-9.4-20.1-27-39.3-43.6-47.8
		C257.8,107.9,256.1,110.1,254.3,112.4"/>
	<path d="M295.3,160.3l-0.6-1.5c-3.5-8.1-17.6-32-41.1-45.1l-1.6-0.9l1.2-1.5c1.8-2.3,3.4-4.3,4.9-6.7l0.7-1.2l1.3,0.7
		c16.9,8.8,34.7,28.3,44.2,48.5l0.7,1.4l-1.4,0.6c-1.2,0.5-2,1.3-3,2.2c-1,0.9-2.2,2-3.8,2.8L295.3,160.3z M256.5,112
		c10,5.9,19.2,14,27.4,24.2c6.1,7.6,10.5,15,12.8,19.9c0.6-0.5,1.2-1,1.8-1.5c0.7-0.7,1.5-1.4,2.4-2c-9.2-18.8-25.4-36.6-41.1-45.2
		C258.8,109,257.7,110.5,256.5,112z"/>
	<path d="M275.4,123.7c9.4,9.2,18.9,22,21.9,31.8c-0.4,0.6,1.5-0.4,0.6,0c3.6,1.4,4.3,2.3,8.2,5.6c1.9,1.8,3.6,3.2,4.7,6.3
		c0.6,2.2,0.6,4.5,0.6,6.8c0.4,7.5-1.7,14.6-4.9,16.6c-4.3,2.7-4.5-3-6.9-6.9c-4.5-7.8-17.2-13-20.8-19.3c-0.9-1.6-2.6-9.5-2.6-9.5
		s-11.2,7.7-17.8,8.5c-6.8,0.8-10.3-4.4-23-4.1c-4.4,3.9-8.9,5.5-12.6,7.1c-3.9,1.7-5.9-5.1-11.2-8.6c2-1.6,16.6,1.2,17.1-8
		c-2.2,1.8-34.2,13.1-42.1,2.5c-8.5-11.3,2.8-23.9,4.5-23c1.7,0.9,2.2,14.5,10.7,17c8.5,2.5,24.3,1,24.3,1s-0.5-0.3-0.9-0.6
		c-0.3,1.1-21.1-0.6-21.1-0.6s-2.8-5.5-0.8-8.7c0.8-1,0.9-1,0.9-1l2.1-4.3c0,0,1.2-1.7,3-1s5.5,0.6,5.5,0.6s17.1-14,22.8-11.6
		c0.5-4.6,7.9-15.8,18.7-10.5c0.7-0.4,0,0.4,0.5,0.7C258.3,110.4,267.1,115.6,275.4,123.7"/>
	<path class="st2" d="M186.5,140.6c-0.2,0.9-0.3,1.8-0.3,2.6c0,2.6,0.8,5.1,2.5,7.3c6,8,30.4,0.9,38.4-2c-7.3,2.3-21.2,1.6-26.6,0.3
		c-6.2-1.4-10-10.2-10.8-15.1v0C188.6,135.3,187.2,137.7,186.5,140.6"/>
	<g>
		<path class="st0" d="M256.9,128.4c-0.4-0.4-4.2-3-5.9-2.8c-0.5-0.5-2.9-1.9-1.6-2.4c0.7-0.3,1.9-0.5,2.2-0.5
			c0.3,0,3.1,0.5,3.7,0.5c2.7,0.4,8.1,4.4,7,11.5C262.1,136.2,258.1,129.4,256.9,128.4"/>
		<path class="st0" d="M215,135.9l1.7-0.5l1.4,0.8l0,0.8l-0.7,1.5l-1.2,1.2l-1.9,1.2h-1.2l-0.7-0.5l-0.5-1l0.7-1.2L215,135.9
			L215,135.9z"/>
		<circle class="st0" cx="254" cy="130" r="4"/>
	</g>
</g>
</svg>
