<?xml version="1.0" encoding="utf-8"?>
<!-- Generator: Adobe Illustrator 25.0.1, SVG Export Plug-In . SVG Version: 6.00 Build 0)  -->
<svg version="1.1" id="Ebene_1" xmlns="http://www.w3.org/2000/svg" xmlns:xlink="http://www.w3.org/1999/xlink" x="0px" y="0px"
	 viewBox="0 0 492.5 492.5" style="enable-background:new 0 0 492.5 492.5;" xml:space="preserve">
<style type="text/css">
	.st0{fill:#FFFFFF;}
	.st1{fill:#16A74E;}
	.st2{fill:#E8423F;}
	.st3{fill:none;stroke:#010202;stroke-width:3.048;}
	.st4{fill:#FFD730;}
	.st5{fill:none;stroke:#010202;stroke-width:3.048;stroke-miterlimit:17;}
	.st6{clip-path:url(#SVGID_2_);fill:#FFD730;}
	.st7{clip-path:url(#SVGID_4_);fill:none;stroke:#010202;stroke-width:3.048;stroke-miterlimit:16;}
	.st8{fill:none;stroke:#010202;stroke-width:3.048;stroke-miterlimit:9;}
	.st9{fill:none;stroke:#010202;stroke-width:3.048;stroke-miterlimit:5;}
	.st10{fill:#010202;}
	.st11{fill:none;stroke:#010202;stroke-width:3.048;stroke-miterlimit:7;}
	.st12{fill:none;stroke:#010202;stroke-width:3.048;stroke-miterlimit:10;}
	.st13{clip-path:url(#SVGID_6_);fill:none;stroke:#010202;stroke-width:3.048;}
	.st14{clip-path:url(#SVGID_8_);fill:none;stroke:#010202;stroke-width:3.048;stroke-miterlimit:7;}
	.st15{clip-path:url(#SVGID_10_);fill:none;stroke:#010202;stroke-width:3.048;}
</style>
<g>
	<path class="st0" d="M246.1,1.5h201.7V298c0,106.5-90.3,192.9-201.6,192.9c-111.4,0-201.6-86.4-201.6-192.9V1.5L246.1,1.5
		L246.1,1.5z"/>
	<path class="st1" d="M44.6,298c0,106.5,90.2,192.9,201.6,192.9c74.5,0,139.4-38.6,174.4-96.1L44.6,3.8V298z"/>
	<path class="st2" d="M168.3,186.2c-1.2-0.5-6.1-1.5-7.3,0.6c-7,12,4.5,38.7,15.3,44c5.8,2.8,5.9,0.8,5.9,0.2
		C182,223.4,160.5,200.5,168.3,186.2"/>
	<path class="st3" d="M168.3,186.2c-1.2-0.5-6.1-1.5-7.3,0.6c-7,12,4.5,38.7,15.3,44c5.8,2.8,5.9,0.8,5.9,0.2
		C182,223.4,160.5,200.5,168.3,186.2z"/>
	<path class="st4" d="M267.7,344.2c-19.3-3.7-49.2,5.7-49.2,5.7s-17.7,7.7-21.4,17.1c-3.8,9.5,0.4,13.3,0.4,13.3s9,15.3,3,21.9
		c-11.1,2.8-29.3-0.1-33.9-6.4c-4.7-6.4,3-10.7,3.2-15.3c0.3-9.7-7.4-14-10.4-12.7c-1.9,0.8,3.9,4.6,0.9,9c-3.5,5-8.6-2.9-13.4-5.3
		c-4.8-2.5-9.4,1.1-9.4,1.1s4.8,1.5,5.9,2.5c1.1,1,1.2,5.7-1.2,7c-3.6,2-12.8-2.3-18.6,6.1c4.9-1.5,6.8-0.1,7.3,0.2
		c3.4,2.6-2.1,8.1,6.4,12.6c-6.1,0.1-8.2,0.3-9.6,0.7c6.5,0.8,4.5,7.8,9,9.7c4.5,1.9,8,1.4,8.8,2.1c34.7,30.6,91.7,8,95.5,3.9
		c0.9-1-6.1-8.8-7.4-11.5c-0.8-1.5,2.7-21.5,7.3-23.2c6.5-6.7,30.9-11.6,30.9-11.6S269.3,351.2,267.7,344.2"/>
	<path class="st4" d="M267.7,344.2c-19.3-3.7-49.2,5.7-49.2,5.7s-17.7,7.7-21.4,17.1c-3.8,9.5,0.4,13.3,0.4,13.3s9,15.3,3,21.9
		c-11.1,2.8-29.3-0.1-33.9-6.4c-4.7-6.4,3-10.7,3.2-15.3c0.3-9.7-7.4-14-10.4-12.7c-1.9,0.8,3.9,4.6,0.9,9c-3.5,5-8.6-2.9-13.4-5.3
		c-4.8-2.5-9.4,1.1-9.4,1.1s4.8,1.5,5.9,2.5c1.1,1,1.2,5.7-1.2,7c-3.6,2-12.8-2.3-18.6,6.1c4.9-1.5,6.8-0.1,7.3,0.2
		c3.4,2.6-2.1,8.1,6.4,12.6c-6.1,0.1-8.2,0.3-9.6,0.7c6.5,0.8,4.5,7.8,9,9.7c4.5,1.9,8,1.4,8.8,2.1c34.7,30.6,91.7,8,95.5,3.9
		c0.9-1-6.1-8.8-7.4-11.5c-0.8-1.5,2.7-21.5,7.3-23.2c6.5-6.7,30.9-11.6,30.9-11.6S269.3,351.2,267.7,344.2"/>
	<path class="st5" d="M267.7,344.2c-19.3-3.7-49.2,5.7-49.2,5.7s-17.7,7.7-21.4,17.1c-3.8,9.5,0.4,13.3,0.4,13.3s9,15.3,3,21.9
		c-11.1,2.8-29.3-0.1-33.9-6.4c-4.7-6.4,3-10.7,3.2-15.3c0.3-9.7-7.4-14-10.4-12.7c-1.9,0.8,3.9,4.6,0.9,9c-3.5,5-8.6-2.9-13.4-5.3
		c-4.8-2.5-9.4,1.1-9.4,1.1s4.8,1.5,5.9,2.5c1.1,1,1.2,5.7-1.2,7c-3.6,2-12.8-2.3-18.6,6.1c4.9-1.5,6.8-0.1,7.3,0.2
		c3.4,2.6-2.1,8.1,6.4,12.6c-6.1,0.1-8.2,0.3-9.6,0.7c6.5,0.8,4.5,7.8,9,9.7c4.5,1.9,8,1.4,8.8,2.1c34.7,30.6,91.7,8,95.5,3.9
		c0.9-1-6.1-8.8-7.4-11.5c-0.8-1.5,2.7-21.5,7.3-23.2c6.5-6.7,30.9-11.6,30.9-11.6S269.3,351.2,267.7,344.2z"/>
	<path class="st3" d="M154.2,377.3c0,0-5.3,14.5,1.2,23.8c6.6,9.3,13.3,8.3,18.9,25.8 M140.1,383.3c0,0-0.8,3.1,4.8,6.1
		c-2,2.7-2.4,19.2,1.4,24.2"/>
	<path class="st4" d="M216.2,278.7c0-0.1,0-0.2,0-0.3c0,0,0,0,0,0.1C216.2,278.6,216.2,278.7,216.2,278.7 M216.2,278.7
		C216.2,278.9,216.2,278.9,216.2,278.7 M363.5,356.9c-11.5-16.9-35.5-29.9-48-34.4c-15-11.4-18.2-11.4-22.7-14.7
		c2.2-14.8-10.2-32.7-10.2-32.7s-5.8-6.6-18.5-6.6c3.3,2.6,16.9,13.4,13.4,16c-15.4-26.8-37.7-17.9-37.7-17.9s9.2,1.7,11.6,7.2
		c2.5,5.5,11.9,26.3,22,36c3.2,3.1,9.8,8,18.3,11c20.8,7.4,50.5,25.6,56.8,33.7c3.3,4.2,5.4,10.1,5.3,12.2c-0.1,2.1-2.3,4-5.4,3.6
		c-3.9-0.5-50.5-30.6-50.5-30.6s-10-7.3-30.4-12.3c-13.3-18.1-52.4-36.6-60.7-43.4c-0.1,0.1-0.1,0.2-0.2,0.2
		c4.4-5.2,7.7-10.9,10-15.9c-0.7,5.3-0.6,8.8-0.5,10c0.1-1.9,20.3-22.4,16.5-31.8c14.7-5.8,12.8-7.5,12.1-13.1c-0.5,0.2-1.6,0.1-3,0
		c1,0.1,2,0.1,3,0c0-7.5-18.4-11.4-17.9-12.4c0.5-1,6,1.4,7.1,0.4c0.4-0.4-23.1-28.3-28.4-27.5c-2.1,0.7-3.2,2.5-5.5,1.2
		c-2.3-1.3-7.8-6.8-9.9-7.2c0.1,0.8-2.5,2.8-2.5,2.8s-3.1,1.1-5.7,2.9c-2.5,1.8-2.4,8,0.1,10.5c0.1,0.1-2.1,6.6-2.1,6.6
		s3.9-5.3,4.6-5.3c0.7,0,8,4.6,8.3,8.9c0.5,7.8-12.8,19.6-13.3,19.7c-2.7,0.4-8-9.5-9.3-10.1c-0.5-0.2-2.6-2.2-5.3,7.8
		c-0.2,0.8,0.6,2.5,1.9,4.6v0c0,0-10.9-7.6-21.8-8.5c1.8,0.1,3.5,0.4,4.7,0.8c-3.8-7.9-11.3-38.3-7.7-54.6
		c24.6-9.3,22-13.2,21.8-17.9c3.7-4.6-2-10.1-2-10.1l-2.2,6.2c0,0-2.5,1.7-5.6-0.5c-3.1-2.2-1.1-10.4-2.4-15.1
		c-1.3-4.6-6.6-9.4-6.6-9.4s1.2,3.7,1.4,4.8c0.2,1.1-0.5,3.3-4.8,3c-4.3-0.2-4.2-4.8-6.6-6.9c-2.4-2.2-7.3-3.4-7.3-3.4
		s3.3,7.1,2.5,8.2c-2.2,0.2-5,6.6-6.8,7.1c-1.8,0.5-6.9-7.6-11-2.1c5-0.6,5.5,2.2,5.6,3.1c0.3,3.5-8.2,16.8-1.5,20.8
		c-6.4,14.8,0.2,23.7,0.2,23.7s-4.9,24.6-5.5,53.4c0.8,0.5,1.3,1.2,1.8,1.9c-15.4-13.3-24.8-54.1-24-59.2c0.4-2.6,1-3.6,1-3.6
		s2,0.3,4-0.3c2-0.5,2.7-1.1,2.7-1.1s5.8-0.5,7.3-1c1.5-0.5,7.1-11.1,4.2-18.2c-0.8,1.8-1.9,5.8-4.3,6.4c-2.4,0.6-2.1-1.6-5.8-3.1
		c1.2-11.1-9.7-23-9.7-23s3.6,7.4,1.2,8.8c-2.4,1.3-6.5,2.6-6.5,2.6l-1.2,12.8c0.2-2.7,0.4-6.7,0.4-11.9c-1.5-3.3-4.6-9-8.7-13.7
		c1.9,3.1,4.2,8.4-0.7,15.4c0.2,0.5,0.5,1.5,3.4,7.8c-3.3-5.8-15.1-13.1-15.1-13.1s3,11.3-3,17.8c4.2,1.9,1.2,39,11.8,40.9
		C73,210.6,76,277.3,90,295c1.8,0.1,15.6-0.1,15.6-0.1l-2.7,0.7c0,0,18,20,24.6,25c9.1,6.9,47.9,13.3,74.4,15.9
		c26.5,2.7,39.7,12.4,40.5,11c0.5-1.1-6.1-8.7-4.8-9.1c2.8-0.8,14.9,38.4,25.8,47.6c10.9,9.2,37.3,12.9,38.9,21.6
		c1.3,6.8-2.8,25.1-13.5,23.7c-1.6-0.2-6.3-17.3-9-18.5c-2.7-1.2-9.9-2.7-16.3,0.8c1.1,0.3,7.6,1.9,10.2,2.5
		c2.2,2.3-1.6,6.8-2.9,7.3c-3,1.1-5.4,0.3-7.8,0.8c-6.5,1.4-10.4,10.3-10.4,10.3s11.7,0.4,12.2,6.7c6.3-3.5,8.3-6.3,12.7-3.7
		c-14.3,3.2-15.4,6.7-17.8,16.8c5.4-2.9,8.6-5.2,10.2-4.2c1.6,1.1,3.5,2.3,5.9,1.4c0.4-0.2,1-0.4,1.6-0.7c-1.2,0.8-2.2,1.5-2.4,2
		c-0.8,1.7-1.2,9.8-0.2,10.8c0.5-1,1.6-5.1,4.3-5.2c2.7-0.1,12,2,13.4,0c1.3-2-1,0.2,1.9-3.1c2.8-3.2,15.4-8.2,18.3-10.2
		c3.3-6.7,30.3-32.3,29.1-50.5c-17.1-3.2-16.5-6.9-18.5-9.9c-11.8-2.7-30-33.5-33.2-38.2c4.6,4.8,46.6,31.8,57.2,34.9
		C360,385.2,373.5,371.7,363.5,356.9 M237.1,233c-2.7-0.2-5.5-0.1-7.3,0.9C232,232.8,234.5,232.8,237.1,233 M183.4,300.1
		c0.9-0.2,1.8-0.5,2.6-0.8C185.1,299.6,184.2,299.9,183.4,300.1"/>
	<path class="st3" d="M117.2,185.6c6.4-1,12.8-9.7,19.8-20.7c7-11,14.8-13.5,16.9-13.3 M116.7,161.5c0,0,13.7-14.5,23.3-17.3
		c-3.7-9.9,0.5-9.3,0.5-9.3 M98.4,161c0,0-8.6,8.9-9.1,19.1 M265.6,424.2c8.5,0.9,23.4,10.9,21.1,4 M265.1,189.5
		c-0.8,2.4-0.7,2.8,3.4,7c-7.5,14.6-2.1,25.3-2.1,25.3"/>
	<path class="st2" d="M228.5,353.4c0,0,15.3,7.7,20.8,7.5c-1-2.7-4-8.7-4-8.7S239.5,348.8,228.5,353.4"/>
	<path class="st3" d="M228.5,353.4c0,0,15.3,7.7,20.8,7.5c-1-2.7-4-8.7-4-8.7S239.5,348.8,228.5,353.4z"/>
	<path class="st4" d="M369.3,195.1c-2.2-1.2-24.4-4.9-35.5-3.2c-11.1,1.7-13.1,12.8-13.8,17.8c-0.7,5,0.8,12.8-15,10
		c-6.7-1.2-15.3-9.6-15.2-13.9c0.1-6,7.4-8.4,7.6-13.1c0.1-1.4,0.1-13-8.8-13c-0.8,2.5,3.3,9-2.2,9.6c-5.3,0.6-9.7-7-14.2-9.9
		c-3.5-2.2-8.1-0.7-8.1-0.7l6,3.8c0,0-0.1,5.1-2.4,6.3c-4.3,2.2-13-5.1-20.9,3.6c5.2-0.7,6.7,0.8,8.1,1.1c1.5,3.8-1.9,10.6,4.1,13.3
		c-1.2-0.2-9.8-0.8-9.6-0.5c5.1,1.7,4.3,6.3,4.3,6.3s2,6.2,11.2,7.5c14.6,19.9,53.7,35.3,79.4,34c-0.3-20.4,6.3-26.1,18.4-28.1
		C363.7,221.5,369.1,196,369.3,195.1"/>
	<path class="st4" d="M167.1,53.2c-0.3,1-3.1,10.6,2.5,20.3c0.1-0.3-0.1-1.8-0.1-1.8s3.6-2.5,5-5.3c0.7-1.3,5.5-3.2,8.2-6.5
		c2.8-4.1,0.6-12.8-4.8-17.6c0.3,4.2,1.4,6.7,0.7,7.4C175.8,52.7,167.4,52.2,167.1,53.2"/>
	<path class="st3" d="M167.1,53.2c-0.3,1-3.1,10.6,2.5,20.3c0.1-0.3-0.1-1.8-0.1-1.8s3.6-2.5,5-5.3c0.7-1.3,5.5-3.2,8.2-6.5
		c2.8-4.1,0.6-12.8-4.8-17.6c0.3,4.2,1.4,6.7,0.7,7.4C175.8,52.7,167.4,52.2,167.1,53.2z"/>
	<path class="st2" d="M287.2,27.5c-1.3-0.2-6.4,0-7.1,2.6c-4.1,14.8,13.9,40.2,26,43.1c6.5,1.5,6.1-0.7,5.9-1.3
		C310,63.8,283.1,44.9,287.2,27.5"/>
	<path class="st3" d="M369.3,195.1c-2.2-1.2-24.4-4.9-35.5-3.2c-11.1,1.7-13.1,12.8-13.8,17.8c-0.7,5,0.8,12.8-15,10
		c-6.7-1.2-15.3-9.6-15.2-13.9c0.1-6,7.4-8.4,7.6-13.1c0.1-1.4,0.1-13-8.8-13c-0.8,2.5,3.3,9-2.2,9.6c-5.3,0.6-9.7-7-14.2-9.9
		c-3.5-2.2-8.1-0.7-8.1-0.7l6,3.8c0,0-0.1,5.1-2.4,6.3c-4.3,2.2-13-5.1-20.9,3.6c5.2-0.7,6.7,0.8,8.1,1.1c1.5,3.8-1.9,10.6,4.1,13.3
		c-1.2-0.2-9.8-0.8-9.6-0.5c5.1,1.7,4.3,6.3,4.3,6.3s2,6.2,11.2,7.5c14.6,19.9,53.7,35.3,79.4,34c-0.3-20.4,6.3-26.1,18.4-28.1
		C363.7,221.5,369.1,196,369.3,195.1z M287.2,27.5c-1.3-0.2-6.4,0-7.1,2.6c-4.1,14.8,13.9,40.2,26,43.1c6.5,1.5,6.1-0.7,5.9-1.3
		C310,63.8,283.1,44.9,287.2,27.5z"/>
	<g>
		<g>
			<g>
				<g>
					<g>
						<defs>
							<rect id="SVGID_1_" x="43.1" width="406.2" height="492.5"/>
						</defs>
						<clipPath id="SVGID_2_">
							<use xlink:href="#SVGID_1_"  style="overflow:visible;"/>
						</clipPath>
						<path class="st6" d="M442.6,211.1c-0.9-8.3-9.6-29.9-30.9-62.4c-15.1-22.9-16.3-34.7-13.5-44.7c13.8-2,32.1-20.7,31.6-32
							c-0.5-11.3-7.4-17.1-7.4-17.1s-3.9,24.4-9,23c1.7-2.5,7-10.3,7.1-21.4c0.1-11-15.6-20.8-17.8-21c1.5,2,7.6,8.4,6,13.3
							c-1.6,4.9-5.7,10.5-11.3,17.9c-5.7,7.4-13,19.7-13.9,31.4c-0.9,11.6,5.5,25.5,8.4,33.8c3.1,8.9,24.1,42.8,24.1,42.8
							s25.1,37.7,16.6,44.7c-2.6,2.1-13.5,1.5-19.6-7c-5.7-7.9-5-7.6-9.9-14.9c-7-10.4-11.3-9.7-11.6-10.9
							c-22.5-37.6-53.8-58.5-58.4-61.3c0,0,7.2-7.1,9.5-14.9c-0.1,2.7-0.7,9.7-0.7,9.7s20.2-22.6,17.9-34.4
							c26.1-2.3,16.5-14.8,14.3-16.1c0.1-1.5-14.9-7.9-14.9-9.3c0,0,0.3-0.2,0.8-0.4c5,1.5,6.2,1.2,6.1,0.4
							c-0.1-0.8-20.6-23.9-29.1-25.5c-2.9,2-3.3,0.8-5.2,1.2c-2.8,0.4-9.8-8.7-13.4-8.9c-0.4,1.4-3.6,3.1-3.6,3.1s-7.1,2.1-8.5,4.7
							c-1.4,2.6,1.2,8.8,1.2,8.8l-1.1,5.8c0,0,3.8-4.6,4-5c1.9,2.8,8,2.5,9.5,10.7c1.5,8.1-4.7,10.8-7.1,15.7
							c-2.4,4.9-4.9,3.1-6.9,2.8c-3-0.5-10.1-7.6-10.4-7.6c-3.2,0-4.9,8.3-4.8,9.5c0.9-0.3,1.3,3,2.2,3.5c0.4,0.2,1,0.6,1.7,1
							c-11-7.3-29.1-5.5-29-5c0.1,0.5,5,2.5,4.7,3.7c-0.2,0.9-8.6-1.3-19.9,2.7c0.1,0,0.2-0.1,0.4-0.1c0,0-20-20.7-14.7-35.4
							c6.7-1.5,12.1-0.9,16.1-2.5c6.7-2.6,9.8-10.4,9.7-14c-6.5,7.1-8.5,5.2-9.5,4.8c-4-1.8,0.4-12.2,0-15.9
							c-0.4-3.7-5.3-8.1-5.3-8.1s1.5,5.5-6.5,8.1c-3.8,1.2-6.9-4.3-9.5-6.7c-2.7-2.3-7.7-2.7-7.7-2.7s4,6,2.9,7.6
							c-2.6,0.1-5,4.3-8.5,5.1c-3.5,0.8-6.8-7-12.7-1.9c4.4-0.4,4.8,0.8,5.2,1.6c2.1,3.4-1.1,4.4-2.5,17.5
							c-0.6,5.7-0.1,11.8,0.5,16.7c1.4,11.3,9.8,24.1,14.6,50.1c0,0,0.1,0,0.1,0.1c-17.7-7.2-37.5-12.2-47.8-22.5
							c-10.7-10.7-9.2-27.1-7.9-29.6c0-0.9-7.2-11.7-20.7-13.3c7.1,5.8,6.2,4,1,12.3c3.5,3.9,5.4,7.7,6.4,10.5c-1-2.1-2.8-5-6.3-9
							c-3.6-1.1-9.5-1.3-17.1,0.6c10.1,1.7,8.1,13.3,8.1,13.3s2.6,1.7,7.7,4.4c-5.6-2.4-22.8,1.2-22.8,1.2s13.8,1.2,12.6,9.8
							c7,4.6,15.1,13.9,18.7,15.9c1.4,0.8,0.7,1.5,7.7,3c25.3,30.5,65.8,55.1,70.3,56.8c5.1-1.1,14.1-0.7,14.1-0.7s-3.8,0.5-7.6,0.9
							c6.7,8.8,30.4,10.4,61,14c41.1,4.8,57.3,27.8,59.7,28.1c0.7-2-1.4-3.1-1.6-10.3c6.9,11.3-1.2,44.9,11,57.5
							c11.7,12.1,28.3,22.5,32.6,28.2c1.3,1.8,3,5.5,2.1,15.8c-0.4,4.7-3.9,7.4-7.3,13.4c-2.2,1.1-5,1.3-8.7,0
							c-21.1-7.6-27.3,3.5-27.3,3.5s12.8-1.4,12.4,6.1c1.1-0.2,2.3-0.3,3.6-0.3c-3,1.1-5.9,3.5-7.7,8.7c5.5-3.1,10.5,3.2,12.9,6.4
							c2.4,3.2,5.2,0.5,5.2,0.5s6.6-7.6,12-7.7c-0.6,0.3-16.6,4.3-12.4,21.8c2.1-11.1,14.8-2.6,18-6.9c0.2-0.8-0.1-3.2,1.7-5.6
							c1.7-2.4,12-6,12-6s10.2-16.5,10.7-26.1c0.2-2.6,2.5-15.8,2.8-38.9c-17.4-1.5-18.3-13.1-19.9-25.7c-1.1-8.7-3.9-14.9-5.6-18
							c3.3,5.1,12.8,17.4,27.1,14.1C443.3,229.4,443.5,219.3,442.6,211.1 M296.4,81.4c-0.3-0.2-0.6-0.5-0.9-0.7
							C295.9,80.9,296.2,81.1,296.4,81.4 M295.2,80.4c-0.3-0.2-0.6-0.4-0.9-0.6C294.6,80,294.9,80.2,295.2,80.4"/>
					</g>
				</g>
			</g>
		</g>
		<g>
			<g>
				<g>
					<g>
						<defs>
							<rect id="SVGID_3_" x="43.1" width="406.2" height="492.5"/>
						</defs>
						<clipPath id="SVGID_4_">
							<use xlink:href="#SVGID_3_"  style="overflow:visible;"/>
						</clipPath>
						<path class="st7" d="M333.1,125.2c4.6,2.7,36,23.6,58.4,61.3c0.3,1.3,4.6,0.5,11.6,10.9c4.9,7.3,4.2,7,9.9,14.9
							c6.1,8.5,17,9.1,19.6,7c8.5-7-16.6-44.7-16.6-44.7s-21-33.9-24.1-42.8c-2.9-8.4-9.3-22.2-8.4-33.8
							c0.9-11.7,8.2-23.9,13.9-31.4c5.6-7.4,9.7-13,11.3-17.9c1.6-4.9-4.5-11.3-6-13.3c2.2,0.1,17.9,9.9,17.8,21
							c-0.1,11.1-5.4,18.9-7.1,21.4c5.1,1.4,9-23,9-23s6.9,5.8,7.4,17.1c0.5,11.3-17.7,30-31.6,32c-2.8,10.1-1.5,21.8,13.5,44.7
							c21.3,32.5,30.1,54.2,30.9,62.4c0.9,8.2,0.7,18.3-9,20.5c-17.9,4.1-28.3-16.3-28.3-16.3s5.2,7.5,6.9,20.1
							c1.6,12.6,2.5,24.2,19.9,25.7c-0.2,23.2-2.6,36.3-2.8,38.9c-0.6,9.6-10.7,26.1-10.7,26.1s-10.2,3.6-12,6
							c-1.8,2.4-1.5,4.8-1.7,5.6c-3.2,4.3-15.9-4.2-18,6.9c-4.1-17.5,11.9-21.5,12.5-21.8c-5.5,0.1-12,7.7-12,7.7s-2.8,2.8-5.2-0.5
							c-2.4-3.2-7.4-9.5-12.9-6.4c5-14.2,18.5-8.1,18.5-8.1s-9.1-1.2-14.4-0.2c0.4-7.5-12.4-6.1-12.4-6.1s6.3-11,27.3-3.5
							c3.6,1.3,6.5,1.1,8.7,0c3.4-6.1,6.9-8.7,7.3-13.4c0.9-10.3-0.8-14-2.1-15.8c-4.2-5.7-20.8-16.2-32.6-28.2
							c-12.2-12.6-4.1-46.2-11-57.5c0.3,7.2,2.4,8.4,1.6,10.3c-2.4-0.4-18.6-23.3-59.7-28.1c-30.6-3.6-54.3-5.2-61-14
							c3.9-0.4,7.6-0.9,7.6-0.9s-9-0.4-14.1,0.7c-4.5-1.7-45-26.3-70.3-56.8c-7-1.5-6.3-2.2-7.7-3c-3.6-2-11.8-11.3-18.7-15.9
							c1.2-8.6-12.6-9.8-12.6-9.8s18.7-3.9,23.5-0.8c-5.6-2.8-8.5-4.8-8.5-4.8s1.9-11.5-8.1-13.3c7.6-2,13.5-1.8,17.1-0.6
							c8.3,9.6,7.4,13.1,7.4,13.1s-0.9-7.2-7.5-14.5c5.3-8.3,6.2-6.5-1-12.3c13.6,1.7,20.7,12.5,20.7,13.3c-1.4,2.5-2.8,19,7.9,29.6
							c14.6,14.6,48.4,18.5,68.2,33.5c13.1,10,11.2,25.8-2,27.1c5.6,5.2,29.2,4,29.2,4s-4.5,4.2-6,5.6c2,1.5,28,5,44.2-13.8
							c-2.3,5.1-3.6,7.7-3.6,7.7S311.6,148,333.1,125.2z"/>
					</g>
				</g>
			</g>
		</g>
	</g>
	<path class="st8" d="M241.2,143.4c5.6,5.2,29.2,4,29.2,4s-4.5,4.2-6,5.6c2,1.5,28,5,44.2-13.8c-2.3,5.1-3.6,7.7-3.6,7.7
		s6.6,1,28.1-21.8c0,0,7.2-7.1,9.5-14.9c-0.1,2.7-0.7,9.7-0.7,9.7s20.2-22.6,17.9-34.4c26.1-2.3,16.5-14.8,14.3-16.1
		c-0.7-0.1-7.4,0-13.2-0.3c-5.8-0.3-7.6,5.5-7.6,5.5s-4,9.4-12.7,20.8c-12.9,16.9-33.5-5.1-44.1-14.3c-10.6-9.2-31.2-7.1-31.1-6.6
		c0.1,0.5,5,2.5,4.7,3.7c-0.3,1.2-16.9-3.6-34.9,11.4c0.8,0,9.2-0.1,8.9,2.2c-0.1,1.1-11.7,2.5-15.5,15.8c0.8,0.3,10.4,5.2,14.7,8.5
		C256.3,126.3,254.4,142.1,241.2,143.4"/>
	<path class="st3" d="M228.5,107.8c3.9-13.3,15.4-14.7,15.5-15.8c0.3-2.3-8.1-2.2-8.9-2.2c5.4-4.5,10.7-7.2,15.4-8.8
		c0,0-20-20.7-14.7-35.4c6.7-1.5,12.1-0.9,16.1-2.5c6.7-2.6,9.8-10.4,9.7-14c-6.5,7.1-8.5,5.2-9.5,4.8c-4-1.8,0.4-12.2,0-15.9
		c-0.4-3.7-5.3-8.1-5.3-8.1s1.5,5.5-6.5,8.1c-3.8,1.2-6.9-4.3-9.5-6.7c-2.7-2.3-7.7-2.7-7.7-2.7s4,6,2.9,7.6c-2.6,0.1-5,4.3-8.5,5.1
		c-3.5,0.8-6.8-7-12.7-1.9c4.4-0.4,4.8,0.8,5.2,1.6c2.1,3.4-1.1,4.4-2.5,17.5c-0.6,5.7-0.1,11.8,0.5,16.7
		c1.4,11.3,9.8,24.1,14.6,50.1C223.2,105.6,228.5,107.8,228.5,107.8z"/>
	<path class="st9" d="M374,69.6c0,0.3-7.4,0-13.2-0.3c-5.8-0.3-7.6,5.5-7.6,5.5s-4,9.4-12.7,20.8c-12.9,16.9-33.5-5.1-44.1-14.3
		c-1.1-1-2.9-2.2-3.7-2.6c-0.9-0.5-1.3-3.8-2.2-3.5c-0.1-1.1,1.6-9.5,4.8-9.5c0.3,0,7.4,7.1,10.4,7.6c2,0.3,4.5,2.1,6.9-2.8
		c2.4-4.9,8.6-7.6,7.1-15.7c-1.5-8.1-7.6-7.8-9.5-10.7c-0.2,0.4-4,5-4,5l1.1-5.8c0,0-2.6-6.2-1.2-8.8c1.4-2.6,8.5-4.7,8.5-4.7
		s3.3-1.7,3.6-3.1c3.5,0.2,10.5,9.4,13.4,8.9c1.8-0.4,2.3,0.8,5.2-1.2c8.5,1.6,29.1,24.8,29.1,25.5c0.1,0.8-1.1,1.1-6.1-0.4
		c-0.5,0.2-0.8,0.4-0.8,0.4C359.1,61.7,374.1,68.1,374,69.6z"/>
	<path class="st10" d="M333.5,41.7c1.1,0.1,11.8,2.9,13.7,15.4c-0.4,0.7-13.7-2.1-13.7-6C333.5,46.6,338.1,45.6,333.5,41.7"/>
	<path class="st2" d="M339.7,199.5c8.3,0,18.3,0.3,20.8,4.4c0,1.7,0.6,5.5,0.9,8.2C357.3,211.5,339.7,200.4,339.7,199.5"/>
	<path class="st3" d="M114.9,244.4c0,0,1.2-5.9,13-4.7c1.2-2.2-7.6-3.9-7.4-4.6c0.2-0.7,12.7-5.9,21.3-4c-1.8-1.4-3.1-1.9-5.6-2.2
		c4.3-1.8,10.6-1.4,13.9-0.4c-3.8-7.9-11.3-38.3-7.7-54.6c24.6-9.3,22-13.2,21.8-17.9c3.7-4.6-2-10.1-2-10.1l-2.2,6.2
		c0,0-2.5,1.7-5.6-0.5c-3.1-2.2-1.1-10.4-2.4-15.1c-1.3-4.6-6.6-9.4-6.6-9.4s1.2,3.7,1.4,4.8c0.2,1.1-0.5,3.3-4.8,3
		c-4.3-0.2-4.2-4.8-6.6-6.9c-2.4-2.2-7.3-3.4-7.3-3.4s3.3,7.1,2.5,8.2c-2.2,0.2-5,6.6-6.8,7.1c-1.8,0.5-6.9-7.6-11-2.1
		c5-0.6,5.5,2.2,5.6,3.1c0.3,3.5-8.2,16.8-1.5,20.8c-6.4,14.8,0.2,23.7,0.2,23.7s-4.9,24.6-5.5,53.4
		C114.2,240.8,114.9,244.4,114.9,244.4z M237.8,17.7c0.6,2.5-5.2,4.6-7.9,9.7c-11.9,3-20.1,12.5-22.5,18.8 M210.9,65.7
		c2.3-1.1,16.6-30.4,28.7-35.8c6.6-2.9,6.1,0.7,11-2.5 M339.7,199.5c8.3,0,18.3,0.3,20.8,4.4c0,1.7,0.6,5.5,0.9,8.2
		C357.3,211.5,339.7,200.4,339.7,199.5z"/>
	<path class="st5" d="M180.1,210.8c0,0,3.9-5.3,4.6-5.3c0.7,0,8,4.6,8.3,8.9c0.5,7.8-12.8,19.6-13.3,19.7c-2.7,0.4-8-9.5-9.3-10.1
		c-0.5-0.2-2.6-2.2-5.3,7.8c-0.8,3,13.8,20.9,19.6,25.9c19,16.6,35.2-8.9,37.2-10.9c5.7-5.7,4.1-10.7,7.9-12.9c4.1-2.3,9.5,0,15-0.4
		c0-7.5-18.4-11.4-17.9-12.4c0.5-1,6,1.4,7.1,0.4c0.4-0.4-23.1-28.3-28.4-27.5c-2.1,0.7-3.2,2.5-5.5,1.2c-2.3-1.3-7.8-6.8-9.9-7.2
		c0.1,0.8-2.5,2.8-2.5,2.8s-3.1,1.1-5.7,2.9c-2.5,1.8-2.4,8,0.1,10.5C182.3,204.3,180.1,210.8,180.1,210.8z"/>
	<path class="st11" d="M167,236.4c4,6.5,13.4,17.5,17.7,21.3c19,16.6,35.2-8.9,37.2-10.8c5.7-5.7,4.1-10.7,7.9-12.9
		c4.1-2.3,13.1,0.3,15-0.4c0.7,5.6,2.5,7.3-12.1,13.1c3.9,9.5-16.7,30.2-16.5,31.9c0.2,1.7-0.4-2.2,0.6-10.1
		c-5.5,11.6-15.9,26.8-33.4,31.7c0.5-0.9,1.9-3.5,3.5-7.5c-24,23.4-48.3,14.8-48.3,14.8s1.7-1.5,6-5.1c-15.9-0.8-22.8-2.8-37.6-14.7
		c9.1-1.3,13.2-10.2,14.3-18.7c1-8.4-2.9-9.8-4.9-14.4c-2.1-4.7-1.5-10.2-1.5-10.2s1.2-5.9,13-4.7c1.2-2.2-7.6-3.9-7.4-4.6
		c0.2-0.7,12.7-5.9,21.3-4c-1.8-1.4-4-2.4-6.5-2.6C148,223.3,167,236.4,167,236.4z"/>
	<path class="st12" d="M206.9,284.1c-5.5,6.5-13.5,13.2-23.5,16c0.5-0.9,1.9-3.5,3.5-7.4c-24,23.4-48.3,14.8-48.3,14.8
		s1.7-1.5,6-5.1c-15.9-0.8-22.8-2.8-37.6-14.7c9.1-1.3,13.2-10.2,14.3-18.7c1-8.4-2.9-9.8-4.9-14.4c-2.1-4.7-1.5-10.2-1.5-10.2
		s-0.2-2.3-1.6-3.7c-15.4-13.3-24.8-54.1-24-59.2c0.4-2.6,1-3.6,1-3.6s2,0.3,4-0.3c2-0.5,2.7-1.1,2.7-1.1s5.8-0.5,7.3-1
		c1.5-0.5,7.1-11.1,4.2-18.2c-0.8,1.8-1.9,5.8-4.3,6.4c-2.4,0.6-2.1-1.6-5.8-3.1c1.2-11.1-9.7-23-9.7-23s3.6,7.4,1.2,8.8
		c-2.4,1.3-6.5,2.6-6.5,2.6l-1.7,17c0,0,0.8-5.5,0.8-16c-1.5-3.3-4.6-9-8.7-13.7c1.1,3.4,4.2,8.4-0.7,15.4c0.2,0.5,0.6,1.6,4,9.1
		c-1.9-5.9-15.7-14.5-15.7-14.5s3,11.3-3,17.8c4.2,1.9,1.2,39,11.8,41c2.7,5.6,5.7,72.2,19.6,89.9c1.8,0.1,15.6-0.1,15.6-0.1
		l-2.7,0.7c0,0,18,20,24.6,25c9.1,6.9,47.9,13.3,74.4,15.9c26.5,2.7,39.7,12.4,40.5,11c0.5-1.1-1.8-6.9-4.8-9.1
		c4.2,0.1,14.9,38.4,25.8,47.6c10.9,9.2,37.3,12.9,38.9,21.6c1.3,6.8-2.8,25.1-13.5,23.7c-1.6-0.2-6.3-17.3-9-18.5
		c-2.7-1.2-9.9-2.7-16.3,0.8c1.1,0.3,7.6,1.9,10.2,2.5c2.2,2.3-1.6,6.8-2.9,7.3c-3,1.1-5.4,0.3-7.8,0.8
		c-6.5,1.4-10.4,10.3-10.4,10.3s11.7,0.4,12.2,6.7c6.3-3.5,8.3-6.3,12.7-3.7c-14.3,3.2-15.4,6.7-17.8,16.8c5.4-2.9,8.6-5.2,10.2-4.2
		c1.6,1.1,3.5,2.3,5.9,1.4c2.4-0.9,8.3-4.5,8.3-4.5s-8.3,4.2-9.1,5.8c-0.8,1.7-1.2,9.8-0.2,10.8c0.5-1,1.6-5.1,4.3-5.2
		c2.7-0.1,12,2,13.4,0c1.3-2-1,0.2,1.9-3.1c2.8-3.2,15.4-8.2,18.3-10.2c3.3-6.7,30.3-32.3,29.1-50.5c-17.1-3.2-16.5-6.9-18.5-9.9
		c-12.4-2.9-32-36.5-33.6-38.8c0,2.2,46.5,32.2,57.7,35.5c12.8,3.8,26.4-9.7,16.3-24.6c-11.5-16.9-35.5-29.9-48-34.4
		c-15-11.4-18.2-11.4-22.7-14.7c2.2-14.8-10.2-32.7-10.2-32.7s-5.8-6.6-18.5-6.6c3.3,2.6,16.9,13.4,13.4,16
		c-15.4-26.8-37.6-17.9-37.6-17.9s9.2,1.7,11.6,7.2c2.5,5.5,11.9,26.3,22,36c3.2,3.1,9.8,8,18.3,11c20.8,7.4,50.5,25.6,56.8,33.7
		c3.3,4.2,5.4,10.1,5.3,12.2c-0.1,2.1-2.3,4-5.4,3.6c-3.9-0.5-50.5-30.6-50.5-30.6s-10-7.3-30.4-12.3
		C254.3,309.4,215.2,290.9,206.9,284.1z"/>
	<path class="st10" d="M204.6,202.7c11.4,3,13.5,14.8,13.6,16.2c-1.2,0.3-12.1-2-13.3-6.2C203.8,208.7,210.6,205.7,204.6,202.7"/>
	<path class="st3" d="M281.5,188.2c0,0-6.7,12-4.9,19.3c2.6,10.3,15.5,18.3,14.8,32.4"/>
	<path class="st4" d="M377.6,302.7c0,0-0.3-2.9,0.7-4.2c1-1.4,1.5-5.2,1.3-6.4c-0.1-1.2,0.6-1.5-5.9-2.6c5.6-2.2,14.9,1.4,16.8,2.9
		c1.9,1.4,3,10.6,5.5,12.2c-1.2,2.2-5.8,1.5-5.8,1.5L377.6,302.7z"/>
	<g>
		<g>
			<g>
				<g>
					<g>
						<defs>
							<rect id="SVGID_5_" x="43.1" width="406.2" height="492.5"/>
						</defs>
						<clipPath id="SVGID_6_">
							<use xlink:href="#SVGID_5_"  style="overflow:visible;"/>
						</clipPath>
						<path class="st13" d="M377.6,302.7c0,0-0.3-2.9,0.7-4.2c1-1.4,1.5-5.2,1.3-6.4c-0.1-1.2,0.6-1.5-5.9-2.6
							c5.6-2.2,14.9,1.4,16.8,2.9c1.9,1.4,3,10.6,5.5,12.2c-1.2,2.2-5.8,1.5-5.8,1.5L377.6,302.7z"/>
					</g>
				</g>
			</g>
		</g>
		<g>
			<g>
				<g>
					<g>
						<defs>
							<rect id="SVGID_7_" x="43.1" width="406.2" height="492.5"/>
						</defs>
						<clipPath id="SVGID_8_">
							<use xlink:href="#SVGID_7_"  style="overflow:visible;"/>
						</clipPath>
						<line class="st14" x1="44.9" y1="4" x2="420.6" y2="394.4"/>
					</g>
				</g>
			</g>
		</g>
		<g>
			<g>
				<g>
					<g>
						<defs>
							<rect id="SVGID_9_" x="43.1" width="406.2" height="492.5"/>
						</defs>
						<clipPath id="SVGID_10_">
							<use xlink:href="#SVGID_9_"  style="overflow:visible;"/>
						</clipPath>
						<path class="st15" d="M246.1,1.5h201.7V298c0,106.5-90.3,192.9-201.6,192.9c-111.4,0-201.6-86.4-201.6-192.9V1.5L246.1,1.5
							L246.1,1.5z"/>
					</g>
				</g>
			</g>
		</g>
	</g>
</g>
</svg>
