<?xml version="1.0" encoding="utf-8"?>
<!-- Generator: Adobe Illustrator 25.0.1, SVG Export Plug-In . SVG Version: 6.00 Build 0)  -->
<svg version="1.1" id="Ebene_1" xmlns="http://www.w3.org/2000/svg" xmlns:xlink="http://www.w3.org/1999/xlink" x="0px" y="0px"
	 viewBox="0 0 492.5 492.5" style="enable-background:new 0 0 492.5 492.5;" xml:space="preserve">
<style type="text/css">
	.st0{fill:#E8423F;}
	.st1{fill:#FFFFFF;}
	.st2{fill:none;stroke:#010202;stroke-width:3.048;}
</style>
<g>
	<path class="st0" d="M246.1,0h203v298.3c0,107.2-90.8,194.1-202.8,194.1L246.1,0z"/>
	<path class="st1" d="M246.2,492.5L246.2,492.5c-112,0-202.8-86.9-202.8-194.1V0h202.7L246.2,492.5z"/>
	<polygon class="st1" points="359.9,45.3 373.6,82.4 409.9,82.4 381.2,102 392.1,137.2 359.9,116.5 328,137.2 338.9,101.7 310,82.4 
		346.3,82.4 	"/>
	<polygon class="st2" points="359.9,45.3 373.6,82.4 409.9,82.4 381.2,102 392.1,137.2 359.9,116.5 328,137.2 338.9,101.7 310,82.4 
		346.3,82.4 	"/>
	<polygon class="st1" points="359.9,135.5 373.6,172.6 409.9,172.6 381.2,192.2 392.1,227.4 359.9,206.6 328,227.4 338.9,191.9 
		310,172.6 346.3,172.6 	"/>
	<polygon class="st2" points="359.9,135.5 373.6,172.6 409.9,172.6 381.2,192.2 392.1,227.4 359.9,206.6 328,227.4 338.9,191.9 
		310,172.6 346.3,172.6 	"/>
	<polygon class="st1" points="359.9,225.6 373.6,262.7 409.9,262.7 381.2,282.4 392.1,317.6 359.9,296.8 328,317.6 338.9,282.1 
		310,262.7 346.3,262.7 	"/>
	<polygon class="st2" points="359.9,225.6 373.6,262.7 409.9,262.7 381.2,282.4 392.1,317.6 359.9,296.8 328,317.6 338.9,282.1 
		310,262.7 346.3,262.7 	"/>
	<polygon class="st1" points="359.9,315.8 373.6,352.9 409.9,352.9 381.2,372.6 392.1,407.7 359.9,387 328,407.7 338.9,372.3 
		310,352.9 346.3,352.9 	"/>
	<polygon class="st2" points="359.9,315.8 373.6,352.9 409.9,352.9 381.2,372.6 392.1,407.7 359.9,387 328,407.7 338.9,372.3 
		310,352.9 346.3,352.9 	"/>
	<polygon class="st0" points="132.6,45.3 146.2,82.4 182.5,82.4 153.8,102 164.8,137.2 132.6,116.5 100.7,137.2 111.6,101.7 
		82.7,82.4 118.9,82.4 	"/>
	<polygon class="st2" points="132.6,45.3 146.2,82.4 182.5,82.4 153.8,102 164.8,137.2 132.6,116.5 100.7,137.2 111.6,101.7 
		82.7,82.4 118.9,82.4 	"/>
	<polygon class="st0" points="132.6,135.5 146.2,172.6 182.5,172.6 153.8,192.2 164.8,227.4 132.6,206.6 100.7,227.4 111.6,191.9 
		82.7,172.6 118.9,172.6 	"/>
	<polygon class="st2" points="132.6,135.5 146.2,172.6 182.5,172.6 153.8,192.2 164.8,227.4 132.6,206.6 100.7,227.4 111.6,191.9 
		82.7,172.6 118.9,172.6 	"/>
	<polygon class="st0" points="132.6,225.6 146.2,262.7 182.5,262.7 153.8,282.4 164.8,317.6 132.6,296.8 100.7,317.6 111.6,282.1 
		82.7,262.7 118.9,262.7 	"/>
	<polygon class="st2" points="132.6,225.6 146.2,262.7 182.5,262.7 153.8,282.4 164.8,317.6 132.6,296.8 100.7,317.6 111.6,282.1 
		82.7,262.7 118.9,262.7 	"/>
	<polygon class="st0" points="132.6,315.8 146.2,352.9 182.5,352.9 153.8,372.6 164.8,407.7 132.6,387 100.7,407.7 111.6,372.3 
		82.7,352.9 118.9,352.9 	"/>
	<polygon class="st2" points="132.6,315.8 146.2,352.9 182.5,352.9 153.8,372.6 164.8,407.7 132.6,387 100.7,407.7 111.6,372.3 
		82.7,352.9 118.9,352.9 	"/>
	<polygon class="st0" points="246.2,86.5 214,107 224.9,71.8 196.3,52.2 232.6,52.2 246.2,15.3 	"/>
	<polygon class="st1" points="246.2,15.3 259.8,52.4 296.1,52.4 267.2,71.8 278.4,107.3 246.2,86.5 	"/>
	<polygon class="st2" points="246.2,15.3 259.8,52.4 296.1,52.4 267.2,71.8 278.4,107.3 246.2,86.5 214,107 224.9,71.8 196.3,52.2 
		232.6,52.2 	"/>
	<polygon class="st0" points="246.2,176.7 214,197.2 224.9,162 196.3,142.3 232.6,142.3 246.2,105.5 	"/>
	<polygon class="st1" points="246.2,105.5 259.8,142.6 296.1,142.6 267.2,162 278.4,197.4 246.2,176.7 	"/>
	<polygon class="st2" points="246.2,105.5 259.8,142.6 296.1,142.6 267.2,162 278.4,197.4 246.2,176.7 214,197.2 224.9,162 
		196.3,142.3 232.6,142.3 	"/>
	<polygon class="st0" points="246.2,266.9 214,287.4 224.9,252.2 196.3,232.5 232.6,232.5 246.2,195.7 	"/>
	<polygon class="st1" points="246.2,195.7 259.8,232.8 296.1,232.8 267.2,252.2 278.4,287.6 246.2,266.9 	"/>
	<polygon class="st2" points="246.2,195.7 259.8,232.8 296.1,232.8 267.2,252.2 278.4,287.6 246.2,266.9 214,287.4 224.9,252.2 
		196.3,232.5 232.6,232.5 	"/>
	<polygon class="st0" points="246.2,357.1 214,377.6 224.9,342.4 196.3,322.7 232.6,322.7 246.2,285.9 	"/>
	<polygon class="st1" points="246.2,285.9 259.8,323 296.1,323 267.2,342.4 278.4,377.8 246.2,357.1 	"/>
	<polygon class="st2" points="246.2,285.9 259.8,323 296.1,323 267.2,342.4 278.4,377.8 246.2,357.1 214,377.6 224.9,342.4 
		196.3,322.7 232.6,322.7 	"/>
	<polygon class="st1" points="246.2,376.1 259.8,413.2 296.1,413.2 267.2,432.5 278.4,468 246.2,447.3 	"/>
	<polygon class="st0" points="246.2,447.3 214,467.7 224.9,432.5 196.3,412.9 232.6,412.9 246.2,376.1 	"/>
	<g>
		<path class="st2" d="M246.1,0l0.1,492.5 M246.1,0h203v298.3c0,107.2-90.8,194.1-202.8,194.1c-112,0-202.8-86.9-202.8-194.1V0
			L246.1,0L246.1,0z M246.2,376.1l13.6,37.1h36.3l-28.9,19.4l11.2,35.4l-32.2-20.7L214,467.7l10.9-35.2l-28.6-19.6h36.3L246.2,376.1
			z"/>
	</g>
</g>
</svg>
