<?xml version="1.0" encoding="utf-8"?>
<!-- Generator: Adobe Illustrator 25.0.1, SVG Export Plug-In . SVG Version: 6.00 Build 0)  -->
<svg version="1.1"
	 id="Ebene_1" xmlns:cc="http://creativecommons.org/ns#" xmlns:dc="http://purl.org/dc/elements/1.1/" xmlns:rdf="http://www.w3.org/1999/02/22-rdf-syntax-ns#" xmlns:svg="http://www.w3.org/2000/svg"
	 xmlns="http://www.w3.org/2000/svg" xmlns:xlink="http://www.w3.org/1999/xlink" x="0px" y="0px" viewBox="0 0 492.5 492.5"
	 style="enable-background:new 0 0 492.5 492.5;" xml:space="preserve">
<style type="text/css">
	.st0{fill:#E8423F;}
	.st1{fill:#FFD134;stroke:#010202;stroke-width:3.264;}
	.st2{fill:#FFD134;stroke:#010202;stroke-width:3.048;stroke-miterlimit:10;}
	.st3{fill:#FFD134;}
	.st4{fill:none;stroke:#010202;stroke-width:2.776;stroke-linecap:square;stroke-miterlimit:10;}
	.st5{fill:#FFD134;stroke:#010202;stroke-width:3.048;stroke-linecap:square;stroke-miterlimit:10;}
	.st6{fill:#FFD134;stroke:#010202;stroke-width:3.248;stroke-miterlimit:10;}
	.st7{fill:#E8423F;stroke:#010202;stroke-width:3.048;}
	.st8{fill:none;stroke:#010202;stroke-width:3.048;}
	.st9{clip-path:url(#SVGID_2_);fill:#010202;}
	.st10{fill:#FFFFFF;}
	.st11{fill:#010202;}
</style>
<g>
	<g id="g5">
		<path id="path7" class="st0" d="M246.1,1.5h201.8V298c0,106.5-90.3,192.9-201.6,192.9L246.1,1.5L246.1,1.5z"/>
	</g>
	<path id="polygon37" class="st1" d="M393.3,81.8v27.1h18.9v16.2h-18.9v27.1h-16.5v-27.1H358v-16.2h18.8V81.8H393.3z M416.3,173.7
		v-19.3h19.7v-9.2V79.4h-19.7V60.4h19.7V34.1l-29.6-0.1V52l-24.8,0.3V34h-29.9v45.4h-20.3l-0.1,75h20.4v45.8h29.9v-18.4l24.8-0.3
		v18.4l29.6,0v-26.2H416.3z"/>
	<path id="path95" class="st2" d="M339.7,30.4c0-2.9-1.5-5.6-3.7-7.2c-0.5-4.5-4.3-8.1-8.9-8.1c-4.6,0-8.4,3.5-8.9,8
		c-2.3,1.6-3.7,4.3-3.7,7.3c0,0.2,0,0.5,0,0.7v271.4h25.2V30.9L339.7,30.4L339.7,30.4z M315,288.4c0,13.1,0.6,54.2-37.5,68.8l0,25
		c38.1,14.6,37.7,47.3,37.8,60.5h23.6c0-13.2-1.7-45.9,36.4-60.5v-24.8c-38.1-14.6-36.4-55.7-36.4-68.9H315z M326.5,347.7
		c5.9,0,10.6,4.7,10.7,10.5c5.8,0.1,10.5,4.8,10.5,10.6c0,5.8-4.7,10.6-10.5,10.6c-0.1,5.8-4.9,10.4-10.7,10.4
		c-5.8,0-10.6-4.6-10.7-10.4c-5.8-0.1-10.5-4.9-10.5-10.6c0-5.8,4.6-10.5,10.5-10.6C315.8,352.4,320.6,347.7,326.5,347.7z"/>
	<g id="g9">
		<path id="path11" class="st3" d="M246.2,490.9L246.2,490.9c-111.3,0-201.6-86.4-201.6-192.9V1.5h201.5L246.2,490.9z"/>
	</g>
	<line id="line41" class="st4" x1="432" y1="317.4" x2="432" y2="317.4"/>
	<path id="path73" class="st5" d="M326.9,301.3c-0.1,13.8-6.9,55.2-49.2,67.4c-0.6-4.6-4.9-8.2-10.1-8.2c-5.6,0-10.2,4.1-10.2,9.2
		s4.6,9.2,10.2,9.2c5.3,0,9.7-3.8,10.1-8.5c52.8,14,47.9,61,49.2,64.3c0.5-7,1.9-55.2,47.9-64.5c0.3,4.9,4.7,8.7,10.1,8.7
		c5.6,0,10.1-4.1,10.1-9.2c0-5.1-4.5-9.2-10.1-9.2c-5.2,0-9.6,3.6-10.1,8.3C336,358.1,326.5,317.5,326.9,301.3z M326.5,347.7
		c5.9,0,10.6,4.7,10.7,10.5c5.8,0.1,10.5,4.8,10.5,10.6c0,5.8-4.7,10.6-10.5,10.6c-0.1,5.8-4.9,10.4-10.7,10.4
		c-5.8,0-10.6-4.6-10.7-10.4c-5.8-0.1-10.5-4.9-10.5-10.6c0-5.8,4.6-10.5,10.5-10.6C315.8,352.4,320.6,347.7,326.5,347.7z
		 M326.9,436.3c-5.6,0-10.2,4.1-10.2,9.2c0,5.1,4.5,9.2,10.2,9.2c5.6,0,10.1-4.1,10.1-9.2C337.1,440.4,332.6,436.3,326.9,436.3z"/>
	<path id="path135" class="st6" d="M341.6,445.6c0.1,0,0.2,0,0.4,0c3.8,0,6.9-3.1,6.9-7c0-3.8-3.1-7-6.9-7h-0.1H312h-0.1
		c-3.8,0-6.9,3.1-6.9,7c0,3.8,3.1,7,6.9,7c0.1,0,0.2,0,0.3,0H341.6z M267.8,384.3c0,0.1,0,0.2,0,0.3c0,3.9,3.1,6.9,7,6.9
		c3.8,0,6.9-3.1,6.9-6.9c0,0,0,0,0,0h0v-29.9l0,0c0,0,0,0,0,0c0-3.8-3.1-7-6.9-7c-3.9,0-7,3.1-7,7c0,0.1,0,0.2,0,0.3L267.8,384.3
		L267.8,384.3L267.8,384.3z M384.9,354.9c0-0.1,0-0.2,0-0.3c0-3.9-3.1-7-7-7c-3.8,0-6.9,3.1-6.9,7h0v29.9h0v0.1
		c0,3.8,3.1,6.9,6.9,6.9c3.8,0,7-3.1,7-6.9c0-0.1,0-0.2,0-0.3V354.9z M343.4,291.2h-32.8c-3.6,0-6.4,2.9-6.4,6.4
		c0,3.6,2.8,6.5,6.4,6.5h32.8h0c3.5,0,6.4-2.9,6.4-6.5C349.8,294.1,347,291.2,343.4,291.2z M342.9,270.8h-32.4
		c-3.5,0-6.4,2.8-6.4,6.4c0,3.5,2.8,6.3,6.3,6.3h32.5h0c3.5,0,6.4-2.8,6.4-6.3C349.3,273.6,346.4,270.8,342.9,270.8z"/>
	<path id="path147" class="st7" d="M200.8,317.8l-52.4,59.1c0,0-3.6,3.3-11.6,2.9c-9.6-0.4-14.7-10.8-18.6-17.8
		c-1.5-0.5-4.8-1.2-4.8-1.2l-6.7,5.4c0,0-2.1,2-0.9,4.2c1.2,2.3,14.3,15.5,19.4,15.9c2.4,0.2,0.4,1.9-0.2,2.1
		c-5.8,2.1-15.2-2-15.2-2s-0.7-0.2-6.3-0.7c-5.6-0.5-4.7,3.5-4.7,3.5s2.1,6.6,3.6,8.7c3.4,4.8,25.2-3,25.2-3s4.6-0.7,5.8,2
		c-8.6,8.1-14.4,14-17.1,18.4c-4.6,7.9-1.9,12-1,13.1c1.8,1.6,9.1,1.9,12.6-2.1c2-2.3,4.2-11.5,10.1-20c4.4-6.4,12.1-12.6,16.7-14
		c10.1-2.9,24.7,5,24.7,5s7.2,3,10.3-5.7c0.8-2.4,1.1-4.3,1.1-4.3l-1-2.8c0,0-17.9-4.6-25.4-1.4c-2.9,1.3-3.3-1.5-2.4-3.1
		c1.2-2.5,5.7-8.7,12.3-16.4c12.3-14.3,29.5-33.3,30.6-41.1C201.1,320,200.8,317.8,200.8,317.8L200.8,317.8z"/>
	<path id="path369" class="st7" d="M165.4,51.9c-0.3,1.5-0.1,7.2,2.5,8.5c1.1,0.6,2.2,0,2.9-1.1c0.7-1.1,0.6-2.6,0.6-2.6
		c0,0-1.8-3.2,0.3-6.6c2.4-3.6,8.7-8,25.3-8.2c16.6,0.1,22.9,4.5,25.3,8.2c2.2,3.4,0.4,6.5,0.4,6.6c0,0-0.2,1.5,0.6,2.6
		c0.7,1.1,1.8,1.8,2.9,1.1c2.5-1.4,2.8-7.1,2.5-8.5c-1.5-7-8.2-15.3-31.6-15.5C173.6,36.5,166.9,44.9,165.4,51.9L165.4,51.9z
		 M173.3,105.5c-14.5-7.7-32.2-6.6-32.2-6.6s-4,1.8-4.3,5.2c-5.4-3.1-4.9-9.1-4.9-9.1s0.4-15.3,17.6-9.6c2,0.7,6.9,0,6.6-1.9
		c-0.3-1.8,4.5-6.5,10.2-2.5c5.7,4,42.9,43.7,48.5,57.2c-28.1-14.4-49.5-16.2-49.5-16.2s-6.6-0.5-13.5-0.3
		c4.5-4.4,13.8-9.5,17.6-8.2c5.1,1.7,19.4,6.6,19.4,6.6L173.3,105.5L173.3,105.5z M126.1,91.3c-1.7,10.4,1.2,11.3,4.8,13.3
		c4,2.3,30.7,0.4,35.9,0.8c5.2,0.5,20.1,14.8,20.1,14.8s-12.2-7.3-19.3-8.5c-10.3-1.8-25.8-0.1-36.1,1.2
		c-10.4,1.3-12.9-8.4-12.9-8.4S116.9,95.1,126.1,91.3z"/>
	<path id="path4707" class="st8" d="M246.3,1.6v488.6"/>
	<path id="path4705" class="st8" d="M246.1,1.5h201.8V298c0,106.5-90.3,192.9-201.6,192.9c-111.3,0-201.6-86.4-201.6-192.9V1.5
		L246.1,1.5L246.1,1.5z"/>
	<path id="path4703" class="st7" d="M128.1,438.3c-5.1-4.1-5.1-9.3-5-12.5c0.1-4.1-7,1.3-6.4,4C117,431.3,114.8,440.7,128.1,438.3
		L128.1,438.3z"/>
	<path id="path4701" class="st7" d="M92.3,407.8c0,0,1.1-11.9,10.5-13.7c5.6-1.1,2-5.5,2-5.5s-9-2.8-15.1,8.6
		C87.9,400.9,92.3,407.8,92.3,407.8z"/>
	<path id="path4699" class="st7" d="M90.1,368.8c0.6-3.5,4.9-16,18.2-8.7c4.9,2.7,3.6,6.5,3.6,6.5s-2.6,3.4-5.9,1.1
		C97.4,361.7,98.2,360.3,90.1,368.8L90.1,368.8z"/>
	<path id="path399" class="st7" d="M194.8,406.3c4.8-2,5.7-9.9,4.6-11.5c-5.9-7.9-13.2-8.4-13.2-8.4s-3.8,3.2,3.6,8.6
		C197.1,400.3,195,404.8,194.8,406.3z"/>
	<path id="path4794" class="st7" d="M201.7,39.9c0,2.3-2.1,4.2-4.6,4.2c-2.6,0-4.6-1.9-4.6-4.2c0-2.3,2.1-4.2,4.6-4.2
		C199.6,35.7,201.7,37.6,201.7,39.9z M206.8,19.1c0,5.1-4.5,9.2-10,9.2c-5.5,0-10-4.1-10-9.2c0-5.1,4.5-9.2,10-9.2
		C202.3,9.9,206.8,14,206.8,19.1z M201.7,31.7c0,2.3-2.1,4.2-4.7,4.2c-2.6,0-4.6-1.9-4.6-4.2c0-2.3,2.1-4.2,4.6-4.2
		C199.6,27.6,201.7,29.4,201.7,31.7z M201.7,56.8c0,2.3-2.1,4.2-4.6,4.2c-2.6,0-4.6-1.9-4.6-4.2s2.1-4.2,4.6-4.2
		C199.6,52.6,201.7,54.5,201.7,56.8z M201.7,48.3c0,2.3-2.1,4.2-4.6,4.2c-2.6,0-4.6-1.9-4.6-4.2c0-2.3,2.1-4.2,4.6-4.2
		C199.6,44.2,201.7,46,201.7,48.3z M229,51.7c0,2.3,2.1,4.2,4.7,4.2c2.5,0,4.6-1.9,4.6-4.2s-2.1-4.2-4.6-4.2
		C231,47.5,229,49.4,229,51.7z M225.8,43.8c0,2.4,2.1,4.3,4.6,4.3c2.6,0,4.6-1.9,4.6-4.3c0-2.4-2.1-4.3-4.6-4.3
		C227.8,39.5,225.8,41.4,225.8,43.8z M219.2,37.9c0,2.3,2.1,4.2,4.7,4.2c2.6,0,4.6-1.9,4.6-4.2c0-2.3-2.1-4.2-4.6-4.2
		C221.2,33.7,219.2,35.6,219.2,37.9z M210.8,34.2c0,2.3,2.1,4.2,4.7,4.2c2.6,0,4.6-1.9,4.6-4.2c0-2.3-2.1-4.2-4.6-4.2
		C212.9,30,210.8,31.9,210.8,34.2z M211,32.3c0,2.3-2.1,4.2-4.7,4.2c-2.6,0-4.7-1.9-4.7-4.2c0-2.3,2.1-4.2,4.7-4.2
		C208.9,28.2,211,30,211,32.3z M165.2,51.7c0,2.3-2.1,4.2-4.7,4.2c-2.6,0-4.7-1.9-4.7-4.2s2.1-4.2,4.7-4.2
		C163.1,47.5,165.2,49.4,165.2,51.7z M163.8,39.5c2.6,0,4.7,1.9,4.7,4.3c0,2.4-2.1,4.3-4.7,4.3c-2.6,0-4.7-1.9-4.7-4.3
		C159.1,41.4,161.2,39.5,163.8,39.5z M175,37.9c0,2.3-2.1,4.2-4.6,4.2c-2.6,0-4.6-1.9-4.6-4.2c0-2.3,2.1-4.2,4.6-4.2
		C172.9,33.7,175,35.6,175,37.9z M183.4,34.2c0,2.3-2.1,4.2-4.7,4.2s-4.7-1.9-4.7-4.2s2.1-4.2,4.7-4.2
		C181.3,30.1,183.4,31.9,183.4,34.2z M192.5,32.3c0,2.3-2.1,4.2-4.7,4.2c-2.6,0-4.7-1.9-4.7-4.2c0-2.3,2.1-4.2,4.7-4.2
		C190.4,28.2,192.5,30,192.5,32.3z M163.8,39.5c2.6,0,4.7,1.9,4.7,4.3c0,2.4-2.1,4.3-4.7,4.3c-2.6,0-4.7-1.9-4.7-4.3
		C159.1,41.4,161.2,39.5,163.8,39.5z M224.4,68.1L224.4,68.1c0,0-54.2,0-54.2,0c-1.7,0-3,1.6-3,3.6c0,2,1.4,3.6,3,3.6h54.2
		c1.7,0,3-1.6,3-3.6C227.4,69.7,226.1,68.1,224.4,68.1z M227.1,61L227.1,61l-59.5,0c-1.8,0-3.3,1.6-3.3,3.6c0,2,1.5,3.6,3.3,3.6
		c0.1,0,0.1,0,0.2,0H227c0.1,0,0.1,0,0.2,0c1.8,0,3.3-1.6,3.3-3.6C230.4,62.6,229,61,227.1,61z"/>
	<g>
		<defs>
			<rect id="SVGID_1_" x="43.1" width="406.2" height="492.5"/>
		</defs>
		<clipPath id="SVGID_2_">
			<use xlink:href="#SVGID_1_"  style="overflow:visible;"/>
		</clipPath>
		<path id="path169" class="st9" d="M245.5,115.7c0,0-6.4-7.2-7.2-7.1c4.3-3.8,7.6-6,7.2-8.5c-2.4,2.2-12.4-0.4-13-5.2
			c2.6-1.2,2-0.4,7.7-7.1c-17.4,2.3-15.6-13.2-15.6-13.2l-54.4-0.5l-5.4,10.7l48.8,51.4c0,0,7.3,13.4,7.2,17.3
			c-7.4-1.7-10-4.6-27.2,8.7c-16.8-6.2-12.6-3.1-41.4,6c-9.7,3.1-18.9-3.3-18.9-3.3s-9.5-10.8,5.2-17.2c1-2.2-10.6-17.6-26.1-35.7
			c-20.6-30-41.1-68.7-53-88.8C41,49.8,54.8,77.7,76.6,102.5c5.6,6.7,18.3,20.4,24.4,25.5c10.3,10,12.8,11.8,12.8,14
			c-2.2-0.1-5.6-1.2-7.2-1.3c-3.6-1-41.5-20.1-52.8-30.9c-9.1,32.6,10.4,39.1,25.1,43.3c11.3,3.1,21.7,5.3,30.3,6.7
			c-0.2,1,0,0.6-0.2,1.1c-14,3.7-42.1,5.7-57.7,2.5c-4,34.1,47.9,22.2,60.3,13.7c0.7,0,1,0,1,0s-0.4,1.3-0.8,2.5
			c-13.3,12-47.4,25.4-57.4,29.2c19.2,38.7,61.8-10.8,67.3-18c0.9,0,1,0,1.8,0c4.6,5.6-52.7,79.6-62.3,91.1
			c39.7,23.4,66.4-52,81.4-83.4c1.9,0.4,2.5,0.3,2.5,0.3s0.2,4.8-0.5,6.3c0.4,2.8-33,108.3-47.5,138.8c61.7,1,57.7-97.2,67.6-143.5
			c0.3-1,1.7-1.1,3.1-0.8c3.4,5-0.7,86.2-3.6,110.2c47.1-13.9,25.3-104.4,27.2-114.2c1.9-4.5,5-3.2,5-3.2s18.5,54.6,17.9,59.5
			c-2.2,4.6-42.9,88.1-42.9,88.1l21.4-4.4c0,0,11.8,37.9,13.8,38.7c15.2-55.1,18.5-72.8,20.9-75.3c4.8,16.4,19.2,46.4,12.6,83.1
			c-6.5,36.7-34.4,61.8-51.1,60.5c-9.2-0.2-9.4-6.6-7.8-8.4c11.4-12.8,7.2-26.4-6.4-27.4c-5.9-0.4-20.5,1-24.4,11.8
			c-1,2.8,1.5,2.8,1.5,2.8s3.3-3,9.5-3.8c18.4-2.4-12.6,19-10.6,33.8c0.7,4.8,3.6,8.7,5.5,10.5c5.3,5,15.9,4.7,17.8,4.6
			c2.8-0.2,32.7,2.8,65.7-46.8c0.9-1.4,1.9,0.3,1.6,4.9c-0.6,10.9-14.5,29.2-20.8,35.9c-1.8,1.9-4.3,11.6,2.5,14
			c10.2,3.6,22.1,15.6,22.1,15.6L245.5,115.7L245.5,115.7z"/>
	</g>
	<path id="path201" class="st10" d="M201.5,87.5c0,2-2.5,3.5-5.7,3.5c-3.1,0-5.7-1.6-5.7-3.5c0-1.9,2.5-3.5,5.7-3.5
		C198.9,84,201.5,85.6,201.5,87.5"/>
	<path id="path205" class="st11" d="M196.3,87c0,1.4-1.3,2.5-2.8,2.5c-1.6,0-2.9-1.1-2.9-2.5c0-1.4,1.3-2.4,2.9-2.4
		C195,84.5,196.3,85.6,196.3,87"/>
	<path id="path209" class="st10" d="M185.5,79.7c0,0-4.5,0.8-4.4,4c0.1,5.3,15.5-3.3,24.7-1.4c-6.7-3.1-21,3-22,0.6
		C183.5,82.2,185.5,79.7,185.5,79.7"/>
</g>
</svg>
