<?xml version="1.0" encoding="utf-8"?>
<!-- Generator: Adobe Illustrator 25.0.1, SVG Export Plug-In . SVG Version: 6.00 Build 0)  -->
<svg version="1.1" id="Ebene_1" xmlns="http://www.w3.org/2000/svg" xmlns:xlink="http://www.w3.org/1999/xlink" x="0px" y="0px"
	 viewBox="0 0 492.5 492.5" style="enable-background:new 0 0 492.5 492.5;" xml:space="preserve">
<style type="text/css">
	.st0{fill:#E7423F;}
	.st1{fill:#FFFFFF;}
	.st2{clip-path:url(#SVGID_2_);fill:none;stroke:#000000;stroke-width:3.048;}
</style>
<g>
	<path class="st0" d="M246.1,1.5h201.7V298c0,106.6-90.3,192.9-201.6,192.9c-111.3,0-201.6-86.4-201.6-192.9V1.5H246.1z"/>
	<polygon class="st1" points="428.6,74.3 370.1,74.3 370.1,16.3 351,16.3 351,74.3 292.6,74.3 292.6,93.5 351,93.5 351,151.8 
		370.1,151.8 370.1,93.5 428.6,93.5 	"/>
	<g>
		<g>
			<g>
				<g>
					<g>
						<defs>
							<rect id="SVGID_1_" x="43.1" width="406.2" height="492.5"/>
						</defs>
						<clipPath id="SVGID_2_">
							<use xlink:href="#SVGID_1_"  style="overflow:visible;"/>
						</clipPath>
						<path class="st2" d="M246.1,1.5h201.7V298c0,106.6-90.3,192.9-201.6,192.9c-111.3,0-201.6-86.4-201.6-192.9V1.5H246.1z"/>
					</g>
				</g>
			</g>
		</g>
	</g>
</g>
</svg>
